<svg width="351" height="350" viewBox="0 0 351 350" fill="none" xmlns="http://www.w3.org/2000/svg">
<path d="M37.5474 165.951L38.869 190.256C38.9159 191.122 39.6285 191.802 40.4958 191.808L84.2325 192.129C85.139 192.136 85.8789 191.406 85.8852 190.5L86.0238 171.58C86.0301 170.67 85.2951 169.928 84.3844 169.928L57.4855 169.904C57.0508 169.903 56.6343 169.731 56.327 169.424L51.686 164.785C51.3815 164.48 50.9692 164.307 50.538 164.304L39.198 164.22C38.2523 164.214 37.4963 165.006 37.5474 165.951Z" fill="#EBEBEB"/>
<path d="M86.0663 167.071L38.2773 166.722L38.0689 195.278L85.8579 195.627L86.0663 167.071Z" fill="#F5F5F5"/>
<path d="M34.4466 169.254L37.8773 199.06C37.9382 199.59 38.3848 199.99 38.9175 199.994L85.4892 200.335C86.0401 200.339 86.5014 199.919 86.5483 199.371L89.111 169.609C89.1635 168.996 88.6826 168.468 88.0673 168.463L35.5022 168.078C34.8687 168.074 34.3738 168.624 34.4466 169.254Z" fill="#EBEBEB"/>
<path d="M236.121 170.143L237.259 191.072C237.299 191.817 237.913 192.402 238.659 192.408L276.319 192.684C277.1 192.689 277.737 192.061 277.743 191.281L277.862 174.99C277.867 174.206 277.234 173.567 276.45 173.567L253.288 173.546C252.914 173.546 252.555 173.397 252.291 173.133L248.294 169.138C248.032 168.876 247.677 168.728 247.306 168.725L237.542 168.653C236.728 168.647 236.077 169.33 236.121 170.143Z" fill="#EBEBEB"/>
<path d="M277.9 171.104L236.75 170.803L236.571 195.392L277.72 195.693L277.9 171.104Z" fill="#F5F5F5"/>
<path d="M233.455 172.986L236.409 198.65C236.462 199.107 236.846 199.452 237.305 199.455L277.407 199.749C277.881 199.753 278.278 199.391 278.319 198.918L280.526 173.292C280.572 172.764 280.157 172.309 279.627 172.306L234.365 171.974C233.819 171.97 233.393 172.444 233.455 172.986Z" fill="#EBEBEB"/>
<path d="M311.312 32.9998H244.387V143.781H311.312V32.9998Z" fill="#E0E0E0"/>
<path d="M309.084 32.9998H242.158V143.781H309.084V32.9998Z" fill="#EBEBEB"/>
<path d="M306.236 35.2468H245.01V141.535H306.236V35.2468Z" fill="white"/>
<path d="M294.311 49.062H256.662V127.727H294.311V49.062Z" fill="#EBEBEB"/>
<path d="M256.663 99.8863C256.576 92.5377 263.183 85.3641 270.46 84.3379C273.93 83.8486 277.617 84.5374 280.859 83.2081C286.646 80.8351 288.488 73.1456 294.312 70.865L294.578 127.723H256.664V99.8863H256.663Z" fill="#E0E0E0"/>
<path d="M307.446 174.934C307.446 174.934 301.903 174.535 302.413 186.97C302.923 199.405 304.192 206.028 304.192 206.028C304.192 206.028 304.029 208.786 301.894 208.245C299.758 207.704 295.741 205.02 293.758 207.026C291.7 209.106 292.432 212.297 295.161 216.055C297.89 219.814 303.567 228.267 304.078 229.033C304.58 229.785 304.78 231.196 303.267 231.06C301.753 230.924 291.536 227.461 290.183 232.408C288.83 237.354 298.154 246.575 299.154 247.602C300.153 248.63 300.207 249.279 299.802 249.9C299.396 250.522 296.072 249.034 293.125 248.169C290.179 247.303 286.611 246.815 286.069 249.734C285.528 252.653 289.635 261.197 305.014 270.176L312.412 273.87L319.415 269.403C333.818 258.931 337.05 250.02 336.219 247.17C335.388 244.319 331.887 245.161 329.042 246.317C326.197 247.473 323.038 249.286 322.572 248.708C322.107 248.13 322.096 247.48 322.987 246.357C323.88 245.235 332.234 235.127 330.393 230.342C328.552 225.555 318.733 230.023 317.24 230.309C315.747 230.596 315.807 229.172 316.23 228.373C316.662 227.56 321.465 218.581 323.804 214.569C326.144 210.556 326.553 207.309 324.297 205.445C322.122 203.647 318.394 206.719 316.323 207.471C314.253 208.223 313.815 205.496 313.815 205.496C313.815 205.496 314.415 198.78 313.679 186.356C312.942 173.933 307.334 174.936 307.334 174.936" fill="#EBEBEB"/>
<path d="M307.877 186.071C307.877 186.071 307.891 186.159 307.907 186.331C307.921 186.515 307.94 186.768 307.966 187.094C308.012 187.779 308.079 188.766 308.165 190.03C308.334 192.581 308.553 196.273 308.805 200.836C309.312 209.962 309.905 222.574 310.514 236.506C311.122 250.442 311.683 263.055 312.14 272.183C312.371 276.737 312.559 280.427 312.689 282.992C312.752 284.258 312.801 285.246 312.835 285.931C312.849 286.257 312.859 286.512 312.866 286.696C312.872 286.868 312.867 286.957 312.867 286.957C312.867 286.957 312.852 286.869 312.838 286.697C312.824 286.513 312.804 286.259 312.779 285.934C312.733 285.249 312.665 284.262 312.58 282.998C312.41 280.448 312.192 276.756 311.94 272.194C311.433 263.068 310.84 250.454 310.231 236.518C309.623 222.587 309.062 209.974 308.606 200.847C308.374 196.293 308.187 192.603 308.056 190.037C307.993 188.771 307.944 187.783 307.91 187.098C307.896 186.772 307.886 186.518 307.879 186.333C307.872 186.16 307.877 186.071 307.877 186.071Z" fill="#E0E0E0"/>
<path d="M299.224 211.003C299.238 210.989 299.401 211.126 299.684 211.386C299.969 211.644 300.369 212.031 300.858 212.513C301.835 213.481 303.148 214.852 304.568 216.392C305.958 217.912 307.215 219.287 308.186 220.351C308.618 220.819 308.986 221.218 309.288 221.545C309.549 221.827 309.687 221.989 309.673 222.003C309.66 222.017 309.495 221.881 309.21 221.624C308.926 221.364 308.526 220.978 308.042 220.49C307.074 219.513 305.78 218.125 304.36 216.584C302.96 215.075 301.693 213.71 300.714 212.653C300.279 212.187 299.91 211.79 299.606 211.464C299.347 211.18 299.21 211.017 299.224 211.003Z" fill="#E0E0E0"/>
<path d="M310.407 221.764C310.351 221.709 313.057 218.876 316.449 215.436C319.843 211.995 322.639 209.251 322.694 209.306C322.749 209.361 320.045 212.193 316.651 215.635C313.259 219.074 310.462 221.818 310.407 221.764Z" fill="#E0E0E0"/>
<path d="M310.375 243.197C310.366 243.18 310.55 243.064 310.891 242.869C311.286 242.647 311.77 242.376 312.338 242.057C313.559 241.371 315.242 240.418 317.062 239.299C318.885 238.185 320.499 237.119 321.663 236.34C322.205 235.978 322.667 235.671 323.043 235.42C323.371 235.204 323.558 235.093 323.569 235.108C323.58 235.124 323.416 235.266 323.108 235.508C322.799 235.751 322.346 236.094 321.777 236.505C320.64 237.328 319.038 238.423 317.209 239.54C315.385 240.663 313.68 241.591 312.433 242.233C311.808 242.552 311.299 242.804 310.942 242.967C310.585 243.132 310.384 243.215 310.375 243.197Z" fill="#E0E0E0"/>
<path d="M298.12 235.696C298.129 235.68 298.311 235.766 298.631 235.936C298.951 236.107 299.41 236.362 299.973 236.682C301.099 237.322 302.645 238.223 304.343 239.233C306.042 240.243 307.572 241.172 308.672 241.856C309.222 242.198 309.665 242.479 309.967 242.678C310.27 242.878 310.432 242.996 310.422 243.013C310.412 243.03 310.23 242.943 309.91 242.773C309.591 242.602 309.132 242.347 308.569 242.027C307.443 241.387 305.897 240.486 304.198 239.476C302.5 238.466 300.969 237.537 299.87 236.853C299.319 236.511 298.877 236.231 298.575 236.031C298.272 235.832 298.109 235.713 298.12 235.696Z" fill="#E0E0E0"/>
<path d="M295.688 254.62C295.698 254.603 295.929 254.716 296.339 254.935C296.795 255.186 297.372 255.505 298.061 255.885C299.508 256.698 301.499 257.837 303.688 259.111C305.878 260.385 307.852 261.553 309.274 262.41C309.945 262.821 310.507 263.165 310.951 263.437C311.343 263.685 311.555 263.831 311.546 263.847C311.536 263.864 311.305 263.752 310.895 263.532C310.439 263.281 309.861 262.963 309.173 262.583C307.725 261.77 305.735 260.63 303.545 259.356C301.356 258.082 299.381 256.915 297.959 256.059C297.289 255.648 296.727 255.303 296.283 255.031C295.891 254.782 295.678 254.637 295.688 254.62Z" fill="#E0E0E0"/>
<path d="M311.227 263.521C311.217 263.505 311.447 263.352 311.87 263.09C312.341 262.804 312.945 262.436 313.668 261.995C315.186 261.071 317.278 259.786 319.548 258.305C321.822 256.827 323.845 255.436 325.303 254.42C325.999 253.936 326.58 253.533 327.032 253.219C327.442 252.937 327.674 252.789 327.686 252.804C327.698 252.82 327.488 252.998 327.097 253.308C326.707 253.617 326.135 254.055 325.419 254.583C323.989 255.642 321.98 257.062 319.702 258.543C317.428 260.027 315.315 261.286 313.769 262.168C312.995 262.607 312.365 262.956 311.924 263.186C311.484 263.418 311.237 263.539 311.227 263.521Z" fill="#E0E0E0"/>
<path d="M322.347 276.289H301.879L308.56 326.857H315.667L322.347 276.289Z" fill="#E0E0E0"/>
<path d="M302.937 282.504C302.929 282.509 302.959 282.576 303.046 282.684C303.133 282.791 303.294 282.931 303.539 283.038C304.025 283.249 304.877 283.266 305.701 282.772C306.528 282.317 307.247 281.421 308.355 281.025C309.454 280.606 310.815 280.681 312.119 281.1C313.439 281.508 314.585 282.176 315.624 282.798C316.665 283.418 317.619 283.97 318.475 284.328C319.324 284.699 320.064 284.869 320.577 284.935C320.834 284.97 321.034 284.979 321.17 284.975C321.306 284.975 321.378 284.97 321.378 284.958C321.39 284.891 320.22 284.901 318.571 284.111C317.745 283.733 316.816 283.168 315.783 282.534C314.756 281.9 313.582 281.202 312.219 280.781C310.872 280.347 309.424 280.269 308.246 280.737C307.658 280.961 307.163 281.313 306.751 281.662C306.333 282.008 305.959 282.333 305.579 282.57C304.831 283.054 304.044 283.074 303.586 282.916C303.114 282.752 302.963 282.475 302.937 282.504Z" fill="#F5F5F5"/>
<path d="M303.686 291.817C303.713 291.834 303.848 291.608 304.168 291.274C304.493 290.95 305.028 290.525 305.802 290.238C306.57 289.943 307.557 289.768 308.649 289.809C309.745 289.847 310.94 290.088 312.21 290.294C313.479 290.508 314.735 290.603 315.857 290.446C316.979 290.301 317.954 289.979 318.727 289.627C319.501 289.273 320.075 288.886 320.452 288.601C320.83 288.315 321.01 288.122 320.999 288.109C320.96 288.054 320.17 288.761 318.632 289.41C317.865 289.727 316.91 290.018 315.82 290.14C314.73 290.276 313.523 290.176 312.263 289.965C311.003 289.76 309.789 289.524 308.658 289.502C307.525 289.477 306.504 289.683 305.714 290.019C304.916 290.348 304.377 290.825 304.071 291.188C303.924 291.377 303.817 291.528 303.762 291.641C303.702 291.751 303.676 291.811 303.686 291.817Z" fill="#F5F5F5"/>
<path d="M320.028 296.802C320.035 296.787 319.846 296.659 319.464 296.51C319.083 296.359 318.501 296.204 317.767 296.146C317.034 296.087 316.156 296.134 315.203 296.293C314.248 296.447 313.225 296.711 312.15 296.939C311.076 297.165 310.04 297.318 309.102 297.284C308.164 297.251 307.33 297.046 306.682 296.76C305.365 296.182 304.896 295.341 304.847 295.394C304.834 295.401 304.927 295.612 305.193 295.928C305.457 296.243 305.918 296.645 306.583 296.974C307.247 297.301 308.112 297.54 309.089 297.591C310.067 297.644 311.133 297.495 312.219 297.266C313.306 297.035 314.321 296.764 315.255 296.596C316.188 296.425 317.041 296.356 317.754 296.382C319.191 296.429 320.007 296.864 320.028 296.802Z" fill="#F5F5F5"/>
<path d="M305.497 303.813C305.506 303.866 306.227 303.357 307.484 303.612C308.1 303.724 308.789 304.036 309.563 304.387C310.334 304.747 311.264 305.054 312.261 305.131C314.272 305.325 316.061 304.675 317.158 303.997C317.72 303.663 318.111 303.305 318.377 303.059C318.626 302.794 318.753 302.641 318.737 302.626C318.692 302.577 318.155 303.182 317.04 303.792C315.944 304.399 314.217 304.984 312.291 304.799C310.354 304.688 308.866 303.533 307.523 303.38C306.868 303.282 306.32 303.376 305.979 303.514C305.633 303.648 305.487 303.801 305.497 303.813Z" fill="#F5F5F5"/>
<path d="M306.637 313.52C306.637 313.559 307.323 313.554 308.343 313.182C309.372 312.838 310.646 312.049 312.133 311.458C312.879 311.174 313.628 310.999 314.308 311.002C314.989 311.006 315.597 311.172 316.057 311.401C316.997 311.87 317.269 312.535 317.321 312.493C317.336 312.486 317.294 312.319 317.127 312.062C316.962 311.805 316.648 311.469 316.168 311.194C315.689 310.92 315.044 310.716 314.312 310.695C313.578 310.673 312.787 310.852 312.014 311.147C310.473 311.761 309.24 312.573 308.257 312.962C307.286 313.38 306.629 313.467 306.637 313.52Z" fill="#F5F5F5"/>
<path d="M307.639 318.038C307.628 318.08 308.118 318.256 308.935 318.459C309.75 318.662 310.895 318.878 312.174 319.005C313.453 319.129 314.619 319.14 315.459 319.1C316.299 319.061 316.814 318.983 316.812 318.94C316.807 318.839 314.738 318.927 312.207 318.672C309.676 318.43 307.663 317.941 307.639 318.038Z" fill="#F5F5F5"/>
<path d="M93.9548 45.125H27.0586V142.088H93.9548V45.125Z" fill="#E0E0E0"/>
<path d="M90.6052 45.125H23.709V142.088H90.6052V45.125Z" fill="#F5F5F5"/>
<path d="M82.2935 55.6205H32.0195V131.58H82.2935V55.6205Z" fill="white"/>
<path d="M82.2932 131.582C82.2932 131.582 82.2869 131.453 82.2834 131.21C82.2813 130.96 82.2778 130.601 82.2736 130.133C82.2687 129.178 82.2624 127.781 82.2533 125.967C82.2428 122.326 82.2274 117.021 82.2085 110.319C82.1882 96.925 82.1602 77.9578 82.1266 55.6222L82.2932 55.7888C66.9338 55.7937 49.914 55.7986 32.0255 55.8035H32.0192L32.2012 55.6215C32.1872 84.2767 32.1746 110.697 32.1641 131.581L32.0192 131.436C47.3296 131.469 59.8792 131.494 68.6117 131.513C72.9797 131.529 76.3915 131.541 78.7211 131.55C79.8789 131.557 80.7665 131.562 81.3748 131.566C81.9761 131.571 82.2932 131.582 82.2932 131.582C82.2932 131.582 81.9971 131.592 81.4063 131.597C80.8043 131.601 79.9258 131.606 78.7799 131.613C76.4573 131.622 73.0567 131.634 68.7027 131.651C59.9485 131.669 47.3681 131.695 32.0199 131.727H31.875V131.581C31.8645 110.697 31.8519 84.2767 31.8379 55.6215V55.4395H32.0199H32.0262C49.9147 55.4451 66.9345 55.45 82.2939 55.4542H82.4612V55.6208C82.4276 78.0019 82.3989 97.0069 82.3793 110.428C82.3604 117.114 82.345 122.406 82.3345 126.037C82.3261 127.837 82.3191 129.223 82.3142 130.17C82.31 130.631 82.3065 130.982 82.3044 131.228C82.2995 131.466 82.2932 131.582 82.2932 131.582Z" fill="#E0E0E0"/>
<path d="M90.7935 45.1193C90.8327 45.1494 90.3784 45.8123 89.6014 46.8518C88.8244 47.8913 87.7212 49.3046 86.4626 50.8334C85.2033 52.3622 84.0273 53.7153 83.1558 54.6771C82.285 55.6389 81.7215 56.2115 81.6837 56.1793C81.6452 56.1457 82.1401 55.5136 82.9605 54.5091C83.8572 53.4213 84.9611 52.0822 86.1812 50.6017C87.4006 49.1205 88.5024 47.7814 89.3991 46.6922C90.2272 45.6954 90.7536 45.0885 90.7935 45.1193Z" fill="#E0E0E0"/>
<path d="M82.5488 131.341C85.0457 135.312 87.9934 138.999 91.3177 142.308L82.5488 131.341Z" fill="white"/>
<path d="M91.3127 142.307C91.2798 142.341 90.6827 141.823 89.7839 140.916C88.8851 140.01 87.6937 138.707 86.4764 137.186C85.2598 135.663 84.2497 134.214 83.5644 133.138C82.8784 132.062 82.5046 131.365 82.5438 131.341C82.5893 131.312 83.0394 131.959 83.7772 132.993C84.5143 134.029 85.551 135.444 86.7606 136.958C87.9709 138.47 89.1238 139.793 89.9715 140.74C90.8185 141.687 91.3505 142.268 91.3127 142.307Z" fill="#E0E0E0"/>
<path d="M23.6973 142.007C26.6184 138.404 29.5388 134.8 32.4599 131.197L23.6973 142.007Z" fill="white"/>
<path d="M32.4544 131.199C32.5321 131.262 30.6337 133.734 28.2145 136.719C25.7946 139.705 23.7695 142.073 23.6918 142.01C23.6141 141.947 25.5118 139.476 27.9317 136.49C30.3509 133.505 32.376 131.136 32.4544 131.199Z" fill="#E0E0E0"/>
<path d="M23.7018 45.1203C23.7809 45.058 25.6849 47.3344 27.955 50.2044C30.2258 53.0751 32.0017 55.4523 31.9226 55.5146C31.8435 55.5769 29.9395 53.3012 27.6694 50.4298C25.3993 47.5605 23.6227 45.1826 23.7018 45.1203Z" fill="#E0E0E0"/>
<path d="M66.6305 71.0485H49.7969V118.844H66.6305V71.0485Z" fill="#E0E0E0"/>
<path d="M177.806 28.9014H125.227V83.7114H177.806V28.9014Z" fill="#E0E0E0"/>
<path d="M174.244 28.9015H121.664V83.7115H174.244V28.9015Z" fill="#FAFAFA"/>
<path d="M174.267 83.7241H121.654V28.8812H174.267V83.7241ZM121.687 83.6912H174.234V28.9134H121.687V83.6912Z" fill="#E0E0E0"/>
<path d="M167.18 36.2689H128.736V76.3425H167.18V36.2689Z" fill="white"/>
<path d="M128.737 76.6181C128.768 76.6538 128.403 77.0731 127.789 77.7213C127.175 78.3688 126.313 79.2459 125.345 80.1986C124.378 81.1513 123.489 82.0004 122.834 82.6024C122.178 83.2044 121.756 83.5614 121.723 83.5278C121.69 83.4942 122.052 83.077 122.666 82.4295C123.28 81.782 124.145 80.9028 125.116 79.9473C126.086 78.9918 126.976 78.1413 127.631 77.5393C128.287 76.9366 128.707 76.5824 128.737 76.6181Z" fill="#E0E0E0"/>
<path d="M167.18 76.51C167.216 76.4799 167.635 76.8446 168.283 77.4585C168.931 78.0724 169.808 78.9355 170.761 79.9022C171.713 80.8696 172.562 81.7586 173.164 82.4138C173.767 83.0697 174.124 83.4918 174.09 83.5247C174.056 83.5576 173.639 83.195 172.992 82.5811C172.344 81.9672 171.465 81.102 170.509 80.1318C169.555 79.1623 168.703 78.2712 168.101 77.616C167.499 76.9601 167.144 76.5401 167.18 76.51Z" fill="#E0E0E0"/>
<path d="M167.078 36.3767C167.048 36.341 167.412 35.9217 168.026 35.2735C168.64 34.6253 169.503 33.7489 170.47 32.7962C171.437 31.8428 172.326 30.9944 172.982 30.3917C173.638 29.789 174.06 29.4327 174.093 29.4663C174.125 29.4999 173.763 29.9164 173.149 30.5646C172.535 31.2121 171.67 32.0913 170.7 33.0468C169.73 34.0023 168.839 34.8528 168.183 35.4548C167.529 36.0582 167.108 36.4124 167.078 36.3767Z" fill="#E0E0E0"/>
<path d="M128.633 36.4845C128.597 36.5146 128.178 36.1499 127.529 35.536C126.881 34.9221 126.005 34.059 125.052 33.0923C124.099 32.1249 123.25 31.2359 122.648 30.5807C122.046 29.9248 121.689 29.5027 121.723 29.4698C121.756 29.4362 122.173 29.7995 122.821 30.4134C123.469 31.0273 124.348 31.8925 125.303 32.8627C126.259 33.8329 127.109 34.7233 127.711 35.3792C128.314 36.0344 128.668 36.4544 128.633 36.4845Z" fill="#E0E0E0"/>
<path d="M167.073 76.3524C167.07 76.3496 167.067 76.2838 167.064 76.1578C167.062 76.0213 167.06 75.8372 167.056 75.5985C167.052 75.0959 167.046 74.3735 167.039 73.4355C167.029 71.5371 167.016 68.7749 167 65.2679C166.982 58.249 166.956 48.2502 166.924 36.2788L167.073 36.4272C155.881 36.4335 142.739 36.4412 128.739 36.4489H128.735L128.905 36.2788C128.896 50.9872 128.889 64.7478 128.882 76.3524L128.735 76.2068C140.224 76.2376 149.788 76.2635 156.494 76.281C159.845 76.2971 162.481 76.3104 164.292 76.3188C165.186 76.3265 165.875 76.3321 166.355 76.3356C166.581 76.3391 166.757 76.3419 166.887 76.344C167.008 76.3475 167.07 76.3496 167.073 76.3524C167.076 76.3552 167.018 76.358 166.903 76.3608C166.777 76.3629 166.606 76.3657 166.386 76.3692C165.913 76.3734 165.234 76.379 164.351 76.386C162.548 76.3951 159.924 76.4077 156.587 76.4245C149.858 76.4427 140.261 76.4686 128.735 76.4994L128.589 76.5001V76.3531C128.582 64.7485 128.574 50.9879 128.564 36.2795V36.1094H128.735H128.738C142.738 36.1171 155.881 36.1248 167.072 36.1311H167.221V36.2795C167.189 48.2908 167.163 58.3225 167.145 65.3638C167.128 68.8568 167.115 71.6071 167.106 73.4978C167.098 74.4239 167.092 75.1365 167.088 75.6328C167.085 75.8645 167.082 76.043 167.08 76.176C167.078 76.2957 167.076 76.3559 167.073 76.3524Z" fill="#E0E0E0"/>
<path d="M154.371 49.8883H141.543V62.7165H154.371V49.8883Z" fill="#EBEBEB"/>
<path d="M97.7544 250.529L99.0683 274.7C99.1152 275.561 99.8236 276.238 100.686 276.244L144.181 276.562C145.082 276.569 145.818 275.844 145.824 274.943L145.962 256.128C145.968 255.223 145.237 254.485 144.332 254.484L117.581 254.46C117.149 254.459 116.735 254.288 116.429 253.983L111.813 249.369C111.51 249.066 111.1 248.894 110.672 248.891L99.3945 248.809C98.4551 248.802 97.7033 249.59 97.7544 250.529Z" fill="#EBEBEB"/>
<path d="M146.007 251.645L98.4824 251.298L98.2751 279.696L145.8 280.043L146.007 251.645Z" fill="#F5F5F5"/>
<path d="M94.675 253.815L98.0868 283.456C98.1477 283.983 98.5915 284.381 99.1214 284.385L145.436 284.725C145.983 284.729 146.441 284.311 146.489 283.765L149.038 254.168C149.09 253.559 148.612 253.034 148 253.029L95.725 252.646C95.095 252.642 94.6029 253.19 94.675 253.815Z" fill="#EBEBEB"/>
<path d="M173.317 264.143L174.634 288.367C174.681 289.23 175.39 289.907 176.255 289.914L219.845 290.233C220.748 290.239 221.485 289.513 221.492 288.61L221.63 269.754C221.637 268.847 220.903 268.107 219.996 268.106L193.187 268.082C192.754 268.082 192.339 267.909 192.032 267.603L187.407 262.98C187.103 262.676 186.692 262.505 186.262 262.501L174.961 262.419C174.019 262.412 173.265 263.201 173.317 264.143Z" fill="#EBEBEB"/>
<path d="M221.679 265.262L174.051 264.915L173.843 293.375L221.471 293.723L221.679 265.262Z" fill="#F5F5F5"/>
<path d="M170.234 267.437L173.652 297.142C173.713 297.67 174.158 298.07 174.69 298.074L221.105 298.414C221.654 298.418 222.113 298 222.161 297.452L224.715 267.791C224.768 267.18 224.288 266.654 223.675 266.65L171.286 266.266C170.654 266.26 170.161 266.809 170.234 267.437Z" fill="#EBEBEB"/>
<path d="M65.9895 223.197C58.8131 212.22 59.8596 196.538 68.4304 186.613C71.0904 183.532 74.8088 180.854 78.8639 181.201C83.0163 181.556 86.3623 185.118 87.6258 189.09C88.8893 193.062 88.4511 197.364 87.7091 201.466C86.6696 207.208 84.9294 213.084 80.9464 217.348C76.9634 221.612 71.1107 225.994 65.9895 223.197Z" fill="#FF8A49"/>
<path d="M68.1522 276.03C65.4495 269.724 67.4095 261.739 72.7253 257.402C74.3752 256.056 76.5333 255.013 78.5913 255.56C80.6983 256.119 82.0997 258.258 82.3909 260.418C82.6821 262.579 82.0661 264.756 81.3122 266.802C80.2566 269.666 78.8272 272.535 76.3884 274.372C73.9496 276.208 70.5371 277.935 68.1522 276.03Z" fill="#FF8A49"/>
<path d="M52.6483 272.261C54.6216 262.53 49.4927 251.793 40.6839 247.211C37.9497 245.789 34.5841 244.947 31.8289 246.327C29.0072 247.74 27.652 251.183 27.8753 254.33C28.0993 257.477 29.6127 260.382 31.2836 263.058C33.623 266.807 36.493 270.452 40.4893 272.336C44.4856 274.221 49.8294 275.664 52.6483 272.261Z" fill="#FF8A49"/>
<path d="M53.8913 245.948C57.3269 234.861 51.5015 221.417 41.7918 215.056C38.7783 213.081 34.9626 211.707 31.5956 212.989C28.1481 214.302 26.1678 218.148 26.0586 221.835C25.9501 225.523 27.3697 229.078 29 232.388C31.282 237.022 34.1926 241.598 38.6201 244.258C43.0483 246.918 50.2142 249.575 53.8913 245.948Z" fill="#FF8A49"/>
<path d="M58.9947 300.142C58.9786 300.144 58.9401 299.959 58.8827 299.605C58.8225 299.201 58.7462 298.689 58.6524 298.059C58.6048 297.717 58.553 297.344 58.497 296.941C58.4179 296.532 58.3332 296.092 58.2429 295.622C58.0623 294.676 57.8761 293.596 57.566 292.423C57.4232 291.833 57.2741 291.216 57.1187 290.575C56.9325 289.939 56.7386 289.279 56.5384 288.596C56.1688 287.22 55.6221 285.797 55.1104 284.28C53.9743 281.286 52.5624 278.056 50.8306 274.79C49.0659 271.539 47.1535 268.577 45.2859 265.975C44.3045 264.71 43.4204 263.467 42.4782 262.398C42.0197 261.854 41.5766 261.328 41.1503 260.821C40.7016 260.337 40.2704 259.872 39.8574 259.427C39.0517 258.52 38.2544 257.768 37.5656 257.094C37.2247 256.759 36.9048 256.445 36.6073 256.154C36.3021 255.884 36.02 255.635 35.7617 255.406C35.2885 254.979 34.9035 254.632 34.6004 254.359C34.3379 254.116 34.2049 253.982 34.2154 253.969C34.2252 253.957 34.3785 254.066 34.6606 254.287C34.9791 254.543 35.3837 254.868 35.8814 255.269C36.1488 255.488 36.4407 255.728 36.7571 255.988C37.0637 256.272 37.3934 256.577 37.7455 256.903C38.4546 257.561 39.2722 258.301 40.0975 259.198C40.5196 259.639 40.9613 260.1 41.4198 260.579C41.8559 261.083 42.3081 261.606 42.7757 262.147C43.7368 263.212 44.6377 264.451 45.6345 265.718C47.5329 268.322 49.4684 271.297 51.2443 274.567C52.9873 277.853 54.3964 281.111 55.5171 284.131C56.0211 285.661 56.5566 287.097 56.9129 288.486C57.1054 289.175 57.2909 289.841 57.4701 290.483C57.6157 291.13 57.7557 291.753 57.8901 292.348C58.1806 293.532 58.3458 294.622 58.5019 295.577C58.5789 296.051 58.6517 296.494 58.7189 296.907C58.7602 297.313 58.7987 297.689 58.8344 298.034C58.8925 298.671 58.9401 299.187 58.9779 299.595C59.0045 299.953 59.0108 300.141 58.9947 300.142Z" fill="#263238"/>
<path d="M58.7458 302.136C58.7381 302.135 58.7381 302.06 58.7458 301.915C58.7584 301.742 58.7738 301.531 58.7934 301.272C58.8487 300.67 58.925 299.849 59.0209 298.809C59.0741 298.271 59.1322 297.678 59.1966 297.031C59.2456 296.38 59.2631 295.67 59.303 294.909C59.3597 293.385 59.5053 291.653 59.4521 289.734C59.4472 288.773 59.4423 287.769 59.4374 286.723C59.4269 285.676 59.3282 284.59 59.275 283.464C59.1994 281.208 58.8928 278.816 58.6212 276.296C57.9324 271.273 56.8572 265.793 55.2199 260.173C53.528 254.566 51.442 249.384 49.2811 244.798C48.1345 242.537 47.088 240.364 45.9211 238.431C45.352 237.458 44.8424 236.494 44.2803 235.61C43.714 234.73 43.1708 233.886 42.6514 233.078C41.6497 231.44 40.5836 230.068 39.7058 228.821C39.2578 228.205 38.856 227.619 38.4591 227.1C38.0531 226.593 37.6807 226.127 37.3433 225.705C36.6965 224.886 36.1848 224.238 35.8103 223.764C35.6528 223.558 35.5254 223.389 35.4204 223.251C35.3343 223.134 35.2937 223.071 35.2993 223.066C35.3049 223.06 35.3588 223.112 35.4568 223.22C35.5709 223.349 35.7109 223.508 35.8824 223.703C36.2744 224.164 36.8092 224.794 37.4861 225.59C37.8347 226.006 38.2183 226.463 38.6369 226.963C39.0443 227.474 39.458 228.054 39.9172 228.664C40.8174 229.899 41.9059 231.262 42.9293 232.894C43.4585 233.699 44.0129 234.542 44.5897 235.419C45.1616 236.3 45.681 237.264 46.2599 238.237C47.4457 240.169 48.5097 242.344 49.6717 244.609C51.8634 249.205 53.9718 254.407 55.6714 260.039C57.3164 265.684 58.3839 271.194 59.0517 276.241C59.3128 278.774 59.6061 281.177 59.6649 283.443C59.7097 284.574 59.8 285.664 59.8007 286.715C59.7951 287.765 59.7902 288.773 59.7853 289.737C59.8175 291.663 59.6481 293.399 59.5662 294.925C59.5137 295.688 59.4829 296.399 59.4206 297.051C59.3415 297.697 59.2694 298.29 59.2036 298.829C59.0706 299.865 58.9656 300.685 58.8886 301.286C58.8508 301.543 58.82 301.752 58.7948 301.923C58.7696 302.064 58.7535 302.137 58.7458 302.136Z" fill="#263238"/>
<path d="M77.4215 194.453C77.4285 194.457 77.397 194.527 77.3298 194.658C77.2472 194.813 77.1457 195.002 77.0204 195.234C76.7215 195.768 76.3113 196.499 75.794 197.424C75.5308 197.901 75.2144 198.417 74.9099 199.006C74.6138 199.602 74.2932 200.246 73.9495 200.936C73.603 201.63 73.2334 202.369 72.8428 203.153C72.469 203.946 72.1134 204.803 71.7172 205.692C71.3329 206.586 70.901 207.51 70.5041 208.496C70.1219 209.488 69.7243 210.519 69.3127 211.587C69.1076 212.121 68.8983 212.664 68.6862 213.216C68.4965 213.777 68.304 214.346 68.1087 214.923C67.7195 216.079 67.3184 217.268 66.9075 218.487C65.3864 223.406 63.9451 228.883 62.7278 234.7C61.5497 240.527 60.7223 246.132 60.1119 251.246C59.5883 256.369 59.2019 260.995 59.0962 264.89C58.9975 266.836 58.9772 268.598 58.9709 270.145C58.9457 271.693 58.9401 273.027 58.9765 274.116C58.9912 275.176 59.0031 276.014 59.0115 276.626C59.0101 276.89 59.0094 277.105 59.0087 277.28C59.0052 277.428 58.9996 277.503 58.9919 277.503C58.9835 277.503 58.9737 277.428 58.9611 277.282C58.9492 277.108 58.9352 276.893 58.917 276.63C58.8869 276.018 58.8456 275.181 58.7938 274.121C58.7294 273.031 58.7084 271.696 58.7084 270.145C58.6895 268.595 58.6867 266.83 58.7644 264.879C58.8274 260.974 59.1809 256.336 59.6821 251.199C60.2701 246.07 61.0863 240.448 62.2679 234.605C63.488 228.773 64.9468 223.282 66.4952 218.355C66.9138 217.134 67.3219 215.944 67.7188 214.786C67.9183 214.208 68.115 213.639 68.3089 213.077C68.5259 212.525 68.7394 211.982 68.9487 211.447C69.3701 210.379 69.7775 209.348 70.1688 208.356C70.5762 207.372 71.0186 206.448 71.4134 205.556C71.8201 204.668 72.1869 203.813 72.5726 203.023C72.9765 202.243 73.3573 201.507 73.715 200.817C74.0713 200.131 74.4045 199.491 74.7118 198.899C75.0289 198.315 75.3579 197.803 75.6337 197.333C76.1846 196.426 76.6207 195.708 76.9385 195.185C77.0792 194.962 77.194 194.78 77.2878 194.632C77.3697 194.51 77.4152 194.449 77.4215 194.453Z" fill="#263238"/>
<path d="M74.9837 261.809C75.0103 261.828 74.7373 262.304 74.2207 263.149C73.6957 263.988 72.9754 265.227 72.1305 266.779C71.2786 268.328 70.3518 270.22 69.4117 272.358C68.4947 274.505 67.5784 276.906 66.7741 279.479C65.9866 282.058 65.3895 284.557 64.9352 286.848C64.5054 289.144 64.2037 291.229 64.0329 292.988C63.8544 294.746 63.7508 296.176 63.7109 297.164C63.6612 298.153 63.6178 298.701 63.5856 298.701C63.5534 298.701 63.5345 298.153 63.5282 297.159C63.5121 296.167 63.5653 294.729 63.7025 292.957C63.8313 291.185 64.1001 289.083 64.5096 286.768C64.9436 284.457 65.5323 281.936 66.3254 279.339C67.1353 276.749 68.0712 274.335 69.0162 272.183C69.9836 270.041 70.9475 268.153 71.8407 266.618C72.7269 265.078 73.4934 263.86 74.0674 263.05C74.6316 262.233 74.9564 261.791 74.9837 261.809Z" fill="#263238"/>
<path d="M44.9043 295.199H76.4281L72.6138 327.396H48.8306L44.9043 295.199Z" fill="#455A64"/>
<path d="M46.0527 323.921L48.7302 327.396H72.6114L75.3652 324.032L46.0527 323.921Z" fill="#263238"/>
<path d="M75.1974 304.671C75.1974 304.801 68.6559 304.906 60.5877 304.906C52.5174 304.906 45.9766 304.801 45.9766 304.671C45.9766 304.541 52.5167 304.436 60.5877 304.436C68.6559 304.436 75.1974 304.541 75.1974 304.671Z" fill="white"/>
<path d="M75.1974 306.814C75.1974 306.944 68.6559 307.049 60.5877 307.049C52.5174 307.049 45.9766 306.945 45.9766 306.814C45.9766 306.684 52.5167 306.579 60.5877 306.579C68.6559 306.579 75.1974 306.685 75.1974 306.814Z" fill="white"/>
<path d="M74.8048 308.888C74.8048 309.017 68.4922 309.123 60.7068 309.123C52.9186 309.123 46.6074 309.018 46.6074 308.888C46.6074 308.758 52.9186 308.653 60.7068 308.653C68.4922 308.653 74.8048 308.758 74.8048 308.888Z" fill="white"/>
<path d="M323.775 327.435C323.775 327.535 255.503 327.617 171.305 327.617C87.0773 327.617 18.8203 327.535 18.8203 327.435C18.8203 327.334 87.0773 327.253 171.305 327.253C255.503 327.253 323.775 327.334 323.775 327.435Z" fill="#263238"/>
<path d="M311.261 104.897C308.907 101.917 308.854 96.4792 308.933 95.0498C309.115 91.75 301.768 72.5042 283.553 80.4534L283.551 80.4408C277.023 80.4408 276.916 86.8836 275.675 88.1793C274.434 89.475 273.057 90.8232 272.732 92.5879C272.157 95.7155 275.124 98.7528 274.371 101.842C274.088 103.001 273.313 103.982 272.766 105.041L272.763 105.039C272.18 105.989 271.716 107.529 271.966 108.384C272.217 109.239 272.761 109.971 273.21 110.741C273.659 111.511 274.027 112.396 273.869 113.273C273.583 114.86 271.744 115.738 271.253 117.273C270.771 118.778 271.718 120.328 272.575 121.656C273.433 122.984 274.264 124.649 273.571 126.07C273.203 126.826 272.475 127.327 271.882 127.924C270.086 129.733 269.55 132.677 270.594 135.002C274.088 134.314 277.582 133.627 281.076 132.939C281.534 127.945 281.992 122.95 282.449 117.957C285.513 118.717 288.868 116.758 290.319 116.39L292.105 115.425C296.009 116.111 300.224 115.866 303.65 113.871C307.075 111.876 312.15 114.426 311.485 110.517C311.163 108.621 312.454 106.407 311.261 104.897Z" fill="#263238"/>
<path d="M299.309 86.6935L285.055 82.4732C280.463 81.7998 277.168 87.3543 276.69 91.9708C276.158 97.1004 275.712 103.383 276.167 107.245C277.081 115.009 282.955 116.229 282.955 116.229C282.955 116.219 281.926 127.227 281.83 129.979L299.408 120.982L301.627 89.5439C301.711 88.1362 300.704 86.8986 299.309 86.6935Z" fill="#FFD3C1"/>
<path d="M277.585 98.2996C277.545 98.8211 277.954 99.2852 278.499 99.3363C279.042 99.3874 279.515 99.0073 279.555 98.4851C279.594 97.9636 279.186 97.4988 278.642 97.4477C278.098 97.3966 277.624 97.7774 277.585 98.2996Z" fill="#263238"/>
<path d="M277.04 96.0338C277.136 96.1633 277.982 95.9799 279.03 96.2914C280.081 96.5924 280.747 97.2168 280.885 97.1559C280.952 97.1307 280.873 96.9256 280.586 96.647C280.303 96.3712 279.785 96.031 279.131 95.8392C278.476 95.6488 277.88 95.6628 277.516 95.751C277.145 95.8378 276.991 95.975 277.04 96.0338Z" fill="#263238"/>
<path d="M287.45 99.0958C287.41 99.618 287.82 100.081 288.363 100.132C288.907 100.184 289.38 99.8035 289.419 99.2813C289.459 98.7598 289.049 98.2949 288.506 98.2438C287.963 98.1927 287.49 98.5743 287.45 99.0958Z" fill="#263238"/>
<path d="M287.634 97.4252C287.788 97.498 288.555 96.9814 289.745 96.8141C290.933 96.6363 291.88 96.9037 291.992 96.7924C292.048 96.742 291.879 96.595 291.464 96.4718C291.057 96.3486 290.386 96.2674 289.645 96.3752C288.903 96.483 288.311 96.7469 287.985 96.9765C287.652 97.2082 287.559 97.393 287.634 97.4252Z" fill="#263238"/>
<path d="M283.937 104.381C283.945 104.321 283.288 104.18 282.22 104C281.949 103.961 281.694 103.896 281.656 103.709C281.6 103.51 281.725 103.221 281.87 102.911C282.152 102.263 282.448 101.584 282.758 100.873C283.993 97.9706 284.899 95.5794 284.782 95.5304C284.665 95.4821 283.568 97.7949 282.332 100.697C282.034 101.413 281.749 102.096 281.478 102.749C281.362 103.054 281.171 103.397 281.293 103.81C281.359 104.016 281.552 104.171 281.725 104.226C281.897 104.286 282.049 104.295 282.184 104.308C283.261 104.409 283.931 104.441 283.937 104.381Z" fill="#263238"/>
<path d="M282.956 116.215C282.956 116.215 288.027 116.865 293.293 113.981C293.206 113.997 290.131 119.352 282.768 118.262L282.956 116.215Z" fill="#F4AF9B"/>
<path d="M284.306 106.956C284.709 106.465 285.392 106.214 286.055 106.313C286.515 106.381 286.973 106.623 287.239 107.01C287.504 107.397 287.542 107.934 287.271 108.282C286.968 108.675 286.364 108.745 285.862 108.579C285.359 108.414 284.936 108.062 284.534 107.712C284.422 107.615 284.309 107.515 284.243 107.385C284.176 107.256 284.167 107.09 284.26 106.989" fill="#F4AF9B"/>
<path d="M287.055 105.245C286.882 105.228 286.833 106.384 285.811 107.164C284.79 107.947 283.564 107.767 283.548 107.929C283.529 108.001 283.813 108.164 284.332 108.199C284.842 108.237 285.593 108.103 286.219 107.626C286.843 107.147 287.129 106.486 287.188 106.013C287.251 105.533 287.134 105.241 287.055 105.245Z" fill="#263238"/>
<path d="M287.78 93.6252C287.873 93.9185 288.942 93.8247 290.184 94.0256C291.432 94.2013 292.424 94.608 292.601 94.3546C292.68 94.2335 292.515 93.9542 292.119 93.6574C291.727 93.3613 291.093 93.0694 290.347 92.9553C289.6 92.8433 288.909 92.9343 288.446 93.1016C287.98 93.2682 287.74 93.4859 287.78 93.6252Z" fill="#263238"/>
<path d="M278.194 92.9504C278.371 93.1996 279.115 92.9784 279.998 93.0022C280.881 92.9952 281.62 93.2304 281.802 92.9847C281.883 92.865 281.775 92.618 281.458 92.3758C281.146 92.1349 280.615 91.9263 280.008 91.9207C279.401 91.9158 278.867 92.1132 278.551 92.3491C278.228 92.5843 278.116 92.8293 278.194 92.9504Z" fill="#263238"/>
<path d="M283.38 81.4592C289.109 82.3685 294.73 83.9624 300.084 86.1982C301.325 86.7162 302.626 87.3322 303.328 88.4795C304.071 89.694 303.975 91.2228 303.855 92.641C303.268 99.5563 302.68 106.472 302.093 113.388L301.349 113.349C299.211 113.696 299.063 112.609 297.534 111.075C296.004 109.54 295.272 107.252 295.626 105.115C295.938 103.229 297.033 101.34 296.444 99.5213C295.665 97.1168 292.37 96.2607 291.578 93.8604C291.117 92.466 291.638 90.8742 291.109 89.5043C290.611 88.2163 289.305 87.4351 288.026 86.9164C286.745 86.3977 285.366 86.0204 284.309 85.1321C283.251 84.2445 282.632 82.6198 283.38 81.4592Z" fill="#263238"/>
<path d="M236.588 121.322H180.088C177.787 121.322 175.922 119.456 175.922 117.155V71.7429C175.922 69.442 177.787 67.5765 180.088 67.5765H236.588C238.89 67.5765 240.755 69.442 240.755 71.7429V117.155C240.755 119.456 238.89 121.322 236.588 121.322Z" fill="#263238"/>
<path d="M208.336 102.748C213.496 102.748 217.679 98.5645 217.679 93.4042C217.679 88.2438 213.496 84.0605 208.336 84.0605C203.175 84.0605 198.992 88.2438 198.992 93.4042C198.992 98.5645 203.175 102.748 208.336 102.748Z" fill="#FF8A49"/>
<path d="M206.084 96.1377V90.6252C206.084 90.3564 206.373 90.1877 206.608 90.3193L211.535 93.0969C211.774 93.2313 211.773 93.5764 211.533 93.7094L206.605 96.445C206.372 96.5745 206.084 96.4058 206.084 96.1377Z" fill="white"/>
<path d="M266.974 302.078L268.59 317.653C268.59 317.653 253.302 324.527 253.32 327.434L283.632 325.385L282.109 301.013L266.974 302.078Z" fill="#455A64"/>
<g opacity="0.3">
<path d="M266.974 302.078L268.59 317.653C268.59 317.653 253.302 324.527 253.32 327.434L283.632 325.385L282.109 301.013L266.974 302.078Z" fill="black"/>
</g>
<g opacity="0.6">
<path d="M277.87 315.705C278.468 315.826 278.918 316.459 278.822 317.061C278.726 317.663 278.087 318.125 277.488 318.015C276.888 317.905 276.325 317.163 276.487 316.575C276.65 315.988 277.43 315.486 277.986 315.736" fill="white"/>
</g>
<g opacity="0.6">
<path d="M283.636 325.388L283.387 322.938L254.418 325.819C254.418 325.819 253.108 326.497 253.325 327.437L283.636 325.388Z" fill="white"/>
</g>
<path d="M268.089 317.532C268.104 317.68 268.849 317.697 269.609 318.124C270.38 318.531 270.799 319.146 270.931 319.079C271.066 319.041 270.785 318.171 269.855 317.67C268.931 317.161 268.048 317.399 268.089 317.532Z" fill="#263238"/>
<path d="M264.997 319.063C264.973 319.209 265.631 319.417 266.176 320.009C266.738 320.586 266.911 321.253 267.058 321.237C267.198 321.251 267.242 320.378 266.55 319.655C265.865 318.924 264.991 318.922 264.997 319.063Z" fill="#263238"/>
<path d="M263.447 322.987C263.584 323.01 263.74 322.257 263.305 321.472C262.876 320.684 262.156 320.411 262.102 320.539C262.026 320.666 262.505 321.071 262.852 321.72C263.215 322.362 263.299 322.982 263.447 322.987Z" fill="#263238"/>
<path d="M268.122 313.938C268.193 314.069 268.858 313.818 269.699 313.819C270.54 313.802 271.209 314.039 271.278 313.906C271.357 313.794 270.684 313.288 269.694 313.302C268.704 313.309 268.041 313.827 268.122 313.938Z" fill="#263238"/>
<path d="M267.848 310.799C267.851 310.86 268.441 310.913 269.365 310.689C269.825 310.577 270.363 310.388 270.921 310.093C271.199 309.946 271.482 309.772 271.761 309.571C271.895 309.472 272.055 309.371 272.195 309.184C272.349 309.018 272.416 308.619 272.21 308.392C272.039 308.169 271.758 308.087 271.539 308.097C271.315 308.105 271.137 308.162 270.975 308.215C270.643 308.319 270.333 308.453 270.053 308.603C269.491 308.905 269.043 309.27 268.715 309.616C268.056 310.315 267.853 310.884 267.906 310.909C267.977 310.953 268.287 310.467 268.966 309.881C269.305 309.59 269.743 309.282 270.269 309.027C270.533 308.901 270.819 308.788 271.122 308.699C271.438 308.594 271.71 308.573 271.803 308.71C271.836 308.762 271.842 308.783 271.781 308.882C271.717 308.973 271.593 309.067 271.462 309.165C271.206 309.359 270.946 309.529 270.69 309.678C270.179 309.976 269.686 310.19 269.261 310.339C268.408 310.64 267.84 310.719 267.848 310.799Z" fill="#263238"/>
<path d="M268.046 310.994C268.1 311.014 268.357 310.464 268.347 309.501C268.34 309.024 268.252 308.451 268.028 307.854C267.914 307.555 267.766 307.252 267.579 306.958C267.381 306.671 267.137 306.285 266.559 306.258C266.259 306.267 266.025 306.518 265.953 306.724C265.867 306.935 265.859 307.113 265.835 307.291C265.803 307.648 265.833 307.995 265.903 308.313C266.042 308.952 266.343 309.471 266.658 309.837C267.303 310.583 267.933 310.718 267.941 310.667C267.986 310.589 267.451 310.339 266.946 309.614C266.698 309.257 266.466 308.78 266.369 308.22C266.32 307.942 266.305 307.644 266.338 307.341C266.364 307.016 266.467 306.748 266.59 306.772C266.74 306.759 267.013 306.985 267.155 307.233C267.329 307.494 267.471 307.764 267.587 308.031C267.813 308.565 267.932 309.084 267.983 309.525C268.085 310.413 267.964 310.977 268.046 310.994Z" fill="#263238"/>
<path d="M264.348 188.09C264.348 188.09 250.919 249.045 250.507 254.488C250.096 259.93 267.148 306.921 267.148 306.921L281.823 304.151C281.823 304.151 280.891 234.758 280.415 233.397C279.939 232.037 284.165 197.933 284.165 197.933L264.348 188.09Z" fill="#263238"/>
<path d="M273.722 302.8L273.884 318.457C273.884 318.457 258.023 323.881 257.771 326.777L288.138 327.093L288.891 303.145L273.722 302.8Z" fill="#455A64"/>
<g opacity="0.6">
<path d="M283.309 317.391C283.893 317.567 284.282 318.238 284.13 318.828C283.979 319.418 283.299 319.82 282.713 319.655C282.126 319.49 281.634 318.698 281.851 318.128C282.068 317.558 282.891 317.13 283.421 317.432" fill="white"/>
</g>
<g opacity="0.6">
<path d="M288.137 327.101L288.12 325.097L259.009 325.274C259.009 325.274 257.641 325.828 257.77 326.784L288.137 327.101Z" fill="white"/>
</g>
<path d="M273.399 318.299C273.401 318.447 274.14 318.533 274.858 319.029C275.588 319.505 275.948 320.157 276.086 320.103C276.223 320.077 276.025 319.185 275.145 318.6C274.272 318.008 273.37 318.162 273.399 318.299Z" fill="#263238"/>
<path d="M270.179 319.531C270.142 319.674 270.778 319.943 271.265 320.583C271.771 321.208 271.881 321.89 272.029 321.887C272.167 321.914 272.293 321.048 271.671 320.264C271.057 319.475 270.186 319.391 270.179 319.531Z" fill="#263238"/>
<path d="M268.282 323.297C268.415 323.332 268.641 322.597 268.281 321.775C267.927 320.95 267.236 320.612 267.169 320.734C267.083 320.854 267.521 321.301 267.807 321.981C268.108 322.653 268.135 323.279 268.282 323.297Z" fill="#263238"/>
<path d="M273.759 314.721C273.817 314.858 274.503 314.671 275.34 314.749C276.179 314.81 276.823 315.108 276.904 314.983C276.992 314.878 276.37 314.313 275.383 314.234C274.397 314.149 273.689 314.603 273.759 314.721Z" fill="#263238"/>
<g opacity="0.3">
<path d="M273.76 305.904L273.785 308.694L288.715 308.939L288.799 306.428L273.76 305.904Z" fill="black"/>
</g>
<path d="M273.781 311.57C273.778 311.632 274.362 311.738 275.302 311.601C275.771 311.532 276.324 311.394 276.906 311.153C277.197 311.032 277.495 310.886 277.792 310.712C277.934 310.626 278.102 310.539 278.26 310.366C278.429 310.216 278.531 309.825 278.348 309.579C278.198 309.342 277.926 309.234 277.707 309.224C277.483 309.211 277.301 309.251 277.134 309.288C276.794 309.362 276.474 309.465 276.18 309.589C275.593 309.838 275.113 310.159 274.754 310.473C274.033 311.108 273.778 311.656 273.828 311.686C273.894 311.736 274.249 311.28 274.98 310.76C275.344 310.501 275.808 310.236 276.356 310.03C276.63 309.929 276.925 309.843 277.236 309.783C277.56 309.707 277.834 309.712 277.913 309.857C277.941 309.912 277.944 309.934 277.875 310.026C277.803 310.111 277.67 310.193 277.53 310.279C277.257 310.447 276.983 310.592 276.715 310.718C276.179 310.967 275.667 311.133 275.23 311.243C274.355 311.464 273.781 311.49 273.781 311.57Z" fill="#263238"/>
<path d="M273.966 311.774C274.017 311.798 274.325 311.275 274.404 310.316C274.442 309.84 274.407 309.262 274.239 308.645C274.154 308.338 274.035 308.022 273.875 307.712C273.705 307.407 273.498 307 272.925 306.919C272.624 306.9 272.369 307.129 272.279 307.327C272.173 307.53 272.148 307.706 272.108 307.881C272.043 308.235 272.041 308.582 272.081 308.905C272.16 309.554 272.411 310.099 272.691 310.494C273.264 311.296 273.878 311.489 273.892 311.439C273.944 311.365 273.434 311.066 272.999 310.298C272.785 309.92 272.598 309.423 272.554 308.857C272.531 308.575 272.544 308.277 272.605 307.978C272.661 307.656 272.788 307.399 272.909 307.436C273.06 307.437 273.31 307.687 273.428 307.948C273.577 308.224 273.694 308.505 273.784 308.782C273.96 309.336 274.029 309.864 274.039 310.307C274.058 311.198 273.885 311.75 273.966 311.774Z" fill="#263238"/>
<path d="M298.472 187.151L264.348 188.091L269.246 248.806L272.283 307.332L289.984 307.95C290.888 296.653 290.954 256.733 290.954 256.733L294.527 232.621C295.357 226.12 297.966 219.29 299.222 213.455C299.961 210.027 301.04 205.581 301.268 204.13C301.945 199.836 298.472 187.151 298.472 187.151Z" fill="#263238"/>
<path d="M266.331 202.063C266.337 202.063 266.338 202.156 266.335 202.336C266.329 202.532 266.322 202.796 266.313 203.134C266.285 203.853 266.245 204.883 266.194 206.2C266.135 207.53 266.068 209.159 266.011 211.051C265.951 212.942 265.861 215.095 265.817 217.476C265.687 222.237 265.617 227.91 265.64 234.206C265.687 240.503 265.839 247.425 266.192 254.683C266.566 261.943 267.115 268.846 267.739 275.113C268.083 278.242 268.387 281.219 268.763 283.994C268.945 285.382 269.099 286.726 269.285 288.013C269.473 289.299 269.653 290.533 269.826 291.712C270.15 294.071 270.531 296.192 270.832 298.059C271.128 299.928 271.42 301.531 271.667 302.84C271.901 304.137 272.083 305.15 272.211 305.859C272.267 306.192 272.312 306.453 272.344 306.646C272.372 306.824 272.384 306.916 272.378 306.916C272.372 306.918 272.349 306.828 272.309 306.653C272.268 306.461 272.213 306.203 272.142 305.873C271.999 305.166 271.795 304.157 271.533 302.866C271.266 301.56 270.954 299.96 270.641 298.093C270.321 296.227 269.922 294.108 269.582 291.749C269.402 290.571 269.215 289.336 269.019 288.051C268.826 286.764 268.665 285.421 268.477 284.032C268.087 281.257 267.773 278.278 267.42 275.146C266.778 268.876 266.219 261.967 265.844 254.701C265.491 247.437 265.349 240.51 265.319 234.208C265.314 227.907 265.409 222.233 265.571 217.47C265.63 215.088 265.739 212.934 265.816 211.043C265.891 209.152 265.979 207.523 266.058 206.193C266.138 204.878 266.199 203.849 266.243 203.13C266.266 202.794 266.285 202.53 266.299 202.334C266.315 202.154 266.325 202.063 266.331 202.063Z" fill="#455A64"/>
<path d="M246.909 120.861L238.17 111.531L231.281 116.356L238.17 126.544L246.909 120.861Z" fill="#FFD3C1"/>
<path d="M302.16 124.31L301.733 118.395L282.002 118.11L281.833 125.536C281.833 125.536 272.146 136.012 268.629 147.766C262.717 167.52 260.576 192.665 260.576 192.665H300.961C300.541 185.708 297.668 170.136 297.668 170.136L306.645 143.361C308.878 133.739 302.16 124.31 302.16 124.31Z" fill="#FF8A49"/>
<path d="M253.297 151.041C253.297 151.041 253.409 151.149 253.632 151.344C253.848 151.548 254.193 151.817 254.656 152.138C255.582 152.766 257.074 153.542 259.081 153.836C260.076 153.992 261.204 153.988 262.371 153.803C263.544 153.668 264.797 153.508 266.115 153.333C268.749 152.977 271.638 152.533 274.662 152.023C280.684 150.966 286.132 150.01 290.135 149.307C292.082 148.989 293.675 148.729 294.833 148.54C295.355 148.457 295.778 148.389 296.111 148.336C296.403 148.288 296.555 148.255 296.555 148.255C296.555 148.255 296.4 148.268 296.107 148.306C295.774 148.352 295.349 148.41 294.824 148.482C293.711 148.639 292.103 148.881 290.118 149.202C286.147 149.833 280.685 150.844 274.638 151.873C271.614 152.382 268.728 152.83 266.096 153.194C264.78 153.373 263.529 153.538 262.354 153.678C261.185 153.869 260.09 153.878 259.096 153.731C257.108 153.453 255.619 152.699 254.689 152.09C254.224 151.777 253.874 151.517 253.652 151.321C253.423 151.134 253.297 151.041 253.297 151.041Z" fill="#263238"/>
<path d="M303.402 141.496C303.407 141.497 303.421 141.443 303.444 141.338C303.474 141.195 303.505 141.044 303.538 140.882C303.615 140.485 303.719 139.908 303.818 139.192C304.006 137.768 304.211 135.725 303.673 133.554C303.122 131.382 301.762 129.725 300.534 128.948C299.922 128.552 299.365 128.335 298.971 128.239C298.577 128.139 298.352 128.125 298.352 128.125C298.332 128.173 299.276 128.227 300.475 129.037C301.666 129.822 302.985 131.458 303.526 133.592C304.056 135.728 303.873 137.754 303.712 139.178C303.626 139.894 303.539 140.472 303.48 140.872C303.456 141.035 303.435 141.187 303.414 141.332C303.401 141.439 303.397 141.495 303.402 141.496Z" fill="#263238"/>
<path d="M261.396 146.319C261.406 146.318 261.395 146.16 261.366 145.877C261.331 145.502 261.294 145.106 261.254 144.676C261.17 143.663 261.1 142.258 261.137 140.706C261.177 139.154 261.318 137.754 261.453 136.746C261.515 136.319 261.571 135.925 261.625 135.553C261.668 135.271 261.687 135.114 261.676 135.112C261.666 135.11 261.627 135.264 261.567 135.542C261.504 135.821 261.428 136.227 261.347 136.731C261.184 137.738 261.025 139.144 260.985 140.703C260.948 142.261 261.035 143.672 261.147 144.687C261.203 145.194 261.259 145.603 261.308 145.885C261.354 146.167 261.385 146.321 261.396 146.319Z" fill="#263238"/>
<path d="M282.063 125.429C282.474 124.032 283.355 122.828 284.221 121.657C285.635 119.744 287.162 117.746 289.362 116.844C290.862 116.228 294.734 116.569 295.766 115.319C298.985 111.417 294.269 108.995 295.982 103.628C297.859 97.7519 296.889 98.6521 297.033 94.03L304.184 90.9374C305.31 91.7781 308.435 94.8126 308.089 96.1748C307.744 97.5363 307.846 99.0539 308.363 100.674C309.463 104.12 313.257 106.153 315.052 109.293C316.89 112.511 314.819 116.776 314.769 120.482C314.72 124.188 316.118 128.643 319.735 129.45C318.386 132.167 316.121 134.419 313.395 135.751C312.639 134.722 311.883 133.691 311.126 132.662C311.576 135.457 309.674 138.437 306.948 139.206C306.188 135.954 305.383 132.604 303.415 129.906C301.446 127.209 297.991 125.305 294.765 126.169C292.606 126.747 290.937 128.412 289.009 129.542C287.081 130.671 284.348 131.151 282.805 129.535C281.8 128.48 281.653 126.826 282.063 125.429Z" fill="#263238"/>
<g opacity="0.3">
<path d="M268.631 152.867C277.937 151.169 290.336 149.139 299.642 147.441C299.989 147.377 300.359 147.316 300.687 147.447C301.304 147.692 301.484 148.546 301.206 149.149C300.928 149.752 300.337 150.144 299.748 150.452C296.695 152.048 293.113 152.177 289.669 152.271C283.788 152.431 274.513 152.707 268.631 152.867Z" fill="black"/>
</g>
<path d="M261.838 153.795C264.732 153.855 298.052 147.765 298.052 147.765L261.838 153.795Z" fill="#FF8A49"/>
<path d="M297.479 126.964C299.921 127.265 301.514 127.69 304.364 130.741C304.67 131.068 304.954 131.474 305.217 131.938C308.393 137.539 306.093 145.272 300.007 147.374L294.113 148.587L261.832 153.798C261.832 153.798 254.954 155.344 249.049 146.177C246.882 142.813 231.967 120.565 231.967 120.565L241.767 114.005L261.522 135.141L297.479 126.964Z" fill="#FF8A49"/>
<path d="M253.295 151.041C253.295 151.041 253.407 151.149 253.63 151.343C253.846 151.548 254.191 151.816 254.654 152.138C255.58 152.766 257.072 153.542 259.079 153.836C260.074 153.992 261.202 153.988 262.369 153.802C263.542 153.668 264.795 153.508 266.113 153.333C268.747 152.976 271.636 152.533 274.66 152.022C280.682 150.966 286.131 150.01 290.133 149.307C292.081 148.989 293.673 148.729 294.831 148.54C295.353 148.456 295.777 148.389 296.109 148.336C296.401 148.288 296.554 148.255 296.554 148.255C296.554 148.255 296.398 148.267 296.105 148.306C295.772 148.351 295.347 148.41 294.822 148.482C293.709 148.638 292.101 148.881 290.116 149.201C286.145 149.833 280.683 150.843 274.636 151.872C271.613 152.382 268.726 152.83 266.094 153.194C264.778 153.373 263.527 153.538 262.352 153.678C261.183 153.869 260.088 153.877 259.094 153.73C257.106 153.453 255.618 152.698 254.687 152.089C254.222 151.777 253.872 151.517 253.651 151.321C253.421 151.134 253.295 151.041 253.295 151.041Z" fill="#263238"/>
<path d="M303.4 141.496C303.405 141.496 303.419 141.442 303.442 141.338C303.472 141.195 303.503 141.044 303.536 140.882C303.613 140.485 303.717 139.908 303.816 139.191C304.005 137.767 304.209 135.725 303.671 133.554C303.12 131.381 301.76 129.724 300.533 128.948C299.92 128.552 299.364 128.335 298.969 128.238C298.575 128.138 298.35 128.124 298.35 128.124C298.33 128.173 299.274 128.226 300.473 129.037C301.664 129.822 302.983 131.458 303.524 133.591C304.054 135.728 303.871 137.754 303.71 139.177C303.624 139.893 303.537 140.472 303.478 140.871C303.454 141.035 303.433 141.187 303.412 141.332C303.399 141.439 303.395 141.495 303.4 141.496Z" fill="#263238"/>
<path d="M261.39 146.319C261.4 146.318 261.389 146.16 261.36 145.877C261.325 145.502 261.288 145.106 261.248 144.676C261.164 143.663 261.094 142.258 261.132 140.706C261.171 139.154 261.312 137.754 261.447 136.746C261.509 136.319 261.566 135.925 261.619 135.553C261.662 135.271 261.681 135.114 261.671 135.112C261.66 135.11 261.622 135.264 261.561 135.542C261.498 135.821 261.422 136.227 261.341 136.731C261.178 137.738 261.02 139.144 260.98 140.703C260.942 142.261 261.029 143.672 261.141 144.687C261.197 145.194 261.253 145.603 261.302 145.885C261.349 146.167 261.379 146.321 261.39 146.319Z" fill="#263238"/>
<path d="M238.126 104.327C237.86 102.246 237.894 100.947 237.946 100.314C237.97 100.022 237.725 99.7865 237.433 99.8138C236.901 99.8628 236.118 100.163 235.634 101.385C235.339 102.131 235.426 102.901 235.433 103.648C235.445 104.893 235.433 105.875 235.433 105.875C235.433 105.875 229.217 98.4348 227.957 98.0988C227.275 97.9168 227.032 98.1212 226.784 98.5209C226.553 98.8912 227.012 99.7606 227.012 99.7606L230.517 104.775C230.517 104.775 225.219 98.5391 224.262 98.5573C223.28 98.5755 222.882 99.2825 223.487 100.412C223.938 101.256 228.566 106.742 228.566 106.742C228.566 106.742 223.615 101.963 222.633 102.003C221.646 102.043 221.813 103.086 222.331 103.521C222.849 103.956 226.513 108.213 226.513 108.213C226.513 108.213 222.936 105.194 222.214 105.431C221.473 105.674 221.804 106.469 222.185 107.116C222.567 107.763 231.537 116.738 231.537 116.738L239.315 112.831C239.521 111.738 239.482 110.617 239.197 109.542C238.842 108.21 238.367 106.218 238.126 104.327Z" fill="#FFD3C1"/>
<path d="M123.845 192.721C119.89 192.721 116.684 189.514 116.684 185.559V123.304C116.684 120.137 119.425 117.568 122.808 117.568H128.662C131.051 117.568 133.222 116.268 134.223 114.236L135.481 111.684C136.482 109.653 138.652 108.352 141.041 108.352H168.829C170.995 108.352 173 109.424 174.102 111.17L175.467 113.333C176.569 115.08 178.574 116.151 180.741 116.151H216.164C219.547 116.151 222.288 118.72 222.288 121.887V185.561C222.288 189.516 219.082 192.722 215.127 192.722H123.845V192.721Z" fill="#FF8A49"/>
<g opacity="0.3">
<path d="M123.845 192.721C119.89 192.721 116.684 189.514 116.684 185.559V123.304C116.684 120.137 119.425 117.568 122.808 117.568H128.662C131.051 117.568 133.222 116.268 134.223 114.236L135.481 111.684C136.482 109.653 138.652 108.352 141.041 108.352H168.829C170.995 108.352 173 109.424 174.102 111.17L175.467 113.333C176.569 115.08 178.574 116.151 180.741 116.151H216.164C219.547 116.151 222.288 118.72 222.288 121.887V185.561C222.288 189.516 219.082 192.722 215.127 192.722H123.845V192.721Z" fill="black"/>
</g>
<path d="M177.24 116.147L154.705 116.097L152.692 112.333C151.386 109.89 148.72 108.348 145.803 108.348H123.776C119.856 108.348 116.678 111.325 116.678 114.997V117.565V185.164C116.678 189.336 120.289 192.718 124.743 192.718H214.217C218.671 192.718 222.283 189.336 222.283 185.164V121.305C222.283 118.456 219.973 116.147 217.124 116.147H177.24Z" fill="#FF8A49"/>
<path d="M188.605 169.32H178.631C178.241 169.32 177.926 169.004 177.926 168.614C177.926 168.224 178.241 167.909 178.631 167.909H188.605C194.077 167.909 198.529 163.457 198.529 157.985C198.529 152.721 194.408 148.374 189.149 148.088C188.841 148.071 188.58 147.858 188.503 147.56C186.695 140.552 180.383 135.658 173.153 135.658C168.319 135.658 163.804 137.83 160.769 141.617C160.617 141.806 160.377 141.906 160.138 141.876C159.583 141.812 159.089 141.781 158.624 141.781C151.42 141.781 145.56 147.642 145.56 154.845C145.56 162.048 151.42 167.909 158.624 167.909H166.708C167.098 167.909 167.414 168.224 167.414 168.614C167.414 169.004 167.098 169.32 166.708 169.32H158.624C150.642 169.32 144.148 162.827 144.148 154.845C144.148 146.864 150.642 140.37 158.624 140.37C159.031 140.37 159.456 140.391 159.914 140.434C163.214 136.497 168.017 134.247 173.153 134.247C180.858 134.247 187.605 139.349 189.736 146.718C195.498 147.289 199.941 152.143 199.941 157.984C199.941 164.235 194.856 169.32 188.605 169.32Z" fill="white"/>
<path d="M172.477 175.686C172.087 175.686 171.771 175.371 171.771 174.981V156.782C171.771 156.392 172.087 156.076 172.477 156.076C172.867 156.076 173.183 156.392 173.183 156.782V174.981C173.183 175.371 172.867 175.686 172.477 175.686Z" fill="white"/>
<path d="M177.791 164.048C177.576 164.048 177.364 163.95 177.225 163.765L172.587 157.55C172.548 157.499 172.511 157.498 172.452 157.487C172.412 157.487 172.359 157.499 172.315 157.552L167.393 163.595C167.148 163.898 166.703 163.943 166.401 163.697C166.098 163.451 166.053 163.007 166.299 162.704L171.22 156.662C171.528 156.282 171.986 156.079 172.475 156.076C172.965 156.083 173.416 156.31 173.713 156.699L178.355 162.92C178.589 163.232 178.524 163.674 178.212 163.907C178.086 164.003 177.938 164.048 177.791 164.048Z" fill="white"/>
<path d="M117.796 212.255C117.796 211.526 117.964 210.871 118.3 210.292C118.643 209.712 119.105 209.262 119.684 208.94C120.271 208.611 120.911 208.446 121.605 208.446C122.399 208.446 123.103 208.643 123.719 209.036C124.341 209.422 124.792 209.973 125.071 210.689H123.601C123.408 210.295 123.139 210.002 122.796 209.809C122.453 209.616 122.056 209.519 121.605 209.519C121.111 209.519 120.671 209.63 120.285 209.852C119.899 210.073 119.595 210.392 119.373 210.807C119.158 211.222 119.051 211.704 119.051 212.255C119.051 212.806 119.158 213.289 119.373 213.704C119.595 214.119 119.899 214.441 120.285 214.669C120.671 214.891 121.111 215.002 121.605 215.002C122.056 215.002 122.453 214.906 122.796 214.712C123.139 214.519 123.408 214.226 123.601 213.833H125.071C124.792 214.548 124.341 215.099 123.719 215.485C123.103 215.871 122.399 216.064 121.605 216.064C120.904 216.064 120.264 215.903 119.684 215.582C119.105 215.252 118.643 214.798 118.3 214.219C117.964 213.639 117.796 212.985 117.796 212.255ZM129.561 209.991C130.011 209.991 130.412 210.088 130.762 210.281C131.12 210.474 131.399 210.76 131.599 211.139C131.807 211.518 131.91 211.976 131.91 212.513V216H130.698V212.695C130.698 212.166 130.566 211.762 130.301 211.483C130.036 211.197 129.675 211.053 129.217 211.053C128.759 211.053 128.395 211.197 128.123 211.483C127.858 211.762 127.726 212.166 127.726 212.695V216H126.502V208.06H127.726V210.774C127.933 210.524 128.194 210.331 128.509 210.195C128.831 210.059 129.181 209.991 129.561 209.991ZM136.035 216.097C135.477 216.097 134.973 215.971 134.522 215.721C134.072 215.463 133.717 215.106 133.46 214.648C133.202 214.183 133.074 213.647 133.074 213.039C133.074 212.438 133.206 211.905 133.471 211.44C133.735 210.975 134.097 210.617 134.554 210.367C135.012 210.116 135.524 209.991 136.089 209.991C136.654 209.991 137.165 210.116 137.623 210.367C138.081 210.617 138.442 210.975 138.707 211.44C138.972 211.905 139.104 212.438 139.104 213.039C139.104 213.639 138.968 214.172 138.696 214.637C138.424 215.102 138.052 215.463 137.58 215.721C137.115 215.971 136.6 216.097 136.035 216.097ZM136.035 215.034C136.35 215.034 136.643 214.959 136.915 214.809C137.194 214.659 137.419 214.433 137.591 214.133C137.763 213.833 137.849 213.468 137.849 213.039C137.849 212.609 137.766 212.248 137.602 211.955C137.437 211.654 137.219 211.429 136.947 211.279C136.675 211.129 136.382 211.053 136.067 211.053C135.753 211.053 135.459 211.129 135.188 211.279C134.923 211.429 134.712 211.654 134.554 211.955C134.397 212.248 134.318 212.609 134.318 213.039C134.318 213.675 134.479 214.169 134.801 214.519C135.13 214.863 135.542 215.034 136.035 215.034ZM142.878 216.097C142.32 216.097 141.815 215.971 141.365 215.721C140.914 215.463 140.56 215.106 140.302 214.648C140.045 214.183 139.916 213.647 139.916 213.039C139.916 212.438 140.049 211.905 140.313 211.44C140.578 210.975 140.939 210.617 141.397 210.367C141.855 210.116 142.366 209.991 142.931 209.991C143.496 209.991 144.008 210.116 144.466 210.367C144.924 210.617 145.285 210.975 145.549 211.44C145.814 211.905 145.946 212.438 145.946 213.039C145.946 213.639 145.811 214.172 145.539 214.637C145.267 215.102 144.895 215.463 144.423 215.721C143.958 215.971 143.443 216.097 142.878 216.097ZM142.878 215.034C143.192 215.034 143.486 214.959 143.758 214.809C144.037 214.659 144.262 214.433 144.434 214.133C144.605 213.833 144.691 213.468 144.691 213.039C144.691 212.609 144.609 212.248 144.444 211.955C144.28 211.654 144.062 211.429 143.79 211.279C143.518 211.129 143.225 211.053 142.91 211.053C142.595 211.053 142.302 211.129 142.03 211.279C141.765 211.429 141.554 211.654 141.397 211.955C141.24 212.248 141.161 212.609 141.161 213.039C141.161 213.675 141.322 214.169 141.644 214.519C141.973 214.863 142.384 215.034 142.878 215.034ZM149.302 216.097C148.837 216.097 148.418 216.014 148.046 215.85C147.681 215.678 147.392 215.449 147.177 215.163C146.963 214.87 146.848 214.544 146.834 214.187H148.1C148.121 214.437 148.239 214.648 148.454 214.82C148.676 214.984 148.951 215.066 149.28 215.066C149.624 215.066 149.888 215.002 150.074 214.873C150.267 214.737 150.364 214.566 150.364 214.358C150.364 214.137 150.257 213.972 150.042 213.865C149.835 213.757 149.502 213.639 149.044 213.511C148.601 213.389 148.239 213.271 147.96 213.157C147.681 213.042 147.438 212.867 147.231 212.631C147.031 212.395 146.93 212.084 146.93 211.697C146.93 211.383 147.023 211.096 147.209 210.839C147.395 210.574 147.66 210.367 148.003 210.217C148.354 210.066 148.754 209.991 149.205 209.991C149.878 209.991 150.418 210.163 150.825 210.506C151.24 210.842 151.462 211.304 151.491 211.89H150.267C150.246 211.626 150.139 211.415 149.945 211.257C149.752 211.1 149.491 211.021 149.162 211.021C148.84 211.021 148.594 211.082 148.422 211.204C148.25 211.325 148.164 211.486 148.164 211.687C148.164 211.844 148.222 211.976 148.336 212.084C148.45 212.191 148.59 212.277 148.754 212.341C148.919 212.398 149.162 212.473 149.484 212.566C149.913 212.681 150.264 212.799 150.536 212.92C150.815 213.035 151.054 213.207 151.255 213.436C151.455 213.664 151.559 213.968 151.566 214.348C151.566 214.684 151.473 214.984 151.287 215.249C151.101 215.514 150.836 215.721 150.493 215.871C150.157 216.021 149.76 216.097 149.302 216.097ZM158.306 212.899C158.306 213.121 158.292 213.321 158.263 213.5H153.746C153.782 213.972 153.957 214.351 154.272 214.637C154.586 214.923 154.973 215.066 155.43 215.066C156.089 215.066 156.554 214.791 156.825 214.24H158.145C157.966 214.784 157.641 215.231 157.169 215.582C156.704 215.925 156.124 216.097 155.43 216.097C154.865 216.097 154.357 215.971 153.907 215.721C153.463 215.463 153.113 215.106 152.855 214.648C152.605 214.183 152.48 213.647 152.48 213.039C152.48 212.43 152.601 211.898 152.845 211.44C153.095 210.975 153.442 210.617 153.885 210.367C154.336 210.116 154.851 209.991 155.43 209.991C155.988 209.991 156.486 210.113 156.922 210.356C157.358 210.599 157.698 210.943 157.941 211.386C158.185 211.822 158.306 212.327 158.306 212.899ZM157.029 212.513C157.022 212.062 156.861 211.701 156.546 211.429C156.232 211.157 155.842 211.021 155.377 211.021C154.955 211.021 154.594 211.157 154.293 211.429C153.993 211.694 153.814 212.055 153.757 212.513H157.029ZM166.686 208.543V209.541H163.52V211.74H165.988V212.738H163.52V216H162.297V208.543H166.686ZM168.442 209.304C168.22 209.304 168.034 209.229 167.884 209.079C167.734 208.929 167.658 208.743 167.658 208.521C167.658 208.299 167.734 208.113 167.884 207.963C168.034 207.813 168.22 207.738 168.442 207.738C168.656 207.738 168.839 207.813 168.989 207.963C169.139 208.113 169.214 208.299 169.214 208.521C169.214 208.743 169.139 208.929 168.989 209.079C168.839 209.229 168.656 209.304 168.442 209.304ZM169.043 210.088V216H167.819V210.088H169.043ZM171.872 208.06V216H170.649V208.06H171.872ZM178.896 212.899C178.896 213.121 178.882 213.321 178.854 213.5H174.336C174.372 213.972 174.547 214.351 174.862 214.637C175.177 214.923 175.563 215.066 176.021 215.066C176.679 215.066 177.144 214.791 177.416 214.24H178.736C178.557 214.784 178.231 215.231 177.759 215.582C177.294 215.925 176.715 216.097 176.021 216.097C175.456 216.097 174.948 215.971 174.497 215.721C174.054 215.463 173.703 215.106 173.446 214.648C173.195 214.183 173.07 213.647 173.07 213.039C173.07 212.43 173.192 211.898 173.435 211.44C173.685 210.975 174.032 210.617 174.476 210.367C174.926 210.116 175.441 209.991 176.021 209.991C176.579 209.991 177.076 210.113 177.512 210.356C177.949 210.599 178.288 210.943 178.532 211.386C178.775 211.822 178.896 212.327 178.896 212.899ZM177.62 212.513C177.612 212.062 177.452 211.701 177.137 211.429C176.822 211.157 176.432 211.021 175.967 211.021C175.545 211.021 175.184 211.157 174.883 211.429C174.583 211.694 174.404 212.055 174.347 212.513H177.62ZM184.315 211.086V214.358C184.315 214.58 184.365 214.741 184.465 214.841C184.572 214.934 184.751 214.981 185.001 214.981H185.752V216H184.787C184.236 216 183.814 215.871 183.521 215.614C183.227 215.356 183.081 214.938 183.081 214.358V211.086H182.383V210.088H183.081V208.618H184.315V210.088H185.752V211.086H184.315ZM189.444 216.097C188.886 216.097 188.382 215.971 187.931 215.721C187.481 215.463 187.127 215.106 186.869 214.648C186.612 214.183 186.483 213.647 186.483 213.039C186.483 212.438 186.615 211.905 186.88 211.44C187.145 210.975 187.506 210.617 187.964 210.367C188.421 210.116 188.933 209.991 189.498 209.991C190.063 209.991 190.575 210.116 191.032 210.367C191.49 210.617 191.851 210.975 192.116 211.44C192.381 211.905 192.513 212.438 192.513 213.039C192.513 213.639 192.377 214.172 192.105 214.637C191.834 215.102 191.462 215.463 190.989 215.721C190.525 215.971 190.009 216.097 189.444 216.097ZM189.444 215.034C189.759 215.034 190.052 214.959 190.324 214.809C190.603 214.659 190.829 214.433 191 214.133C191.172 213.833 191.258 213.468 191.258 213.039C191.258 212.609 191.175 212.248 191.011 211.955C190.846 211.654 190.628 211.429 190.356 211.279C190.085 211.129 189.791 211.053 189.477 211.053C189.162 211.053 188.869 211.129 188.597 211.279C188.332 211.429 188.121 211.654 187.964 211.955C187.806 212.248 187.728 212.609 187.728 213.039C187.728 213.675 187.889 214.169 188.21 214.519C188.539 214.863 188.951 215.034 189.444 215.034ZM197.722 208.543V213.296C197.722 213.861 197.869 214.287 198.162 214.573C198.463 214.859 198.877 215.002 199.407 215.002C199.943 215.002 200.358 214.859 200.651 214.573C200.952 214.287 201.102 213.861 201.102 213.296V208.543H202.325V213.275C202.325 213.883 202.193 214.398 201.928 214.82C201.664 215.242 201.31 215.556 200.866 215.764C200.423 215.971 199.933 216.075 199.396 216.075C198.86 216.075 198.37 215.971 197.926 215.764C197.49 215.556 197.143 215.242 196.885 214.82C196.628 214.398 196.499 213.883 196.499 213.275V208.543H197.722ZM205.141 210.957C205.349 210.685 205.631 210.456 205.989 210.27C206.347 210.084 206.751 209.991 207.201 209.991C207.716 209.991 208.185 210.12 208.607 210.377C209.036 210.628 209.372 210.982 209.616 211.44C209.859 211.898 209.98 212.423 209.98 213.017C209.98 213.611 209.859 214.144 209.616 214.616C209.372 215.081 209.036 215.446 208.607 215.71C208.185 215.968 207.716 216.097 207.201 216.097C206.751 216.097 206.35 216.007 206 215.828C205.649 215.642 205.363 215.413 205.141 215.142V218.811H203.918V210.088H205.141V210.957ZM208.736 213.017C208.736 212.609 208.65 212.259 208.478 211.966C208.314 211.665 208.092 211.44 207.813 211.29C207.541 211.132 207.248 211.053 206.933 211.053C206.626 211.053 206.332 211.132 206.053 211.29C205.781 211.447 205.56 211.676 205.388 211.976C205.223 212.277 205.141 212.631 205.141 213.039C205.141 213.446 205.223 213.804 205.388 214.112C205.56 214.412 205.781 214.641 206.053 214.798C206.332 214.956 206.626 215.034 206.933 215.034C207.248 215.034 207.541 214.956 207.813 214.798C208.092 214.634 208.314 214.398 208.478 214.09C208.65 213.782 208.736 213.425 208.736 213.017ZM212.413 208.06V216H211.19V208.06H212.413ZM216.584 216.097C216.026 216.097 215.522 215.971 215.071 215.721C214.62 215.463 214.266 215.106 214.009 214.648C213.751 214.183 213.622 213.647 213.622 213.039C213.622 212.438 213.755 211.905 214.019 211.44C214.284 210.975 214.645 210.617 215.103 210.367C215.561 210.116 216.072 209.991 216.637 209.991C217.203 209.991 217.714 210.116 218.172 210.367C218.63 210.617 218.991 210.975 219.256 211.44C219.52 211.905 219.653 212.438 219.653 213.039C219.653 213.639 219.517 214.172 219.245 214.637C218.973 215.102 218.601 215.463 218.129 215.721C217.664 215.971 217.149 216.097 216.584 216.097ZM216.584 215.034C216.899 215.034 217.192 214.959 217.464 214.809C217.743 214.659 217.968 214.433 218.14 214.133C218.311 213.833 218.397 213.468 218.397 213.039C218.397 212.609 218.315 212.248 218.15 211.955C217.986 211.654 217.768 211.429 217.496 211.279C217.224 211.129 216.931 211.053 216.616 211.053C216.301 211.053 216.008 211.129 215.736 211.279C215.471 211.429 215.26 211.654 215.103 211.955C214.946 212.248 214.867 212.609 214.867 213.039C214.867 213.675 215.028 214.169 215.35 214.519C215.679 214.863 216.09 215.034 216.584 215.034ZM220.454 213.017C220.454 212.423 220.576 211.898 220.819 211.44C221.069 210.982 221.405 210.628 221.828 210.377C222.257 210.12 222.729 209.991 223.244 209.991C223.709 209.991 224.113 210.084 224.456 210.27C224.807 210.449 225.086 210.674 225.293 210.946V210.088H226.527V216H225.293V215.12C225.086 215.399 224.803 215.632 224.446 215.818C224.088 216.004 223.68 216.097 223.222 216.097C222.715 216.097 222.25 215.968 221.828 215.71C221.405 215.446 221.069 215.081 220.819 214.616C220.576 214.144 220.454 213.611 220.454 213.017ZM225.293 213.039C225.293 212.631 225.207 212.277 225.036 211.976C224.871 211.676 224.653 211.447 224.381 211.29C224.109 211.132 223.816 211.053 223.501 211.053C223.187 211.053 222.893 211.132 222.622 211.29C222.35 211.44 222.128 211.665 221.956 211.966C221.792 212.259 221.71 212.609 221.71 213.017C221.71 213.425 221.792 213.782 221.956 214.09C222.128 214.398 222.35 214.634 222.622 214.798C222.901 214.956 223.194 215.034 223.501 215.034C223.816 215.034 224.109 214.956 224.381 214.798C224.653 214.641 224.871 214.412 225.036 214.112C225.207 213.804 225.293 213.446 225.293 213.039ZM227.726 213.017C227.726 212.423 227.848 211.898 228.091 211.44C228.341 210.982 228.678 210.628 229.1 210.377C229.529 210.12 230.005 209.991 230.527 209.991C230.913 209.991 231.292 210.077 231.664 210.249C232.043 210.413 232.344 210.635 232.565 210.914V208.06H233.799V216H232.565V215.109C232.365 215.396 232.086 215.632 231.729 215.818C231.378 216.004 230.974 216.097 230.516 216.097C230.001 216.097 229.529 215.968 229.1 215.71C228.678 215.446 228.341 215.081 228.091 214.616C227.848 214.144 227.726 213.611 227.726 213.017ZM232.565 213.039C232.565 212.631 232.48 212.277 232.308 211.976C232.143 211.676 231.925 211.447 231.653 211.29C231.382 211.132 231.088 211.053 230.774 211.053C230.459 211.053 230.166 211.132 229.894 211.29C229.622 211.44 229.4 211.665 229.228 211.966C229.064 212.259 228.982 212.609 228.982 213.017C228.982 213.425 229.064 213.782 229.228 214.09C229.4 214.398 229.622 214.634 229.894 214.798C230.173 214.956 230.466 215.034 230.774 215.034C231.088 215.034 231.382 214.956 231.653 214.798C231.925 214.641 232.143 214.412 232.308 214.112C232.48 213.804 232.565 213.446 232.565 213.039Z" fill="black"/>
</svg>
