<svg width="438" height="333" viewBox="0 0 438 333" fill="none" xmlns="http://www.w3.org/2000/svg">
<g clip-path="url(#clip0_83_1532)">
<path d="M394.114 286.081H365.099V286.3H394.114V286.081Z" fill="#EBEBEB"/>
<path d="M290.149 288.459H282.534V288.678H290.149V288.459Z" fill="#EBEBEB"/>
<path d="M364.221 277.947H347.409V278.166H364.221V277.947Z" fill="#EBEBEB"/>
<path d="M83.7912 279.418H45.9541V279.637H83.7912V279.418Z" fill="#EBEBEB"/>
<path d="M97.1385 279.418H91.5908V279.637H97.1385V279.418Z" fill="#EBEBEB"/>
<path d="M197.228 283.118H115.168V283.337H197.228V283.118Z" fill="#EBEBEB"/>
<path d="M207.625 232.914H38.4699C35.7132 232.914 33.4697 230.67 33.4697 227.913V-9.86112C33.4697 -12.6179 35.7132 -14.8613 38.4699 -14.8613H207.625C210.381 -14.8613 212.624 -12.6179 212.624 -9.86112V227.913C212.624 230.67 210.381 232.914 207.625 232.914ZM38.4699 -14.6415C35.8332 -14.6415 33.6887 -12.497 33.6887 -9.86024V227.914C33.6887 230.551 35.8332 232.695 38.4699 232.695H207.625C210.261 232.695 212.405 230.551 212.405 227.914V-9.86112C212.405 -12.497 210.261 -14.6423 207.625 -14.6423L38.4699 -14.6415Z" fill="#EBEBEB"/>
<path d="M397.099 232.914H227.946C225.189 232.914 222.946 230.67 222.946 227.913V-9.86112C222.946 -12.6179 225.19 -14.8613 227.946 -14.8613H397.099C399.857 -14.8613 402.1 -12.6179 402.1 -9.86112V227.913C402.101 230.67 399.857 232.914 397.099 232.914ZM227.946 -14.6415C225.31 -14.6415 223.165 -12.497 223.165 -9.86024V227.914C223.165 230.551 225.31 232.695 227.946 232.695H397.099C399.736 232.695 401.881 230.551 401.881 227.914V-9.86112C401.881 -12.497 399.736 -14.6423 397.099 -14.6423L227.946 -14.6415Z" fill="#EBEBEB"/>
<path d="M438 271.982H0V272.201H438V271.982Z" fill="#EBEBEB"/>
<path d="M68.7467 235.102C68.6757 235.041 68.6372 234.952 68.6328 234.858C68.5531 233.138 67.5194 216.264 57.1843 204.703C48.4419 194.924 57.4086 201.903 61.2998 205.048C61.6117 205.3 62.0409 204.931 61.8368 204.585C59.094 199.948 52.2113 187.691 54.5975 185.305C56.8532 183.049 61.5118 194.245 63.5914 199.672C63.7421 200.066 64.3299 199.926 64.2861 199.507C63.6869 193.76 62.8135 181.743 66.0512 182.165C69.2574 182.583 68.3612 198.462 67.7288 206.232C67.6937 206.663 68.3069 206.779 68.4322 206.365C69.8785 201.584 72.6317 194.517 75.8633 196.389C80.6463 199.16 68.8229 208.891 69.5622 219.451C70.2867 229.802 70.4785 236.594 68.7467 235.102Z" fill="#F5F5F5"/>
<path d="M73.6716 238.088C73.6497 238.059 73.7303 237.919 73.8284 237.851C85.7332 229.613 82.8021 211.478 79.1851 200.229C78.3801 197.726 77.5418 195.13 77.4182 192.455C79.9499 195.489 81.4706 199.477 83.1622 203.083C83.3847 203.559 83.9392 203.391 83.8586 202.875C82.9537 197.073 82.5972 178.846 87.8637 179.17C90.2446 179.316 87.5956 195.171 87.494 198.406C87.4773 198.927 88.1221 199.124 88.2561 198.639C89.8145 193.014 100.566 181.392 102.517 183.716C103.346 184.703 98.3231 190.166 96.6105 192.731C93.4 197.54 91.1995 202.912 89.1531 208.285C88.9727 208.759 89.5552 209.257 89.8075 208.859C91.7128 205.852 98.8233 198.627 101.228 202.206C102.973 204.803 98.317 208.562 96.0236 210.79C91.9546 214.744 88.0748 219.101 86.1029 224.357C84.76 227.939 75.1109 240.01 73.6716 238.088Z" fill="#F5F5F5"/>
<path d="M75.1277 236.354C75.2101 236.275 75.2504 236.164 75.2495 236.05C75.2328 233.957 75.3765 213.401 87.1622 198.685C97.1328 186.235 86.7049 195.299 82.1883 199.374C81.8256 199.7 81.2807 199.281 81.5059 198.848C84.5298 193.037 92.0783 177.703 89.0246 174.964C86.1373 172.374 81.2185 186.273 79.0513 193.001C78.8945 193.488 78.1718 193.356 78.1972 192.845C78.5459 185.828 78.8139 171.18 74.9113 171.906C71.0464 172.625 73.1804 191.844 74.4602 201.237C74.5312 201.757 73.7944 201.939 73.6149 201.445C71.544 195.736 67.736 187.337 63.9359 189.823C58.3111 193.503 73.3074 204.538 73.1059 217.408C72.9088 230.02 73.1234 238.279 75.1277 236.354Z" fill="#E6E6E6"/>
<path d="M83.0901 267.848C86.6625 254.53 89.0145 235.771 89.0145 231.15H62.3701C62.3701 235.771 64.7231 254.529 68.2945 267.848C68.9506 270.296 71.1757 271.993 73.7108 271.993H77.6738C80.2081 271.993 82.4331 270.297 83.0901 267.848Z" fill="#E6E6E6"/>
<path d="M374.628 271.135H350.645C347.732 271.135 345.327 268.856 345.172 265.946L342.239 210.945H383.035L380.102 265.946C379.946 268.856 377.542 271.135 374.628 271.135Z" fill="#E6E6E6"/>
<path d="M368.164 214.319H357.109V225.374H368.164V214.319Z" fill="#FAFAFA"/>
<path d="M368.164 228.097H357.109V239.151H368.164V228.097Z" fill="#FAFAFA"/>
<path d="M368.164 241.872H357.109V252.927H368.164V241.872Z" fill="#FAFAFA"/>
<path d="M368.164 255.65H357.109V266.704H368.164V255.65Z" fill="#FAFAFA"/>
<path d="M384.281 210.946H340.993C340.388 210.946 339.898 210.456 339.898 209.852V208.032C339.898 207.427 340.388 206.938 340.993 206.938H384.281C384.885 206.938 385.375 207.427 385.375 208.032V209.852C385.374 210.456 384.885 210.946 384.281 210.946Z" fill="#F5F5F5"/>
<path d="M377.435 255.649H371.009V266.704H376.622C376.771 266.422 376.877 266.113 376.895 265.775L377.435 255.649Z" fill="#FAFAFA"/>
<path d="M354.263 255.649H347.837L348.377 265.775C348.394 266.114 348.5 266.422 348.649 266.704H354.262V255.649H354.263Z" fill="#FAFAFA"/>
<path d="M354.263 241.872H347.102L347.691 252.927H354.263V241.872Z" fill="#FAFAFA"/>
<path d="M354.263 228.097H346.367L346.956 239.151H354.263V228.097Z" fill="#FAFAFA"/>
<path d="M354.263 214.319H345.632L346.222 225.374H354.263V214.319Z" fill="#FAFAFA"/>
<path d="M371.009 241.872V252.927H377.581L378.17 241.872H371.009Z" fill="#FAFAFA"/>
<path d="M371.009 228.097V239.151H378.316L378.904 228.097H371.009Z" fill="#FAFAFA"/>
<path d="M371.009 214.319V225.374H379.05L379.64 214.319H371.009Z" fill="#FAFAFA"/>
<path d="M214.775 308.174C308.579 308.174 384.622 303.733 384.622 298.255C384.622 292.777 308.579 288.336 214.775 288.336C120.972 288.336 44.9287 292.777 44.9287 298.255C44.9287 303.733 120.972 308.174 214.775 308.174Z" fill="#F5F5F5"/>
<path d="M347.339 148.528C341.14 148.528 333.815 137.197 327.352 127.2C323.114 120.643 318.997 114.28 314.615 109.676H329.111V102.668H311.335C314.514 99.0468 317.524 94.3934 320.612 89.6157C325.467 82.1049 331.51 72.758 336.129 72.758H349.725V65.75H336.129C327.696 65.75 321.396 75.4946 314.727 85.8104C309.872 93.3212 303.83 102.668 299.211 102.668H284.591H169.601H152.713H144.031C139.412 102.668 133.369 93.3212 128.514 85.8104C121.845 75.4937 115.546 65.75 107.112 65.75H93.5156V72.758H107.112C111.731 72.758 117.774 82.1049 122.629 89.6157C125.717 94.3934 128.727 99.0468 131.906 102.668H68.9219V109.676H139.578C135.197 114.28 131.08 120.643 126.841 127.2C120.379 137.197 113.054 148.528 106.854 148.528H81.0825V155.536H106.854C116.869 155.536 124.572 143.62 132.727 131.004C139.189 121.007 146.514 109.676 152.714 109.676H169.602H284.592H301.481C307.681 109.676 315.005 121.007 321.468 131.004C329.624 143.619 337.327 155.536 347.34 155.536H373.112V148.528H347.339Z" fill="#263238"/>
<g opacity="0.4">
<path d="M308.11 108.004L307.737 108.545C312.9 112.105 317.782 119.284 323.173 127.606L323.725 127.249C318.296 118.866 313.373 111.632 308.11 108.004Z" fill="white"/>
<path d="M330.547 137.571L330.009 137.948C333.027 142.265 335.542 145.315 337.926 147.548L338.375 147.069C336.025 144.868 333.538 141.85 330.547 137.571Z" fill="white"/>
<path d="M324.851 130.197C325.984 131.949 327.118 133.692 328.255 135.384L328.8 135.018C327.665 133.328 326.533 131.588 325.402 129.84L324.851 130.197Z" fill="white"/>
<path d="M340.722 149.024L340.337 149.556C342.764 151.315 345.055 152.169 347.34 152.169H364.723V151.512H347.34C345.198 151.512 343.033 150.698 340.722 149.024Z" fill="white"/>
<path d="M373.111 151.513H367.855V152.17H373.111V151.513Z" fill="white"/>
<path d="M74.1779 105.652H68.9219V106.309H74.1779V105.652Z" fill="white"/>
<path d="M99.6553 105.652H79.2734V106.309H99.6553V105.652Z" fill="white"/>
<path d="M104.75 105.653V106.31H145.514V105.653H144.032C142.493 105.653 140.945 105.127 139.301 104.048L138.94 104.597C139.605 105.034 140.258 105.385 140.902 105.654L104.75 105.653Z" fill="white"/>
<path d="M272.9 105.652H252.519V106.309H272.9V105.652Z" fill="white"/>
<path d="M318.759 106.31V105.653H302.34C302.985 105.385 303.637 105.033 304.302 104.596L303.941 104.047C302.295 105.127 300.748 105.652 299.21 105.652H292.946H289.848H284.592H277.996V106.309H284.592H289.848H292.946H301.48C302.659 106.309 303.876 106.566 305.096 107.076L305.349 106.47C305.203 106.409 305.057 106.364 304.91 106.31H318.759Z" fill="white"/>
<path d="M247.422 105.652H237.231V106.309H247.422V105.652Z" fill="white"/>
<path d="M232.137 105.652H191.373V106.309H232.137V105.652Z" fill="white"/>
<path d="M329.11 105.652H323.854V106.309H329.11V105.652Z" fill="white"/>
<path d="M316.477 89.9668L315.926 89.6085C313.197 93.8002 310.017 98.5349 306.818 101.675L307.278 102.144C310.524 98.9581 313.728 94.1882 316.477 89.9668Z" fill="white"/>
<path d="M336.129 69.3915H340.67V68.7345H336.129C329.439 68.7345 323.359 78.1278 317.996 86.4139L318.548 86.7704C323.82 78.6245 329.796 69.3906 336.129 69.3915Z" fill="white"/>
<path d="M349.724 68.7345H344.468V69.3915H349.724V68.7345Z" fill="white"/>
<path d="M136.424 101.675C133.226 98.5349 130.046 93.8002 127.316 89.6085L126.765 89.9668C129.514 94.1874 132.718 98.9581 135.964 102.144L136.424 101.675Z" fill="white"/>
<path d="M124.695 86.7704L125.247 86.4139C119.883 78.127 113.803 68.7336 107.112 68.7345H102.571V69.3915H107.112C113.446 69.3906 119.422 78.6245 124.695 86.7704Z" fill="white"/>
<path d="M98.7736 68.7345H93.5176V69.3915H98.7736V68.7345Z" fill="white"/>
<path d="M165.895 105.652H164.345V106.309H165.895H169.601H186.276V105.652H169.601H165.895Z" fill="white"/>
<path d="M130.468 127.248L131.02 127.605C136.41 119.284 141.292 112.106 146.456 108.545L146.082 108.004C140.819 111.634 135.897 118.867 130.468 127.248Z" fill="white"/>
<path d="M152.714 105.652H150.61V105.906C150.024 106.04 149.434 106.224 148.845 106.47L149.098 107.076C150.318 106.567 151.536 106.309 152.714 106.309H160.8H161.248V105.652H160.8H152.714V105.652Z" fill="white"/>
<path d="M106.854 151.512H89.4707V152.169H106.854C109.138 152.169 111.429 151.314 113.857 149.556L113.47 149.025C111.16 150.698 108.995 151.512 106.854 151.512Z" fill="white"/>
<path d="M125.393 135.019L125.938 135.385C127.075 133.693 128.209 131.95 129.342 130.198L128.791 129.842C127.66 131.59 126.528 133.329 125.393 135.019Z" fill="white"/>
<path d="M115.819 147.069L116.269 147.548C118.652 145.315 121.167 142.265 124.186 137.948L123.648 137.572C120.655 141.85 118.168 144.868 115.819 147.069Z" fill="white"/>
<path d="M86.338 151.513H81.082V152.17H86.338V151.513Z" fill="white"/>
</g>
<path d="M107.157 135.104H100.733C99.2219 135.104 97.8107 135.862 96.9767 137.123L96.0368 138.543C95.2711 139.699 93.9773 140.395 92.5906 140.395H76.0202C74.5336 140.395 73.3291 141.599 73.3291 143.086V168.959H110.687V140.395L110.358 137.91C110.146 136.305 108.776 135.104 107.157 135.104Z" fill="#277B69"/>
<path opacity="0.2" d="M107.157 135.104H100.733C99.2219 135.104 97.8107 135.862 96.9767 137.123L96.0368 138.543C95.2711 139.699 93.9773 140.395 92.5906 140.395H76.0202C74.5336 140.395 73.3291 141.599 73.3291 143.086V168.959H110.687V140.395L110.358 137.91C110.146 136.305 108.776 135.104 107.157 135.104Z" fill="white"/>
<path d="M107.884 143.664H76.1299V165.378H107.884V143.664Z" fill="#263238"/>
<path opacity="0.9" d="M107.884 143.664H76.1299V165.378H107.884V143.664Z" fill="white"/>
<path d="M110.686 168.959H73.3282L67.8489 149.002C67.4336 147.49 68.5716 145.998 70.1387 145.998H100.754C102.897 145.998 104.776 147.43 105.343 149.497L110.686 168.959Z" fill="#277B69"/>
<path opacity="0.6" d="M110.686 168.959H73.3282L67.8489 149.002C67.4336 147.49 68.5716 145.998 70.1387 145.998H100.754C102.897 145.998 104.776 147.43 105.343 149.497L110.686 168.959Z" fill="white"/>
<path d="M65.8733 39.9883H72.8033C74.4336 39.9883 75.9561 40.8056 76.8557 42.1651L77.8701 43.6973C78.6962 44.9447 80.0925 45.6945 81.5887 45.6945H99.4644C101.067 45.6945 102.367 46.9945 102.367 48.5976V74.1391C102.367 75.4488 101.306 76.5105 99.9961 76.5105H64.4358C63.1262 76.5105 62.0645 75.4488 62.0645 74.1391V45.6937L62.4192 43.014C62.6487 41.283 64.1257 39.9883 65.8733 39.9883Z" fill="#277B69"/>
<path opacity="0.6" d="M65.8733 39.9883H72.8033C74.4336 39.9883 75.9561 40.8056 76.8557 42.1651L77.8701 43.6973C78.6962 44.9447 80.0925 45.6945 81.5887 45.6945H99.4644C101.067 45.6945 102.367 46.9945 102.367 48.5976V74.1391C102.367 75.4488 101.306 76.5105 99.9961 76.5105H64.4358C63.1262 76.5105 62.0645 75.4488 62.0645 74.1391V45.6937L62.4192 43.014C62.6487 41.283 64.1257 39.9883 65.8733 39.9883Z" fill="white"/>
<path d="M95.1202 45.6953H91.54V70.5168H95.1202V45.6953Z" fill="#263238"/>
<path opacity="0.5" d="M95.1202 45.6953H91.54V70.5168H95.1202V45.6953Z" fill="white"/>
<path d="M93.4366 46.8741H90.6895V48.9178H93.4366V46.8741Z" fill="#263238"/>
<path d="M93.4366 51.3251H90.6895V53.3688H93.4366V51.3251Z" fill="#263238"/>
<path d="M93.4366 55.7752H90.6895V57.8189H93.4366V55.7752Z" fill="#263238"/>
<path d="M93.4366 60.2254H90.6895V62.2691H93.4366V60.2254Z" fill="#263238"/>
<path d="M93.4366 64.6768H90.6895V66.7205H93.4366V64.6768Z" fill="#263238"/>
<path opacity="0.7" d="M93.4366 46.874H90.6895V48.9177H93.4366V46.874Z" fill="white"/>
<path opacity="0.7" d="M93.4366 51.325H90.6895V53.3687H93.4366V51.325Z" fill="white"/>
<path opacity="0.7" d="M93.4366 55.7752H90.6895V57.8189H93.4366V55.7752Z" fill="white"/>
<path opacity="0.7" d="M93.4366 60.2266H90.6895V62.2703H93.4366V60.2266Z" fill="white"/>
<path opacity="0.7" d="M93.4366 64.6768H90.6895V66.7205H93.4366V64.6768Z" fill="white"/>
<path d="M96.1016 48.9169H93.3545V50.9606H96.1016V48.9169Z" fill="#263238"/>
<path d="M96.1016 53.368H93.3545V55.4117H96.1016V53.368Z" fill="#263238"/>
<path d="M96.1016 57.8193H93.3545V59.863H96.1016V57.8193Z" fill="#263238"/>
<path d="M96.1016 62.2695H93.3545V64.3132H96.1016V62.2695Z" fill="#263238"/>
<path d="M96.1016 66.7197H93.3545V68.7634H96.1016V66.7197Z" fill="#263238"/>
<g opacity="0.8">
<path d="M96.1016 48.9169H93.3545V50.9606H96.1016V48.9169Z" fill="white"/>
<path d="M96.1016 53.368H93.3545V55.4117H96.1016V53.368Z" fill="white"/>
<path d="M96.1016 57.8193H93.3545V59.863H96.1016V57.8193Z" fill="white"/>
<path d="M96.1016 62.2695H93.3545V64.3132H96.1016V62.2695Z" fill="white"/>
<path d="M96.1016 66.7197H93.3545V68.7634H96.1016V66.7197Z" fill="white"/>
</g>
<path d="M89.499 68.7638V76.9036H97.3769V68.7638H89.499ZM96.1102 75.4275H90.8884V70.2416H96.1102V75.4275Z" fill="#263238"/>
<path opacity="0.7" d="M89.499 68.7638V76.9036H97.3769V68.7638H89.499ZM96.1102 75.4275H90.8884V70.2416H96.1102V75.4275Z" fill="white"/>
<path d="M91.7142 86.9269H55.1973V95.0675L63.3248 103.195H99.8417V95.0553L91.7142 86.9269Z" fill="#277B69"/>
<path opacity="0.3" d="M91.7142 86.9269H55.1973V95.0675L63.3248 103.195H99.8417V95.0553L91.7142 86.9269Z" fill="white"/>
<path d="M99.8421 103.19H63.3252V111.329H99.8421V103.19Z" fill="#277B69"/>
<path opacity="0.3" d="M99.8421 103.19H63.3252V111.329H99.8421V103.19Z" fill="white"/>
<path d="M99.8421 111.322H63.3252V119.462H99.8421V111.322Z" fill="#277B69"/>
<path opacity="0.6" d="M99.8421 111.322H63.3252V119.462H99.8421V111.322Z" fill="white"/>
<path d="M99.8421 95.0548H63.3252V103.195H99.8421V95.0548Z" fill="#277B69"/>
<path d="M77.0981 119.463H85.294V95.0553L77.1665 86.9269H68.9697L77.0981 95.0553V119.463Z" fill="#277B69"/>
<path opacity="0.2" d="M77.0981 119.463H85.294V95.0553L77.1665 86.9269H68.9697L77.0981 95.0553V119.463Z" fill="black"/>
<path d="M74.917 100.87V113.648H87.2826V100.87H74.917ZM85.2941 111.329H77.0974V103.189H85.2941V111.329Z" fill="#263238"/>
<path opacity="0.5" d="M74.917 100.87V113.648H87.2826V100.87H74.917ZM85.2941 111.329H77.0974V103.189H85.2941V111.329Z" fill="white"/>
<path d="M55.1973 86.9269V95.0675L63.3248 103.195V95.0553L55.1973 86.9269Z" fill="#263238"/>
<path opacity="0.5" d="M55.1973 86.9269V95.0675L63.3248 103.195V95.0553L55.1973 86.9269Z" fill="white"/>
<path d="M55.1973 95.0616V103.201L63.3248 111.329V103.189L55.1973 95.0616Z" fill="#263238"/>
<path opacity="0.6" d="M55.1973 95.0616V103.201L63.3248 111.329V103.189L55.1973 95.0616Z" fill="white"/>
<path d="M55.1973 103.195V111.335L63.3248 119.464V111.323L55.1973 103.195Z" fill="#263238"/>
<path opacity="0.8" d="M55.1973 103.195V111.335L63.3248 119.464V111.323L55.1973 103.195Z" fill="white"/>
<path d="M380.13 124.367H340.305V177.959H380.13V124.367Z" fill="#277B69"/>
<path opacity="0.7" d="M380.13 124.367H340.305V177.959H380.13V124.367Z" fill="white"/>
<path opacity="0.7" d="M377.528 126.969H342.906V140.919H377.528V126.969Z" fill="white"/>
<path opacity="0.7" d="M377.528 144.188H342.906V158.139H377.528V144.188Z" fill="white"/>
<path d="M377.528 134.496L374.298 130.558L370.308 135.42L366.323 129.691L362.091 133.924L357.938 131.59L354.161 137.861L350.384 131.589L346.097 134.01L342.906 132.207V133.701L346.097 135.503L349.923 133.343L354.161 140.382L358.401 133.342L362.313 135.542L366.144 131.711L370.223 137.576L374.298 132.609L377.528 136.546V134.496Z" fill="#277B69"/>
<path opacity="0.5" d="M377.528 134.496L374.298 130.558L370.308 135.42L366.323 129.691L362.091 133.924L357.938 131.59L354.161 137.861L350.384 131.589L346.097 134.01L342.906 132.207V133.701L346.097 135.503L349.923 133.343L354.161 140.382L358.401 133.342L362.313 135.542L366.144 131.711L370.223 137.576L374.298 132.609L377.528 136.546V134.496Z" fill="white"/>
<path d="M377.528 148.423L374.274 150.261L369.988 147.84L366.21 154.112L362.433 147.842L358.281 150.176L354.048 145.943L350.063 151.672L346.074 146.81L342.906 150.671V152.721L346.074 148.861L350.149 153.827L354.228 147.963L358.058 151.794L361.971 149.595L366.21 156.634L370.449 149.595L374.274 151.755L377.528 149.918V148.423Z" fill="#277B69"/>
<path opacity="0.5" d="M377.528 148.423L374.274 150.261L369.988 147.84L366.21 154.112L362.433 147.842L358.281 150.176L354.048 145.943L350.063 151.672L346.074 146.81L342.906 150.671V152.721L346.074 148.861L350.149 153.827L354.228 147.963L358.058 151.794L361.971 149.595L366.21 156.634L370.449 149.595L374.274 151.755L377.528 149.918V148.423Z" fill="white"/>
<path d="M357.205 162.056C363.818 162.056 370.43 162.056 377.043 162.056C377.88 162.056 377.881 160.755 377.043 160.755C370.43 160.755 363.818 160.755 357.205 160.755C356.369 160.755 356.367 162.056 357.205 162.056Z" fill="#263238"/>
<path d="M357.205 165.598C362.951 165.598 368.696 165.598 374.441 165.598C375.279 165.598 375.28 164.297 374.441 164.297C368.696 164.297 362.951 164.297 357.205 164.297C356.369 164.297 356.367 165.598 357.205 165.598Z" fill="#263238"/>
<path d="M357.205 169.139C362.951 169.139 368.696 169.139 374.441 169.139C375.279 169.139 375.28 167.838 374.441 167.838C368.696 167.838 362.951 167.838 357.205 167.838C356.369 167.838 356.367 169.139 357.205 169.139Z" fill="#263238"/>
<path d="M357.205 172.68C363.24 172.68 369.274 172.68 375.309 172.68C376.146 172.68 376.147 171.379 375.309 171.379C369.274 171.379 363.24 171.379 357.205 171.379C356.369 171.379 356.367 172.68 357.205 172.68Z" fill="#263238"/>
<g opacity="0.4">
<path d="M357.205 162.056C363.818 162.056 370.43 162.056 377.043 162.056C377.88 162.056 377.881 160.755 377.043 160.755C370.43 160.755 363.818 160.755 357.205 160.755C356.369 160.755 356.367 162.056 357.205 162.056Z" fill="white"/>
<path d="M357.205 165.598C362.951 165.598 368.696 165.598 374.441 165.598C375.279 165.598 375.28 164.297 374.441 164.297C368.696 164.297 362.951 164.297 357.205 164.297C356.369 164.297 356.367 165.598 357.205 165.598Z" fill="white"/>
<path d="M357.205 169.139C362.951 169.139 368.696 169.139 374.441 169.139C375.279 169.139 375.28 167.838 374.441 167.838C368.696 167.838 362.951 167.838 357.205 167.838C356.369 167.838 356.367 169.139 357.205 169.139Z" fill="white"/>
<path d="M357.205 172.68C363.24 172.68 369.274 172.68 375.309 172.68C376.146 172.68 376.147 171.379 375.309 171.379C369.274 171.379 363.24 171.379 357.205 171.379C356.369 171.379 356.367 172.68 357.205 172.68Z" fill="white"/>
</g>
<path d="M378.095 41.9326H341.89V90.6522H378.095V41.9326Z" fill="#277B69"/>
<path opacity="0.6" d="M378.095 41.9326H341.89V90.6522H378.095V41.9326Z" fill="white"/>
<path opacity="0.7" d="M375.73 44.2978H344.255V56.9797H375.73V44.2978Z" fill="white"/>
<path d="M357.349 60.79C363.36 60.79 369.372 60.79 375.383 60.79C376.144 60.79 376.145 59.6074 375.383 59.6074C369.372 59.6074 363.36 59.6074 357.349 59.6074C356.587 59.6074 356.586 60.79 357.349 60.79Z" fill="#263238"/>
<path d="M357.349 64.0086C362.571 64.0086 367.795 64.0086 373.018 64.0086C373.779 64.0086 373.78 62.826 373.018 62.826C367.795 62.826 362.571 62.826 357.349 62.826C356.587 62.826 356.586 64.0086 357.349 64.0086Z" fill="#263238"/>
<path d="M357.349 67.2285C362.571 67.2285 367.795 67.2285 373.018 67.2285C373.779 67.2285 373.78 66.0459 373.018 66.0459C367.795 66.0459 362.571 66.0459 357.349 66.0459C356.587 66.0459 356.586 67.2285 357.349 67.2285Z" fill="#263238"/>
<path d="M357.349 70.4483C362.834 70.4483 368.321 70.4483 373.806 70.4483C374.567 70.4483 374.568 69.2657 373.806 69.2657C368.321 69.2657 362.834 69.2657 357.349 69.2657C356.587 69.2657 356.586 70.4483 357.349 70.4483Z" fill="#263238"/>
<path d="M357.349 73.6668C361.783 73.6668 366.218 73.6668 370.652 73.6668C371.414 73.6668 371.415 72.4842 370.652 72.4842C366.218 72.4842 361.783 72.4842 357.349 72.4842C356.587 72.4842 356.586 73.6668 357.349 73.6668Z" fill="#263238"/>
<path d="M357.349 76.8867C363.36 76.8867 369.372 76.8867 375.383 76.8867C376.144 76.8867 376.145 75.7041 375.383 75.7041C369.372 75.7041 363.36 75.7041 357.349 75.7041C356.587 75.7041 356.586 76.8867 357.349 76.8867Z" fill="#263238"/>
<path d="M357.349 80.1055C362.571 80.1055 367.795 80.1055 373.018 80.1055C373.779 80.1055 373.78 78.9229 373.018 78.9229C367.795 78.9229 362.571 78.9229 357.349 78.9229C356.587 78.9229 356.586 80.1055 357.349 80.1055Z" fill="#263238"/>
<path d="M357.349 83.3244C362.571 83.3244 367.795 83.3244 373.018 83.3244C373.779 83.3244 373.78 82.1418 373.018 82.1418C367.795 82.1418 362.571 82.1418 357.349 82.1418C356.587 82.1418 356.586 83.3244 357.349 83.3244Z" fill="#263238"/>
<path d="M357.349 86.5449C362.834 86.5449 368.321 86.5449 373.806 86.5449C374.567 86.5449 374.568 85.3623 373.806 85.3623C368.321 85.3623 362.834 85.3623 357.349 85.3623C356.587 85.3623 356.586 86.5449 357.349 86.5449Z" fill="#263238"/>
<g opacity="0.4">
<path d="M357.349 60.79C363.36 60.79 369.372 60.79 375.383 60.79C376.144 60.79 376.145 59.6074 375.383 59.6074C369.372 59.6074 363.36 59.6074 357.349 59.6074C356.587 59.6074 356.586 60.79 357.349 60.79Z" fill="white"/>
</g>
<g opacity="0.4">
<path d="M357.349 64.0086C362.571 64.0086 367.795 64.0086 373.018 64.0086C373.779 64.0086 373.78 62.826 373.018 62.826C367.795 62.826 362.571 62.826 357.349 62.826C356.587 62.826 356.586 64.0086 357.349 64.0086Z" fill="white"/>
</g>
<g opacity="0.4">
<path d="M357.349 67.2285C362.571 67.2285 367.795 67.2285 373.018 67.2285C373.779 67.2285 373.78 66.0459 373.018 66.0459C367.795 66.0459 362.571 66.0459 357.349 66.0459C356.587 66.0459 356.586 67.2285 357.349 67.2285Z" fill="white"/>
</g>
<g opacity="0.4">
<path d="M357.349 70.4483C362.834 70.4483 368.321 70.4483 373.806 70.4483C374.567 70.4483 374.568 69.2657 373.806 69.2657C368.321 69.2657 362.834 69.2657 357.349 69.2657C356.587 69.2657 356.586 70.4483 357.349 70.4483Z" fill="white"/>
</g>
<g opacity="0.4">
<path d="M357.349 73.6668C361.783 73.6668 366.218 73.6668 370.652 73.6668C371.414 73.6668 371.415 72.4842 370.652 72.4842C366.218 72.4842 361.783 72.4842 357.349 72.4842C356.587 72.4842 356.586 73.6668 357.349 73.6668Z" fill="white"/>
</g>
<g opacity="0.4">
<path d="M357.349 76.8867C363.36 76.8867 369.372 76.8867 375.383 76.8867C376.144 76.8867 376.145 75.7041 375.383 75.7041C369.372 75.7041 363.36 75.7041 357.349 75.7041C356.587 75.7041 356.586 76.8867 357.349 76.8867Z" fill="white"/>
</g>
<g opacity="0.4">
<path d="M357.349 80.1055C362.571 80.1055 367.795 80.1055 373.018 80.1055C373.779 80.1055 373.78 78.9229 373.018 78.9229C367.795 78.9229 362.571 78.9229 357.349 78.9229C356.587 78.9229 356.586 80.1055 357.349 80.1055Z" fill="white"/>
</g>
<g opacity="0.4">
<path d="M357.349 83.3244C362.571 83.3244 367.795 83.3244 373.018 83.3244C373.779 83.3244 373.78 82.1418 373.018 82.1418C367.795 82.1418 362.571 82.1418 357.349 82.1418C356.587 82.1418 356.586 83.3244 357.349 83.3244Z" fill="white"/>
</g>
<g opacity="0.4">
<path d="M357.349 86.5449C362.834 86.5449 368.321 86.5449 373.806 86.5449C374.567 86.5449 374.568 85.3623 373.806 85.3623C368.321 85.3623 362.834 85.3623 357.349 85.3623C356.587 85.3623 356.586 86.5449 357.349 86.5449Z" fill="white"/>
</g>
<path d="M353.127 60.1982H344.255V69.0695H353.127V60.1982Z" fill="#277B69"/>
<path opacity="0.3" d="M353.127 60.1982H344.255V69.0695H353.127V60.1982Z" fill="white"/>
<path d="M353.988 51.0274H351.586V55.8305H353.988V51.0274Z" fill="#277B69"/>
<path d="M358.792 48.625H356.39V55.8301H358.792V48.625Z" fill="#277B69"/>
<path d="M363.594 49.8262H361.192V55.8303H363.594V49.8262Z" fill="#277B69"/>
<path d="M368.398 46.2237H365.996V55.8308H368.398V46.2237Z" fill="#277B69"/>
<path d="M360.364 82.409H324.159V131.129H360.364V82.409Z" fill="#277B69"/>
<path opacity="0.8" d="M360.364 82.409H324.159V131.129H360.364V82.409Z" fill="white"/>
<path d="M339.618 87.6298C345.629 87.6298 351.641 87.6298 357.652 87.6298C358.414 87.6298 358.414 86.4472 357.652 86.4472C351.641 86.4472 345.629 86.4472 339.618 86.4472C338.857 86.4472 338.856 87.6298 339.618 87.6298Z" fill="#263238"/>
<path d="M339.618 90.8493C344.841 90.8493 350.064 90.8493 355.287 90.8493C356.048 90.8493 356.049 89.6667 355.287 89.6667C350.064 89.6667 344.841 89.6667 339.618 89.6667C338.857 89.6667 338.856 90.8493 339.618 90.8493Z" fill="#263238"/>
<path d="M339.618 94.0692C344.841 94.0692 350.064 94.0692 355.287 94.0692C356.048 94.0692 356.049 92.8866 355.287 92.8866C350.064 92.8866 344.841 92.8866 339.618 92.8866C338.857 92.8866 338.856 94.0692 339.618 94.0692Z" fill="#263238"/>
<path d="M339.618 97.2881C345.104 97.2881 350.59 97.2881 356.076 97.2881C356.837 97.2881 356.838 96.1055 356.076 96.1055C350.59 96.1055 345.104 96.1055 339.618 96.1055C338.857 96.1055 338.856 97.2881 339.618 97.2881Z" fill="#263238"/>
<path d="M339.618 100.508C344.052 100.508 348.488 100.508 352.922 100.508C353.683 100.508 353.684 99.325 352.922 99.325C348.488 99.325 344.052 99.325 339.618 99.325C338.857 99.325 338.856 100.508 339.618 100.508Z" fill="#263238"/>
<path d="M339.618 103.727C345.629 103.727 351.641 103.727 357.652 103.727C358.414 103.727 358.414 102.545 357.652 102.545C351.641 102.545 345.629 102.545 339.618 102.545C338.857 102.545 338.856 103.727 339.618 103.727Z" fill="#263238"/>
<path d="M339.618 106.945C344.841 106.945 350.064 106.945 355.287 106.945C356.048 106.945 356.049 105.763 355.287 105.763C350.064 105.763 344.841 105.763 339.618 105.763C338.857 105.763 338.856 106.945 339.618 106.945Z" fill="#263238"/>
<path d="M339.618 110.165C344.841 110.165 350.064 110.165 355.287 110.165C356.048 110.165 356.049 108.983 355.287 108.983C350.064 108.983 344.841 108.983 339.618 108.983C338.857 108.983 338.856 110.165 339.618 110.165Z" fill="#263238"/>
<path d="M339.618 116.607C344.052 116.607 348.488 116.607 352.922 116.607C353.683 116.607 353.684 115.425 352.922 115.425C348.488 115.425 344.052 115.425 339.618 115.425C338.857 115.425 338.856 116.607 339.618 116.607Z" fill="#263238"/>
<path d="M339.618 119.826C345.629 119.826 351.641 119.826 357.652 119.826C358.414 119.826 358.414 118.643 357.652 118.643C351.641 118.643 345.629 118.643 339.618 118.643C338.857 118.643 338.856 119.826 339.618 119.826Z" fill="#263238"/>
<path d="M339.618 123.046C344.841 123.046 350.064 123.046 355.287 123.046C356.048 123.046 356.049 121.863 355.287 121.863C350.064 121.863 344.841 121.863 339.618 121.863C338.857 121.863 338.856 123.046 339.618 123.046Z" fill="#263238"/>
<path d="M339.618 126.265C344.841 126.265 350.064 126.265 355.287 126.265C356.048 126.265 356.049 125.083 355.287 125.083C350.064 125.083 344.841 125.083 339.618 125.083C338.857 125.083 338.856 126.265 339.618 126.265Z" fill="#263238"/>
<path d="M339.618 113.386C345.104 113.386 350.59 113.386 356.076 113.386C356.837 113.386 356.838 112.203 356.076 112.203C350.59 112.203 345.104 112.203 339.618 112.203C338.857 112.203 338.856 113.386 339.618 113.386Z" fill="#263238"/>
<g opacity="0.4">
<path d="M339.618 87.6298C345.629 87.6298 351.641 87.6298 357.652 87.6298C358.414 87.6298 358.414 86.4472 357.652 86.4472C351.641 86.4472 345.629 86.4472 339.618 86.4472C338.857 86.4472 338.856 87.6298 339.618 87.6298Z" fill="white"/>
<path d="M339.618 90.8493C344.841 90.8493 350.064 90.8493 355.287 90.8493C356.048 90.8493 356.049 89.6667 355.287 89.6667C350.064 89.6667 344.841 89.6667 339.618 89.6667C338.857 89.6667 338.856 90.8493 339.618 90.8493Z" fill="white"/>
<path d="M339.618 94.0692C344.841 94.0692 350.064 94.0692 355.287 94.0692C356.048 94.0692 356.049 92.8866 355.287 92.8866C350.064 92.8866 344.841 92.8866 339.618 92.8866C338.857 92.8866 338.856 94.0692 339.618 94.0692Z" fill="white"/>
<path d="M339.618 97.2881C345.104 97.2881 350.59 97.2881 356.076 97.2881C356.837 97.2881 356.838 96.1055 356.076 96.1055C350.59 96.1055 345.104 96.1055 339.618 96.1055C338.857 96.1055 338.856 97.2881 339.618 97.2881Z" fill="white"/>
<path d="M339.618 100.508C344.052 100.508 348.488 100.508 352.922 100.508C353.683 100.508 353.684 99.325 352.922 99.325C348.488 99.325 344.052 99.325 339.618 99.325C338.857 99.325 338.856 100.508 339.618 100.508Z" fill="white"/>
<path d="M339.618 103.727C345.629 103.727 351.641 103.727 357.652 103.727C358.414 103.727 358.414 102.545 357.652 102.545C351.641 102.545 345.629 102.545 339.618 102.545C338.857 102.545 338.856 103.727 339.618 103.727Z" fill="white"/>
<path d="M339.618 106.945C344.841 106.945 350.064 106.945 355.287 106.945C356.048 106.945 356.049 105.763 355.287 105.763C350.064 105.763 344.841 105.763 339.618 105.763C338.857 105.763 338.856 106.945 339.618 106.945Z" fill="white"/>
<path d="M339.618 110.165C344.841 110.165 350.064 110.165 355.287 110.165C356.048 110.165 356.049 108.983 355.287 108.983C350.064 108.983 344.841 108.983 339.618 108.983C338.857 108.983 338.856 110.165 339.618 110.165Z" fill="white"/>
<path d="M339.618 116.607C344.052 116.607 348.488 116.607 352.922 116.607C353.683 116.607 353.684 115.425 352.922 115.425C348.488 115.425 344.052 115.425 339.618 115.425C338.857 115.425 338.856 116.607 339.618 116.607Z" fill="white"/>
<path d="M339.618 119.826C345.629 119.826 351.641 119.826 357.652 119.826C358.414 119.826 358.414 118.643 357.652 118.643C351.641 118.643 345.629 118.643 339.618 118.643C338.857 118.643 338.856 119.826 339.618 119.826Z" fill="white"/>
<path d="M339.618 123.046C344.841 123.046 350.064 123.046 355.287 123.046C356.048 123.046 356.049 121.863 355.287 121.863C350.064 121.863 344.841 121.863 339.618 121.863C338.857 121.863 338.856 123.046 339.618 123.046Z" fill="white"/>
<path d="M339.618 126.265C344.841 126.265 350.064 126.265 355.287 126.265C356.048 126.265 356.049 125.083 355.287 125.083C350.064 125.083 344.841 125.083 339.618 125.083C338.857 125.083 338.856 126.265 339.618 126.265Z" fill="white"/>
<path d="M339.618 113.386C345.104 113.386 350.59 113.386 356.076 113.386C356.837 113.386 356.838 112.203 356.076 112.203C350.59 112.203 345.104 112.203 339.618 112.203C338.857 112.203 338.856 113.386 339.618 113.386Z" fill="white"/>
</g>
<path d="M329.715 103.941L328.286 102.512C327.302 103.496 326.693 104.855 326.693 106.357H328.714C328.714 105.413 329.097 104.559 329.715 103.941Z" fill="#277B69"/>
<path d="M332.131 109.772C330.244 109.772 328.715 108.242 328.715 106.356H326.694C326.694 109.359 329.129 111.793 332.131 111.793V109.772Z" fill="#277B69"/>
<path opacity="0.3" d="M332.131 109.772C330.244 109.772 328.715 108.242 328.715 106.356H326.694C326.694 109.359 329.129 111.793 332.131 111.793V109.772Z" fill="white"/>
<path d="M329.715 103.94C330.333 103.322 331.187 102.94 332.13 102.94V100.919C330.629 100.919 329.27 101.528 328.286 102.511L329.715 103.94Z" fill="#277B69"/>
<path opacity="0.5" d="M329.715 103.94C330.333 103.322 331.187 102.94 332.13 102.94V100.919C330.629 100.919 329.27 101.528 328.286 102.511L329.715 103.94Z" fill="black"/>
<path d="M335.546 106.355C335.546 108.242 334.017 109.771 332.131 109.771V111.792C335.134 111.792 337.567 109.357 337.567 106.355C337.567 103.353 335.133 100.919 332.131 100.919V102.94C334.017 102.94 335.546 104.469 335.546 106.355Z" fill="#277B69"/>
<path opacity="0.2" d="M334.546 108.771L335.975 110.2C336.958 109.216 337.567 107.857 337.567 106.355H335.546C335.546 107.299 335.164 108.153 334.546 108.771Z" fill="black"/>
<path d="M329.715 93.6765L328.286 95.1052C329.27 96.089 330.629 96.6978 332.131 96.6978V94.6769C331.187 94.6769 330.333 94.2949 329.715 93.6765Z" fill="#277B69"/>
<path d="M335.546 91.2615C335.546 93.1484 334.017 94.6771 332.131 94.6771V96.698C335.134 96.698 337.567 94.2636 337.567 91.2615H335.546Z" fill="#277B69"/>
<path opacity="0.3" d="M335.546 91.2615C335.546 93.1484 334.017 94.6771 332.131 94.6771V96.698C335.134 96.698 337.567 94.2636 337.567 91.2615H335.546Z" fill="white"/>
<path d="M329.715 93.6766C329.096 93.0582 328.714 92.2049 328.714 91.2615H326.693C326.693 92.763 327.302 94.1216 328.286 95.1063L329.715 93.6766Z" fill="#277B69"/>
<path opacity="0.5" d="M329.715 93.6766C329.096 93.0582 328.714 92.2049 328.714 91.2615H326.693C326.693 92.763 327.302 94.1216 328.286 95.1063L329.715 93.6766Z" fill="black"/>
<path d="M332.131 87.846C334.018 87.846 335.546 89.3754 335.546 91.2615H337.567C337.567 88.2585 335.133 85.825 332.131 85.825C329.129 85.825 326.694 88.2594 326.694 91.2615H328.715C328.714 89.3754 330.244 87.846 332.131 87.846Z" fill="#277B69"/>
<path opacity="0.2" d="M334.546 88.8463L335.975 87.4176C334.991 86.4338 333.631 85.825 332.13 85.825V87.8459C333.073 87.8459 333.927 88.2279 334.546 88.8463Z" fill="black"/>
<path d="M334.546 119.036L335.975 117.606C336.958 118.59 337.567 119.95 337.567 121.451H335.546C335.546 120.508 335.163 119.653 334.546 119.036Z" fill="#277B69"/>
<path d="M332.131 124.867C334.018 124.867 335.546 123.337 335.546 121.451H337.567C337.567 124.454 335.133 126.887 332.131 126.887V124.867Z" fill="#277B69"/>
<path opacity="0.3" d="M332.131 124.867C334.018 124.867 335.546 123.337 335.546 121.451H337.567C337.567 124.454 335.133 126.887 332.131 126.887V124.867Z" fill="white"/>
<path d="M334.546 119.036C333.928 118.417 333.074 118.035 332.131 118.035V116.014C333.632 116.014 334.991 116.623 335.976 117.607L334.546 119.036Z" fill="#277B69"/>
<path opacity="0.5" d="M334.546 119.036C333.928 118.417 333.074 118.035 332.131 118.035V116.014C333.632 116.014 334.991 116.623 335.976 117.607L334.546 119.036Z" fill="black"/>
<path d="M328.714 121.451C328.714 123.338 330.244 124.866 332.13 124.866V126.887C329.127 126.887 326.693 124.453 326.693 121.451C326.693 118.449 329.128 116.014 332.13 116.014V118.035C330.244 118.035 328.714 119.564 328.714 121.451Z" fill="#277B69"/>
<path opacity="0.2" d="M329.715 123.866L328.286 125.295C327.302 124.311 326.693 122.952 326.693 121.45H328.714C328.714 122.394 329.097 123.248 329.715 123.866Z" fill="black"/>
<path d="M251.089 185.352H229.899V179.421H251.089C252.371 179.421 253.409 180.46 253.409 181.741V183.032C253.409 184.313 252.37 185.352 251.089 185.352Z" fill="#263238"/>
<path d="M233.564 185.352H188.475C187.283 185.352 186.315 184.385 186.315 183.193V181.58C186.315 180.388 187.283 179.421 188.475 179.421H233.564C234.756 179.421 235.724 180.388 235.724 181.58V183.193C235.724 184.385 234.756 185.352 233.564 185.352Z" fill="black"/>
<path opacity="0.5" d="M233.564 185.352H188.475C187.283 185.352 186.315 184.385 186.315 183.193V181.58C186.315 180.388 187.283 179.421 188.475 179.421H233.564C234.756 179.421 235.724 180.388 235.724 181.58V183.193C235.724 184.385 234.756 185.352 233.564 185.352Z" fill="white"/>
<path d="M223.656 179.421H235.081L227.766 152.097H223.656V179.421Z" fill="#263238"/>
<path d="M233.417 179.421H210.1L207.778 152.097H226.102L233.417 179.421Z" fill="black"/>
<path opacity="0.3" d="M233.417 179.421H210.1L207.778 152.097H226.102L233.417 179.421Z" fill="white"/>
<path d="M292.154 73.5575H281.555L273.349 167.352H283.948C286.167 167.352 288.123 165.553 288.318 163.333L295.821 77.5757C296.014 75.3559 294.373 73.5575 292.154 73.5575Z" fill="#263238"/>
<path d="M281.502 167.351H153.188C150.969 167.351 149.327 165.552 149.521 163.333L157.024 77.5749C157.219 75.3559 159.175 73.5566 161.394 73.5566H289.709C291.928 73.5566 293.569 75.3551 293.375 77.5749L285.872 163.333C285.678 165.552 283.722 167.351 281.502 167.351Z" fill="#263238"/>
<path opacity="0.7" d="M281.502 167.351H153.188C150.969 167.351 149.327 165.552 149.521 163.333L157.024 77.5749C157.219 75.3559 159.175 73.5566 161.394 73.5566H289.709C291.928 73.5566 293.569 75.3551 293.375 77.5749L285.872 163.333C285.678 165.552 283.722 167.351 281.502 167.351Z" fill="white"/>
<path opacity="0.9" d="M278.078 156.405H158.528C156.603 156.405 155.179 154.844 155.347 152.919L161.581 81.6643C161.749 79.7389 163.447 78.1787 165.372 78.1787H284.921C286.846 78.1787 288.27 79.7398 288.102 81.6643L281.868 152.919C281.7 154.844 280.002 156.405 278.078 156.405Z" fill="#FAFAFA"/>
<path d="M246.781 103.337H242.599L243.331 94.9727H247.513L246.781 103.337Z" fill="#FF7120"/>
<path opacity="0.2" d="M246.781 103.337H242.599L243.331 94.9727H247.513L246.781 103.337Z" fill="black"/>
<path d="M255.145 103.338H250.963L252.061 90.792H256.243L255.145 103.338Z" fill="#FF7120"/>
<path d="M263.51 103.337H259.327L260.243 92.8818H264.425L263.51 103.337Z" fill="#FF7120"/>
<path d="M271.874 103.337H267.691L269.155 86.6094H273.337L271.874 103.337Z" fill="#FF7120"/>
<path opacity="0.4" d="M271.874 103.337H267.691L269.155 86.6094H273.337L271.874 103.337Z" fill="black"/>
<path d="M276.056 102.566C263.789 102.566 251.523 102.566 239.257 102.566C239.722 97.2465 240.187 91.9283 240.653 86.6093C240.74 85.6194 239.194 85.6255 239.109 86.6093C238.621 92.185 238.133 97.7616 237.645 103.337C237.608 103.753 238.029 104.11 238.417 104.11C250.964 104.11 263.51 104.11 276.056 104.11C277.049 104.11 277.051 102.566 276.056 102.566Z" fill="#FF7120"/>
<path opacity="0.5" d="M276.056 102.566C263.789 102.566 251.523 102.566 239.257 102.566C239.722 97.2465 240.187 91.9283 240.653 86.6093C240.74 85.6194 239.194 85.6255 239.109 86.6093C238.621 92.185 238.133 97.7616 237.645 103.337C237.608 103.753 238.029 104.11 238.417 104.11C250.964 104.11 263.51 104.11 276.056 104.11C277.049 104.11 277.051 102.566 276.056 102.566Z" fill="white"/>
<path d="M177.788 98.8111L175.062 101.317C176.637 103.043 178.927 104.11 181.561 104.11L181.871 100.565C180.216 100.566 178.777 99.8956 177.788 98.8111Z" fill="#FF7120"/>
<path opacity="0.5" d="M177.788 98.8111L175.062 101.317C176.637 103.043 178.927 104.11 181.561 104.11L181.871 100.565C180.216 100.566 178.777 99.8956 177.788 98.8111Z" fill="black"/>
<path d="M188.386 94.5748C188.097 97.8835 185.18 100.566 181.871 100.566L181.561 104.111C186.827 104.111 191.471 99.8413 191.932 94.5748H188.386Z" fill="#FF7120"/>
<path opacity="0.1" d="M188.386 94.5748C188.097 97.8835 185.18 100.566 181.871 100.566L181.561 104.111C186.827 104.111 191.471 99.8413 191.932 94.5748H188.386Z" fill="black"/>
<path d="M177.788 98.8111C176.799 97.7267 176.259 96.2296 176.403 94.5748H172.858C172.628 97.2081 173.486 99.5925 175.061 101.318L177.788 98.8111Z" fill="#FF7120"/>
<path d="M182.918 88.583C186.227 88.583 188.675 91.2654 188.386 94.574H191.931C192.391 89.3075 188.496 85.0379 183.228 85.0379C177.962 85.0379 173.319 89.3075 172.858 94.574H176.404C176.693 91.2654 179.61 88.583 182.918 88.583Z" fill="#FF7120"/>
<path opacity="0.2" d="M182.918 88.5832C186.227 88.5832 188.675 91.2655 188.386 94.5742H191.931C192.391 89.3077 188.496 85.038 183.228 85.038C177.962 85.038 173.319 89.3077 172.858 94.5742H176.404C176.693 91.2655 179.61 88.5832 182.918 88.5832Z" fill="white"/>
<path opacity="0.6" d="M187.001 90.3387L189.727 87.8324C188.152 86.1067 185.861 85.0389 183.228 85.0389L182.918 88.584C184.573 88.5832 186.012 89.2542 187.001 90.3387Z" fill="white"/>
<path d="M204.349 98.8115L201.623 101.318C203.198 103.043 205.489 104.11 208.122 104.11L208.432 100.565C206.777 100.566 205.338 99.896 204.349 98.8115Z" fill="#FF7120"/>
<path opacity="0.5" d="M204.349 98.8115L201.623 101.318C203.198 103.043 205.489 104.11 208.122 104.11L208.432 100.565C206.777 100.566 205.338 99.896 204.349 98.8115Z" fill="black"/>
<path d="M214.947 94.5752C214.658 97.8838 211.741 100.566 208.431 100.566L208.121 104.111C213.388 104.111 218.031 99.8417 218.492 94.5752H214.947Z" fill="#FF7120"/>
<path opacity="0.1" d="M214.947 94.5752C214.658 97.8838 211.741 100.566 208.431 100.566L208.121 104.111C213.388 104.111 218.031 99.8417 218.492 94.5752H214.947Z" fill="black"/>
<path d="M204.349 98.8115C203.359 97.727 202.82 96.2299 202.965 94.5752H199.42C199.189 97.2084 200.048 99.5929 201.623 101.319L204.349 98.8115Z" fill="#FF7120"/>
<path d="M209.48 88.5832C212.789 88.5832 215.237 91.2655 214.947 94.5742H218.492C218.953 89.3077 215.057 85.038 209.79 85.038C204.523 85.038 199.881 89.3077 199.42 94.5742H202.965C203.254 91.2655 206.171 88.5832 209.48 88.5832Z" fill="#FF7120"/>
<path opacity="0.2" d="M209.48 88.5832C212.789 88.5832 215.237 91.2655 214.947 94.5742H218.492C218.953 89.3077 215.057 85.038 209.79 85.038C204.523 85.038 199.881 89.3077 199.42 94.5742H202.965C203.254 91.2655 206.171 88.5832 209.48 88.5832Z" fill="white"/>
<path opacity="0.6" d="M213.563 90.3388L216.289 87.8326C214.714 86.1069 212.423 85.039 209.79 85.039L209.479 88.5842C211.134 88.5833 212.574 89.2543 213.563 90.3388Z" fill="white"/>
<path d="M244.252 134.364H239.257L239.694 129.373H244.688L244.252 134.364ZM240.439 133.281H243.259L243.506 130.456H240.686L240.439 133.281Z" fill="#FF7120"/>
<path d="M243.587 141.965H238.593L239.029 136.975H244.024L243.587 141.965ZM239.774 140.882H242.594L242.841 138.057H240.021L239.774 140.882Z" fill="#FF7120"/>
<path d="M242.922 149.567H237.927L238.364 144.576H243.359L242.922 149.567ZM239.108 148.485H241.929L242.176 145.66H239.356L239.108 148.485Z" fill="#FF7120"/>
<path d="M247.715 133.2C247.042 133.2 246.545 132.655 246.603 131.982C246.662 131.31 247.255 130.765 247.928 130.765H264.632C265.305 130.765 265.803 131.31 265.744 131.982C265.685 132.655 265.092 133.2 264.419 133.2H247.715Z" fill="#FF7120"/>
<path opacity="0.7" d="M247.715 133.2C247.042 133.2 246.545 132.655 246.603 131.982C246.662 131.31 247.255 130.765 247.928 130.765H264.632C265.305 130.765 265.803 131.31 265.744 131.982C265.685 132.655 265.092 133.2 264.419 133.2H247.715Z" fill="white"/>
<path d="M246.395 148.291C245.722 148.291 245.224 147.746 245.283 147.073C245.342 146.4 245.935 145.855 246.608 145.855H260.605C261.278 145.855 261.775 146.4 261.717 147.073C261.658 147.746 261.065 148.291 260.392 148.291H246.395Z" fill="#FF7120"/>
<path opacity="0.4" d="M246.395 148.291C245.722 148.291 245.224 147.746 245.283 147.073C245.342 146.4 245.935 145.855 246.608 145.855H260.605C261.278 145.855 261.775 146.4 261.717 147.073C261.658 147.746 261.065 148.291 260.392 148.291H246.395Z" fill="white"/>
<path d="M247.06 140.687C246.387 140.687 245.889 140.142 245.948 139.47C246.007 138.797 246.6 138.252 247.273 138.252H260.187C260.86 138.252 261.358 138.797 261.299 139.47C261.24 140.142 260.647 140.687 259.975 140.687H247.06Z" fill="#FF7120"/>
<path opacity="0.2" d="M247.06 140.687C246.387 140.687 245.889 140.142 245.948 139.47C246.007 138.797 246.6 138.252 247.273 138.252H260.187C260.86 138.252 261.358 138.797 261.299 139.47C261.24 140.142 260.647 140.687 259.975 140.687H247.06Z" fill="white"/>
<path d="M230.857 141.597C229.597 139.879 228.338 138.161 227.078 136.442C226.798 136.06 226.22 135.879 225.852 136.284C224.518 137.754 223.183 139.224 221.849 140.694C220.799 138.968 219.75 137.243 218.7 135.517C218.431 135.074 217.847 135.016 217.474 135.359C216.092 136.629 214.74 137.943 213.326 139.177C212.905 138.947 212.496 138.683 212.084 138.439C211.323 137.989 210.561 137.539 209.799 137.089C209.416 136.862 208.97 137.022 208.731 137.369C207.383 139.322 206.035 141.277 204.688 143.231C203.682 141.278 202.676 139.323 201.67 137.369C201.472 136.984 200.957 136.898 200.601 137.089C199.958 137.435 199.315 137.781 198.672 138.127C198.279 138.339 196.954 139 196.581 139.293C196.279 139.017 195.131 138.425 194.903 138.29C194.229 137.889 193.555 137.489 192.881 137.088C192.015 136.573 191.228 137.922 192.093 138.437C193.214 139.102 195.212 140.949 196.531 140.946C197.729 140.944 199.427 139.678 200.685 138.863C201.762 140.955 202.839 143.046 203.915 145.138C204.202 145.696 204.952 145.59 205.264 145.138C206.72 143.027 208.177 140.916 209.633 138.805C210.766 139.475 211.9 140.145 213.033 140.815C213.341 140.997 213.724 140.928 213.98 140.693C215.271 139.505 216.563 138.318 217.854 137.131C218.919 138.883 219.985 140.635 221.05 142.387C221.3 142.798 221.931 142.925 222.276 142.544C223.631 141.052 224.986 139.559 226.342 138.066C227.397 139.506 228.453 140.946 229.508 142.387C230.096 143.187 231.452 142.409 230.857 141.597Z" fill="#FF7120"/>
<path d="M229.589 148.005C217.184 148.005 204.778 148.005 192.373 148.005C192.843 142.626 193.314 137.246 193.785 131.868C193.872 130.867 192.31 130.873 192.223 131.868C191.73 137.507 191.237 143.146 190.742 148.786C190.706 149.207 191.13 149.566 191.523 149.566C204.212 149.566 216.9 149.566 229.589 149.566C230.593 149.566 230.595 148.005 229.589 148.005Z" fill="#FF7120"/>
<path opacity="0.5" d="M229.589 148.005C217.184 148.005 204.778 148.005 192.373 148.005C192.843 142.626 193.314 137.246 193.785 131.868C193.872 130.867 192.31 130.873 192.223 131.868C191.73 137.507 191.237 143.146 190.742 148.786C190.706 149.207 191.13 149.566 191.523 149.566C204.212 149.566 216.9 149.566 229.589 149.566C230.593 149.566 230.595 148.005 229.589 148.005Z" fill="white"/>
<path d="M270.111 125.069H203.688L205.17 108.122H271.594L270.111 125.069Z" fill="#FF7120"/>
<path opacity="0.9" d="M270.111 125.069H203.688L205.17 108.122H271.594L270.111 125.069Z" fill="white"/>
<path d="M271.291 126.361H202.283L203.992 106.831H273L271.291 126.361ZM205.093 123.777H268.934L270.191 109.414H206.35L205.093 123.777Z" fill="#263238"/>
<path d="M218.689 118.869L218.572 120.212H212.972L213.604 112.978H219.07L218.953 114.322H215.15L215.013 115.893H218.37L218.257 117.195H214.899L214.753 118.869H218.689Z" fill="#FF7120"/>
<path d="M224.389 120.212L222.862 117.701L220.927 120.212H219.005L222.003 116.533L219.771 112.979H221.672L223.131 115.325L224.969 112.979H226.777L223.95 116.472L226.319 120.212L224.389 120.212Z" fill="#FF7120"/>
<path d="M228.911 114.342H226.597L226.716 112.978H233.019L232.9 114.342H230.585L230.072 120.212H228.398L228.911 114.342Z" fill="#FF7120"/>
<path d="M237.894 120.211L236.675 118.197H236.592H235.135L234.959 120.211H233.285L233.918 112.978H237.048C237.689 112.978 238.236 113.086 238.689 113.299C239.142 113.513 239.479 113.816 239.7 114.209C239.921 114.602 240.008 115.067 239.96 115.604C239.913 116.141 239.744 116.604 239.451 116.993C239.159 117.382 238.766 117.68 238.272 117.887L239.691 120.211H237.894ZM237.955 114.668C237.712 114.451 237.339 114.342 236.836 114.342H235.473L235.252 116.864H236.616C237.119 116.864 237.51 116.754 237.791 116.533C238.072 116.313 238.23 116.003 238.265 115.604C238.301 115.197 238.198 114.885 237.955 114.668Z" fill="#FF7120"/>
<path d="M245.778 118.662H242.42L241.644 120.211H239.929L243.785 112.978H245.438L248.039 120.211H246.282L245.778 118.662ZM245.363 117.391L244.458 114.622L243.068 117.391H245.363Z" fill="#FF7120"/>
<path d="M250.185 119.855C249.617 119.535 249.188 119.091 248.896 118.523C248.604 117.954 248.49 117.312 248.553 116.596C248.616 115.879 248.843 115.237 249.233 114.669C249.624 114.101 250.131 113.656 250.755 113.336C251.379 113.016 252.063 112.856 252.806 112.856C253.434 112.856 253.991 112.966 254.477 113.186C254.964 113.407 255.362 113.723 255.67 114.138L254.509 115.129C254.069 114.565 253.487 114.282 252.764 114.282C252.317 114.282 251.909 114.379 251.54 114.577C251.172 114.773 250.873 115.047 250.646 115.398C250.419 115.75 250.286 116.149 250.247 116.597C250.207 117.045 250.27 117.444 250.436 117.796C250.602 118.146 250.852 118.42 251.186 118.618C251.52 118.814 251.911 118.912 252.359 118.912C253.082 118.912 253.713 118.626 254.252 118.054L255.24 119.046C254.859 119.466 254.403 119.787 253.875 120.007C253.346 120.228 252.768 120.337 252.142 120.337C251.404 120.335 250.752 120.176 250.185 119.855Z" fill="#FF7120"/>
<path d="M258.204 114.342H255.89L256.009 112.978H262.312L262.192 114.342H259.878L259.365 120.212H257.691L258.204 114.342Z" fill="#FF7120"/>
<path d="M317.456 191.328H137.321V292.044H317.456V191.328Z" fill="#B2B2B2"/>
<path d="M124.022 292.044H140.822V191.328H124.022L124.022 292.044Z" fill="#B2B2B2"/>
<path opacity="0.3" d="M124.022 292.044H140.822V191.328H124.022L124.022 292.044Z" fill="white"/>
<path d="M304.948 191.328H120.496V200.241H304.948V191.328Z" fill="#B2B2B2"/>
<path opacity="0.6" d="M304.948 191.328H120.496V200.241H304.948V191.328Z" fill="white"/>
<path d="M124.023 191.328H116.971V292.044H124.023V191.328Z" fill="#B2B2B2"/>
<path opacity="0.5" d="M124.023 191.328H116.971V292.044H124.023V191.328Z" fill="white"/>
<path d="M309.866 292.044H326.666V191.328H309.866V292.044Z" fill="#B2B2B2"/>
<path opacity="0.3" d="M309.866 292.044H326.666V191.328H309.866V292.044Z" fill="white"/>
<path d="M315.66 193.251H330.898V185.52H315.66V193.251Z" fill="#B2B2B2"/>
<path opacity="0.3" d="M315.66 193.251H330.898V185.52H315.66V193.251Z" fill="white"/>
<path d="M298.006 205.05H221.907V292.044H298.006V205.05Z" fill="#B2B2B2"/>
<path opacity="0.5" d="M298.006 205.05H221.907V292.044H298.006V205.05Z" fill="white"/>
<path d="M302.815 205.05H298.007V292.044H302.815V205.05Z" fill="#B2B2B2"/>
<path opacity="0.2" d="M302.815 205.05H298.007V292.044H302.815V205.05Z" fill="white"/>
<path d="M293.198 233.626H226.715V253.75H293.198V233.626Z" fill="#B2B2B2"/>
<path d="M293.198 209.79H226.715V229.914H293.198V209.79Z" fill="#B2B2B2"/>
<path d="M293.198 257.463H226.715V277.587H293.198V257.463Z" fill="#B2B2B2"/>
<g opacity="0.7">
<path d="M293.198 233.626H226.715V253.75H293.198V233.626Z" fill="white"/>
<path d="M293.198 209.79H226.715V229.914H293.198V209.79Z" fill="white"/>
<path d="M293.198 257.463H226.715V277.587H293.198V257.463Z" fill="white"/>
</g>
<path d="M309.866 191.328H302.814V292.044H309.866V191.328Z" fill="#B2B2B2"/>
<path opacity="0.1" d="M317.456 191.328H137.321V292.044H317.456V191.328Z" fill="white"/>
<path opacity="0.5" d="M309.866 191.328H302.814V292.044H309.866V191.328Z" fill="white"/>
<path d="M315.661 185.52H111.176V193.25H315.661V185.52Z" fill="#B2B2B2"/>
<path opacity="0.6" d="M315.661 185.52H111.176V193.25H315.661V185.52Z" fill="white"/>
<path d="M260.149 217.665C259.724 217.665 258.266 217.665 257.841 217.665C256.633 217.665 255.653 218.644 255.653 219.852C255.653 221.06 256.633 222.04 257.841 222.04C258.266 222.04 259.724 222.04 260.149 222.04C261.357 222.04 262.336 221.06 262.336 219.852C262.336 218.644 261.357 217.665 260.149 217.665Z" fill="#B2B2B2"/>
<path d="M260.149 241.501C259.724 241.501 258.266 241.501 257.841 241.501C256.633 241.501 255.653 242.48 255.653 243.688C255.653 244.896 256.633 245.876 257.841 245.876C258.266 245.876 259.724 245.876 260.149 245.876C261.357 245.876 262.336 244.896 262.336 243.688C262.336 242.48 261.357 241.501 260.149 241.501Z" fill="#B2B2B2"/>
<path d="M260.149 265.338C259.724 265.338 258.266 265.338 257.841 265.338C256.633 265.338 255.653 266.317 255.653 267.525C255.653 268.733 256.633 269.713 257.841 269.713C258.266 269.713 259.724 269.713 260.149 269.713C261.357 269.713 262.336 268.733 262.336 267.525C262.336 266.317 261.357 265.338 260.149 265.338Z" fill="#B2B2B2"/>
<path opacity="0.3" d="M260.029 219.852C260.029 221.06 259.05 222.04 257.842 222.04C256.634 222.04 255.654 221.06 255.654 219.852C255.654 218.644 256.634 217.665 257.842 217.665C259.05 217.665 260.029 218.644 260.029 219.852Z" fill="#FAFAFA"/>
<path opacity="0.3" d="M260.029 243.688C260.029 244.896 259.05 245.876 257.842 245.876C256.634 245.876 255.654 244.896 255.654 243.688C255.654 242.48 256.634 241.501 257.842 241.501C259.05 241.501 260.029 242.48 260.029 243.688Z" fill="#FAFAFA"/>
<path opacity="0.3" d="M260.029 267.525C260.029 268.733 259.05 269.713 257.842 269.713C256.634 269.713 255.654 268.733 255.654 267.525C255.654 266.317 256.634 265.338 257.842 265.338C259.05 265.338 260.029 266.317 260.029 267.525Z" fill="#FAFAFA"/>
<path d="M183.383 97.4075C182.132 99.1762 184.891 104.804 184.891 104.804L172.46 106.309L174.893 92.7568C174.893 92.7568 184.859 95.32 183.383 97.4075Z" fill="#CE7A63"/>
<path opacity="0.2" d="M183.185 99.9418C182.993 98.9107 182.986 97.9655 183.382 97.4066C184.3 96.1093 180.797 94.628 178.014 93.6924C178.671 95.0099 180.53 98.3431 183.185 99.9418Z" fill="black"/>
<path d="M213.333 282.569L214.657 295.218L208.823 296.313L205.316 284.104L213.333 282.569Z" fill="#CE7A63"/>
<path d="M214.528 293.055L207.67 294.429C207.411 294.481 207.223 294.705 207.217 294.969L207.095 300.797C207.08 301.314 207.488 301.745 208.004 301.76C208.071 301.762 208.138 301.756 208.202 301.744C210.666 301.206 212.837 300.63 215.916 300.018C219.549 299.291 218.714 299.91 222.997 299.115C225.577 298.633 225.462 295.615 224.342 295.689C219.222 296.061 218.402 294.657 216.118 293.256C215.63 292.995 215.064 292.925 214.528 293.055Z" fill="#263238"/>
<path opacity="0.2" d="M207.633 292.169L214.246 291.297L213.333 282.569L205.316 284.104L207.633 292.169Z" fill="black"/>
<path d="M162.87 280.007L158.898 295.687L153.297 294.899L154.785 279.557L162.87 280.007Z" fill="#CE7A63"/>
<path d="M159.639 293.717L152.662 293.226C152.399 293.207 152.158 293.373 152.083 293.626L150.422 299.214C150.271 299.709 150.55 300.232 151.044 300.383C151.108 300.402 151.172 300.414 151.239 300.42C153.758 300.554 156.004 300.574 159.135 300.798C162.831 301.059 161.862 301.436 166.202 301.804C168.818 302.023 169.506 299.081 168.406 298.856C163.371 297.859 162.951 296.287 161.119 294.331C160.717 293.952 160.191 293.733 159.639 293.717Z" fill="#263238"/>
<path opacity="0.2" d="M153.643 291.336L159.763 292.274L162.69 280.717C160.006 280.432 155.612 279.991 154.752 279.905L153.643 291.336Z" fill="black"/>
<path d="M168.927 159.971C168.927 159.971 166.996 165.576 166.715 179.221C166.548 187.374 165.751 200.281 165.137 209.35C164.957 212.002 164.793 214.327 164.665 216.107C164.502 218.371 163.963 220.585 163.104 222.675C162.507 224.129 161.758 226.121 160.986 228.606C159.758 232.559 158.469 237.762 157.631 244.035C155.59 259.32 153.244 288.929 153.244 288.929L160.808 289.91L179.428 220.907L199.271 159.919L168.927 159.971Z" fill="#263238"/>
<path opacity="0.2" d="M188.683 192.872L187.881 186.866L181.388 181.377L179.205 180.302C179.205 180.302 184.261 193.065 182.994 209.772L188.683 192.872Z" fill="black"/>
<path d="M205.216 160.247L214.32 288.41L206.614 289.72C206.614 289.72 196.307 254.254 194.565 234.648C194.356 232.306 194.271 230.191 194.339 228.389C194.44 225.718 194.048 223.054 193.294 220.503L192.212 216.843L186.139 196.291C184.864 191.977 182.884 187.902 180.127 184.424C176.969 180.44 173.062 172.719 174.683 159.875L203.199 157.9L205.216 160.247Z" fill="#263238"/>
<path d="M176.714 152.155C176.714 152.155 181.142 151.248 182.626 151.388C183.867 151.505 187.366 152.944 187.366 152.944C188.844 153.429 189.257 155.324 188.115 156.38C188.115 156.38 185.682 159.497 184.467 159.754C182.042 160.268 175.085 156.546 175.085 156.546L176.714 152.155Z" fill="#CE7A63"/>
<path d="M176.497 150.035L174.038 157.965L176.397 158.161L178.561 151.233L176.497 150.035Z" fill="#263238"/>
<path opacity="0.2" d="M176.497 150.035L174.038 157.965L176.397 158.161L178.561 151.233L176.497 150.035Z" fill="white"/>
<path d="M161.939 112.264C160.811 110.717 158.397 111.039 157.585 112.773C154.826 118.676 147.859 134.33 147.832 141.928C147.798 151.404 175.646 157.011 175.646 157.011L177.329 151.566L158.167 139.795L163.679 126.808C163.679 126.808 165.05 116.525 161.939 112.264Z" fill="#FF7120"/>
<path opacity="0.1" d="M161.939 112.264C160.811 110.717 158.397 111.039 157.585 112.773C154.826 118.676 147.859 134.33 147.832 141.928C147.798 151.404 175.646 157.011 175.646 157.011L177.329 151.566L158.167 139.795L163.679 126.808C163.679 126.808 165.05 116.525 161.939 112.264Z" fill="black"/>
<g opacity="0.4">
<path d="M162.508 113.204L159.505 113.617L157.778 114.854L159.837 135.86L163.679 126.808C163.679 126.808 164.87 117.867 162.508 113.204Z" fill="black"/>
<path d="M168.31 146.025L160.355 141.138L161.512 152.94C163.174 153.564 164.836 154.119 166.412 154.605L168.31 146.025Z" fill="black"/>
</g>
<path d="M204.796 160.179C204.796 160.179 191.085 164.665 168.628 161.033C168.628 161.033 168.628 161.033 157.866 115.663C157.061 112.272 158.767 108.738 161.82 107.053C166.442 104.501 175.584 102.096 193.62 103.093C198.069 103.338 201.831 106.492 202.852 110.829L204.796 160.179Z" fill="#FF7120"/>
<path d="M168.784 105.008L170.155 101.791C170.155 101.791 175.554 99.0636 184.725 100.348L186.902 102.869C186.902 102.869 176.641 103.119 168.784 105.008Z" fill="#263238"/>
<path d="M189.877 81.4496C190.001 81.9612 189.831 82.4386 189.488 82.5157C189.146 82.5928 188.739 82.2249 188.633 81.7247C188.526 81.2245 188.68 80.7357 189.024 80.6639C189.369 80.5912 189.748 80.9407 189.877 81.4496Z" fill="#263238"/>
<path d="M189.414 82.996L192.916 86.4194C192.916 86.4194 191.792 87.6791 189.753 87.4189L189.414 82.996Z" fill="#BA4D3C"/>
<path d="M169.44 83.7363C170.781 90.6015 171.198 93.5405 175.237 96.6696C181.174 99.6401 189.661 98.3305 190.444 91.2217C191.152 84.8252 188.846 74.6969 181.544 72.7224C176.339 71.3173 170.982 74.2895 169.58 79.3616C169.187 80.7868 169.139 82.2848 169.44 83.7363Z" fill="#CE7A63"/>
<path d="M187.298 79.8379C187.392 79.8388 187.48 79.7941 187.532 79.7179C187.901 79.1292 188.539 78.7587 189.245 78.721C189.398 78.7245 189.523 78.6054 189.525 78.4547C189.523 78.3023 189.398 78.177 189.244 78.1709C188.348 78.1989 187.533 78.6588 187.063 79.4025C186.978 79.5287 187.013 79.7013 187.143 79.788L187.144 79.7889C187.19 79.8195 187.243 79.8362 187.298 79.8379Z" fill="#263238"/>
<path opacity="0.4" d="M204.341 137.827L203.424 121.209L197.484 113.347L194.232 110.336L191.727 112.091C191.727 112.091 192.075 121.249 204.341 137.827Z" fill="black"/>
<path d="M206.273 114.208C209.563 120.253 210.838 123.826 211.966 125.326C212.115 125.526 212.361 125.626 212.609 125.59L231.837 122.797C232.166 122.749 232.481 122.946 232.585 123.262L234.134 128.024C234.249 128.38 234.057 128.763 233.703 128.883L215.675 134.993C212.411 136.261 208.705 135.624 206.077 133.309C201.111 128.937 197.297 124.079 193.823 117.214C192.438 114.478 189.225 109.419 194.502 104.968C198.882 101.276 204.09 110.197 206.273 114.208Z" fill="#FF7120"/>
<path opacity="0.1" d="M206.273 114.208C209.563 120.253 210.838 123.826 211.966 125.326C212.115 125.526 212.361 125.626 212.609 125.59L231.837 122.797C232.166 122.749 232.481 122.946 232.585 123.262L234.134 128.024C234.249 128.38 234.057 128.763 233.703 128.883L215.675 134.993C212.411 136.261 208.705 135.624 206.077 133.309C201.111 128.937 197.297 124.079 193.823 117.214C192.438 114.478 189.225 109.419 194.502 104.968C198.882 101.276 204.09 110.197 206.273 114.208Z" fill="white"/>
<path d="M232.39 123.252L236.355 118.595C236.786 118.089 237.355 117.72 237.994 117.535L247.32 114.823C247.635 114.731 247.972 114.878 248.12 115.17C248.3 115.526 248.138 115.96 247.769 116.112L243.915 117.69C243.639 117.803 243.468 118.081 243.493 118.377L243.684 120.708C243.8 122.137 243.008 123.486 241.704 124.08L238.9 125.356C238.791 125.399 238.683 125.441 238.575 125.484L233.764 127.101C233.381 127.23 232.971 127.001 232.881 126.607L232.246 123.848C232.196 123.638 232.25 123.416 232.39 123.252Z" fill="#CE7A63"/>
<path d="M231.238 122.771L233.613 128.768C233.76 129.137 234.191 129.305 234.548 129.13L235.336 128.746C235.657 128.59 235.803 128.213 235.673 127.881L233.408 122.132C233.291 121.835 232.984 121.659 232.668 121.707L231.769 121.845C231.336 121.911 231.077 122.363 231.238 122.771Z" fill="#263238"/>
<path d="M205.106 287.896L206.302 291.063L215.384 289.659L215.131 286.293L205.106 287.896Z" fill="#FF7120"/>
<path opacity="0.2" d="M205.106 287.896L206.302 291.063L215.384 289.659L215.131 286.293L205.106 287.896Z" fill="black"/>
<path d="M152.436 286.62L152.293 289.946L161.402 291.163L162.11 287.862L152.436 286.62Z" fill="#FF7120"/>
<path opacity="0.2" d="M152.436 286.62L152.293 289.946L161.402 291.163L162.11 287.862L152.436 286.62Z" fill="black"/>
<path d="M174.139 96.8756C174.139 96.8756 175.158 95.4302 178.225 97.1025C178.225 97.1025 182.577 92.2302 182.712 87.6671C182.712 87.6671 185.927 87.0723 185.658 84.9944C185.388 82.9166 183.858 80.2001 184.182 78.3167C184.506 76.4342 187.631 71.4891 184.975 69.2948C182.319 67.1004 182.006 69.7152 180.503 69.9964C178.998 70.2785 169.915 70.6026 168.754 77.0333C168.754 77.0333 164.175 81.8119 168.147 87.9544C172.118 94.0978 174.139 96.8756 174.139 96.8756Z" fill="#263238"/>
<path d="M182.85 83.3808L190.798 78.9648C190.798 78.9648 192.797 84.1657 191.838 84.4276C190.88 84.6895 189.62 80.6065 189.62 80.6065L183.961 83.3054L182.85 83.3808Z" fill="#FF7120"/>
<path opacity="0.7" d="M189.819 80.7441L190.422 80.3867C190.422 80.3867 192.064 84.0624 191.613 84.3865C191.161 84.7098 189.819 80.7441 189.819 80.7441Z" fill="white"/>
<path d="M183.932 83.5404C185.141 84.3481 185.975 85.5911 186.248 86.9936C186.597 88.8569 184.843 89.6181 183.136 88.9585C181.589 88.3619 179.563 86.673 179.991 84.8658C180.417 83.0595 182.441 82.5689 183.932 83.5404Z" fill="#CE7A63"/>
</g>
<defs>
<clipPath id="clip0_83_1532">
<rect width="438" height="333" fill="white"/>
</clipPath>
</defs>
</svg>
