<svg width="351" height="350" viewBox="0 0 351 350" fill="none" xmlns="http://www.w3.org/2000/svg">
<path d="M37.5474 165.951L38.869 190.256C38.9159 191.122 39.6285 191.802 40.4958 191.808L84.2325 192.129C85.139 192.136 85.8789 191.406 85.8852 190.5L86.0238 171.58C86.0301 170.67 85.2951 169.928 84.3844 169.928L57.4855 169.904C57.0508 169.903 56.6343 169.731 56.327 169.424L51.686 164.785C51.3815 164.48 50.9692 164.307 50.538 164.304L39.198 164.22C38.2523 164.214 37.4963 165.006 37.5474 165.951Z" fill="#EBEBEB"/>
<path d="M86.0663 167.071L38.2773 166.722L38.0689 195.278L85.8579 195.627L86.0663 167.071Z" fill="#F5F5F5"/>
<path d="M34.4466 169.254L37.8773 199.06C37.9382 199.59 38.3848 199.99 38.9175 199.994L85.4892 200.335C86.0401 200.339 86.5014 199.919 86.5483 199.371L89.111 169.609C89.1635 168.996 88.6826 168.468 88.0673 168.463L35.5022 168.078C34.8687 168.074 34.3738 168.624 34.4466 169.254Z" fill="#EBEBEB"/>
<path d="M236.121 170.143L237.259 191.072C237.299 191.817 237.913 192.402 238.659 192.408L276.319 192.684C277.1 192.689 277.737 192.061 277.743 191.281L277.862 174.99C277.867 174.206 277.234 173.567 276.45 173.567L253.288 173.546C252.914 173.546 252.555 173.397 252.291 173.133L248.294 169.138C248.032 168.876 247.677 168.728 247.306 168.725L237.542 168.653C236.728 168.647 236.077 169.33 236.121 170.143Z" fill="#EBEBEB"/>
<path d="M277.9 171.104L236.75 170.803L236.571 195.392L277.72 195.693L277.9 171.104Z" fill="#F5F5F5"/>
<path d="M233.455 172.986L236.409 198.65C236.462 199.107 236.846 199.452 237.305 199.455L277.407 199.749C277.881 199.753 278.278 199.391 278.319 198.918L280.526 173.292C280.572 172.764 280.157 172.309 279.627 172.306L234.365 171.974C233.819 171.97 233.393 172.444 233.455 172.986Z" fill="#EBEBEB"/>
<path d="M311.312 32.9997H244.387V143.781H311.312V32.9997Z" fill="#E0E0E0"/>
<path d="M309.084 32.9997H242.158V143.781H309.084V32.9997Z" fill="#EBEBEB"/>
<path d="M306.236 35.2467H245.01V141.535H306.236V35.2467Z" fill="white"/>
<path d="M294.311 49.062H256.662V127.727H294.311V49.062Z" fill="#EBEBEB"/>
<path d="M256.663 99.8863C256.576 92.5377 263.183 85.3641 270.46 84.3379C273.93 83.8486 277.617 84.5374 280.859 83.2081C286.646 80.8351 288.488 73.1456 294.312 70.865L294.578 127.723H256.664V99.8863H256.663Z" fill="#E0E0E0"/>
<path d="M307.446 174.935C307.446 174.935 301.903 174.536 302.413 186.97C302.923 199.405 304.192 206.029 304.192 206.029C304.192 206.029 304.029 208.786 301.894 208.245C299.758 207.704 295.741 205.021 293.758 207.026C291.7 209.107 292.432 212.297 295.161 216.055C297.89 219.814 303.567 228.267 304.078 229.033C304.58 229.785 304.78 231.196 303.267 231.06C301.753 230.924 291.536 227.461 290.183 232.408C288.83 237.354 298.154 246.575 299.154 247.602C300.153 248.63 300.207 249.279 299.802 249.9C299.396 250.522 296.072 249.035 293.125 248.169C290.179 247.303 286.611 246.816 286.069 249.735C285.528 252.654 289.635 261.197 305.014 270.176L312.412 273.87L319.415 269.403C333.818 258.931 337.05 250.02 336.219 247.17C335.388 244.319 331.887 245.161 329.042 246.317C326.197 247.474 323.038 249.286 322.572 248.708C322.107 248.13 322.096 247.48 322.987 246.357C323.88 245.235 332.234 235.128 330.393 230.342C328.552 225.555 318.733 230.023 317.24 230.31C315.747 230.596 315.807 229.172 316.23 228.373C316.662 227.56 321.465 218.581 323.804 214.569C326.144 210.556 326.553 207.309 324.297 205.445C322.122 203.647 318.394 206.719 316.323 207.471C314.253 208.223 313.815 205.497 313.815 205.497C313.815 205.497 314.415 198.78 313.679 186.357C312.942 173.933 307.334 174.936 307.334 174.936" fill="#EBEBEB"/>
<path d="M307.877 186.071C307.877 186.071 307.891 186.159 307.907 186.331C307.921 186.515 307.94 186.769 307.966 187.094C308.012 187.779 308.079 188.766 308.165 190.031C308.334 192.581 308.553 196.273 308.805 200.836C309.312 209.962 309.905 222.574 310.514 236.506C311.122 250.442 311.683 263.055 312.14 272.183C312.371 276.738 312.559 280.427 312.689 282.992C312.752 284.258 312.801 285.246 312.835 285.931C312.849 286.258 312.859 286.512 312.866 286.696C312.872 286.868 312.867 286.957 312.867 286.957C312.867 286.957 312.852 286.869 312.838 286.697C312.824 286.513 312.804 286.26 312.779 285.934C312.733 285.25 312.665 284.263 312.58 282.998C312.41 280.448 312.192 276.756 311.94 272.194C311.433 263.068 310.84 250.454 310.231 236.518C309.623 222.587 309.062 209.974 308.606 200.847C308.374 196.293 308.187 192.603 308.056 190.038C307.993 188.771 307.944 187.784 307.91 187.098C307.896 186.772 307.886 186.518 307.879 186.333C307.872 186.16 307.877 186.071 307.877 186.071Z" fill="#E0E0E0"/>
<path d="M299.224 211.003C299.238 210.989 299.401 211.126 299.684 211.386C299.969 211.644 300.369 212.031 300.858 212.514C301.835 213.481 303.148 214.852 304.568 216.392C305.958 217.913 307.215 219.287 308.186 220.351C308.618 220.82 308.986 221.218 309.288 221.546C309.549 221.827 309.687 221.989 309.673 222.003C309.66 222.017 309.495 221.882 309.21 221.624C308.926 221.364 308.526 220.978 308.042 220.49C307.074 219.513 305.78 218.125 304.36 216.585C302.96 215.075 301.693 213.71 300.714 212.654C300.279 212.187 299.91 211.79 299.606 211.464C299.347 211.181 299.21 211.017 299.224 211.003Z" fill="#E0E0E0"/>
<path d="M310.407 221.764C310.351 221.709 313.057 218.876 316.449 215.436C319.843 211.996 322.639 209.251 322.694 209.306C322.749 209.361 320.045 212.194 316.651 215.635C313.259 219.075 310.462 221.819 310.407 221.764Z" fill="#E0E0E0"/>
<path d="M310.375 243.197C310.366 243.18 310.55 243.064 310.891 242.869C311.286 242.647 311.77 242.376 312.338 242.057C313.559 241.371 315.242 240.418 317.062 239.299C318.885 238.185 320.499 237.119 321.663 236.34C322.205 235.978 322.667 235.671 323.043 235.42C323.371 235.204 323.558 235.093 323.569 235.108C323.58 235.124 323.416 235.266 323.108 235.509C322.799 235.752 322.346 236.094 321.777 236.505C320.64 237.328 319.038 238.423 317.209 239.541C315.385 240.663 313.68 241.591 312.433 242.234C311.808 242.552 311.299 242.804 310.942 242.967C310.585 243.132 310.384 243.215 310.375 243.197Z" fill="#E0E0E0"/>
<path d="M298.12 235.697C298.129 235.68 298.311 235.766 298.631 235.937C298.951 236.107 299.41 236.362 299.973 236.682C301.099 237.322 302.645 238.223 304.343 239.233C306.042 240.243 307.572 241.172 308.672 241.856C309.222 242.198 309.665 242.479 309.967 242.678C310.27 242.878 310.432 242.996 310.422 243.013C310.412 243.03 310.23 242.944 309.91 242.773C309.591 242.602 309.132 242.347 308.569 242.027C307.443 241.388 305.897 240.486 304.198 239.476C302.5 238.466 300.969 237.538 299.87 236.854C299.319 236.511 298.877 236.231 298.575 236.031C298.272 235.832 298.109 235.713 298.12 235.697Z" fill="#E0E0E0"/>
<path d="M295.688 254.62C295.698 254.603 295.929 254.716 296.339 254.935C296.795 255.186 297.372 255.505 298.061 255.885C299.508 256.698 301.499 257.837 303.688 259.111C305.878 260.385 307.852 261.553 309.274 262.41C309.945 262.821 310.507 263.165 310.951 263.437C311.343 263.685 311.555 263.831 311.546 263.848C311.536 263.864 311.305 263.752 310.895 263.533C310.439 263.281 309.861 262.963 309.173 262.583C307.725 261.77 305.735 260.63 303.545 259.356C301.356 258.082 299.381 256.915 297.959 256.059C297.289 255.648 296.727 255.303 296.283 255.031C295.891 254.782 295.678 254.637 295.688 254.62Z" fill="#E0E0E0"/>
<path d="M311.227 263.521C311.217 263.505 311.447 263.352 311.87 263.09C312.341 262.804 312.945 262.436 313.668 261.995C315.186 261.071 317.278 259.786 319.548 258.305C321.822 256.827 323.845 255.436 325.303 254.42C325.999 253.936 326.58 253.533 327.032 253.219C327.442 252.937 327.674 252.789 327.686 252.804C327.698 252.82 327.488 252.998 327.097 253.308C326.707 253.617 326.135 254.055 325.419 254.583C323.989 255.642 321.98 257.062 319.702 258.543C317.428 260.027 315.315 261.286 313.769 262.168C312.995 262.607 312.365 262.956 311.924 263.186C311.484 263.419 311.237 263.539 311.227 263.521Z" fill="#E0E0E0"/>
<path d="M322.347 276.289H301.879L308.56 326.858H315.667L322.347 276.289Z" fill="#E0E0E0"/>
<path d="M302.937 282.505C302.929 282.509 302.959 282.576 303.046 282.684C303.133 282.792 303.294 282.932 303.539 283.038C304.025 283.249 304.877 283.266 305.701 282.773C306.528 282.317 307.247 281.421 308.355 281.025C309.454 280.606 310.815 280.681 312.119 281.1C313.439 281.508 314.585 282.176 315.624 282.799C316.665 283.418 317.619 283.97 318.475 284.328C319.324 284.699 320.064 284.87 320.577 284.936C320.834 284.97 321.034 284.98 321.17 284.976C321.306 284.976 321.378 284.97 321.378 284.958C321.39 284.892 320.22 284.901 318.571 284.112C317.745 283.734 316.816 283.169 315.783 282.535C314.756 281.9 313.582 281.203 312.219 280.781C310.872 280.348 309.424 280.269 308.246 280.738C307.658 280.962 307.163 281.314 306.751 281.662C306.333 282.008 305.959 282.334 305.579 282.57C304.831 283.054 304.044 283.074 303.586 282.916C303.114 282.752 302.963 282.476 302.937 282.505Z" fill="#F5F5F5"/>
<path d="M303.686 291.817C303.713 291.834 303.848 291.608 304.168 291.275C304.493 290.95 305.028 290.525 305.802 290.238C306.57 289.943 307.557 289.768 308.649 289.809C309.745 289.847 310.94 290.088 312.21 290.295C313.479 290.508 314.735 290.603 315.857 290.446C316.979 290.302 317.954 289.979 318.727 289.627C319.501 289.273 320.075 288.886 320.452 288.601C320.83 288.315 321.01 288.122 320.999 288.109C320.96 288.054 320.17 288.762 318.632 289.41C317.865 289.727 316.91 290.018 315.82 290.141C314.73 290.276 313.523 290.176 312.263 289.965C311.003 289.76 309.789 289.524 308.658 289.502C307.525 289.477 306.504 289.683 305.714 290.019C304.916 290.348 304.377 290.825 304.071 291.188C303.924 291.377 303.817 291.528 303.762 291.641C303.702 291.751 303.676 291.811 303.686 291.817Z" fill="#F5F5F5"/>
<path d="M320.028 296.803C320.035 296.787 319.846 296.66 319.464 296.51C319.083 296.359 318.501 296.205 317.767 296.146C317.034 296.088 316.156 296.135 315.203 296.293C314.248 296.448 313.225 296.712 312.15 296.94C311.076 297.166 310.04 297.318 309.102 297.284C308.164 297.251 307.33 297.046 306.682 296.761C305.365 296.182 304.896 295.341 304.847 295.394C304.834 295.402 304.927 295.613 305.193 295.928C305.457 296.243 305.918 296.646 306.583 296.975C307.247 297.302 308.112 297.54 309.089 297.591C310.067 297.645 311.133 297.496 312.219 297.267C313.306 297.036 314.321 296.765 315.255 296.597C316.188 296.425 317.041 296.356 317.754 296.383C319.191 296.429 320.007 296.864 320.028 296.803Z" fill="#F5F5F5"/>
<path d="M305.497 303.813C305.506 303.867 306.227 303.357 307.484 303.613C308.1 303.724 308.789 304.036 309.563 304.388C310.334 304.747 311.264 305.055 312.261 305.132C314.272 305.325 316.061 304.675 317.158 303.997C317.72 303.664 318.111 303.305 318.377 303.06C318.626 302.794 318.753 302.642 318.737 302.626C318.692 302.577 318.155 303.182 317.04 303.793C315.944 304.399 314.217 304.985 312.291 304.799C310.354 304.689 308.866 303.533 307.523 303.38C306.868 303.282 306.32 303.376 305.979 303.514C305.633 303.648 305.487 303.801 305.497 303.813Z" fill="#F5F5F5"/>
<path d="M306.637 313.521C306.637 313.559 307.323 313.554 308.343 313.182C309.372 312.838 310.646 312.049 312.133 311.458C312.879 311.174 313.628 310.999 314.308 311.003C314.989 311.006 315.597 311.172 316.057 311.402C316.997 311.87 317.269 312.535 317.321 312.493C317.336 312.487 317.294 312.319 317.127 312.062C316.962 311.805 316.648 311.47 316.168 311.194C315.689 310.92 315.044 310.716 314.312 310.695C313.578 310.674 312.787 310.852 312.014 311.147C310.473 311.761 309.24 312.573 308.257 312.963C307.286 313.381 306.629 313.467 306.637 313.521Z" fill="#F5F5F5"/>
<path d="M307.639 318.038C307.628 318.08 308.118 318.257 308.935 318.459C309.75 318.662 310.895 318.878 312.174 319.005C313.453 319.129 314.619 319.14 315.459 319.1C316.299 319.061 316.814 318.983 316.812 318.94C316.807 318.839 314.738 318.927 312.207 318.672C309.676 318.43 307.663 317.941 307.639 318.038Z" fill="#F5F5F5"/>
<path d="M93.9548 45.125H27.0586V142.088H93.9548V45.125Z" fill="#E0E0E0"/>
<path d="M90.6052 45.125H23.709V142.088H90.6052V45.125Z" fill="#F5F5F5"/>
<path d="M82.2935 55.6205H32.0195V131.58H82.2935V55.6205Z" fill="white"/>
<path d="M82.2932 131.582C82.2932 131.582 82.2869 131.453 82.2834 131.21C82.2813 130.96 82.2778 130.601 82.2736 130.133C82.2687 129.178 82.2624 127.781 82.2533 125.967C82.2428 122.326 82.2274 117.021 82.2085 110.32C82.1882 96.925 82.1602 77.9578 82.1266 55.6222L82.2932 55.7888C66.9338 55.7937 49.914 55.7986 32.0255 55.8035H32.0192L32.2012 55.6215C32.1872 84.2767 32.1746 110.697 32.1641 131.581L32.0192 131.436C47.3296 131.469 59.8792 131.495 68.6117 131.513C72.9797 131.529 76.3915 131.541 78.7211 131.55C79.8789 131.557 80.7665 131.562 81.3748 131.566C81.9761 131.572 82.2932 131.582 82.2932 131.582C82.2932 131.582 81.9971 131.593 81.4063 131.597C80.8043 131.601 79.9258 131.607 78.7799 131.614C76.4573 131.622 73.0567 131.635 68.7027 131.651C59.9485 131.669 47.3681 131.695 32.0199 131.727H31.875V131.581C31.8645 110.697 31.8519 84.2767 31.8379 55.6215V55.4395H32.0199H32.0262C49.9147 55.4451 66.9345 55.45 82.2939 55.4542H82.4612V55.6208C82.4276 78.0019 82.3989 97.0069 82.3793 110.428C82.3604 117.114 82.345 122.406 82.3345 126.037C82.3261 127.837 82.3191 129.223 82.3142 130.17C82.31 130.631 82.3065 130.982 82.3044 131.229C82.2995 131.467 82.2932 131.582 82.2932 131.582Z" fill="#E0E0E0"/>
<path d="M90.7935 45.1193C90.8327 45.1494 90.3784 45.8123 89.6014 46.8518C88.8244 47.8913 87.7212 49.3046 86.4626 50.8334C85.2033 52.3622 84.0273 53.7153 83.1558 54.6771C82.285 55.6389 81.7215 56.2115 81.6837 56.1793C81.6452 56.1457 82.1401 55.5136 82.9605 54.5091C83.8572 53.4213 84.9611 52.0822 86.1812 50.6017C87.4006 49.1205 88.5024 47.7814 89.3991 46.6922C90.2272 45.6954 90.7536 45.0885 90.7935 45.1193Z" fill="#E0E0E0"/>
<path d="M82.5488 131.342C85.0457 135.312 87.9934 138.999 91.3177 142.308L82.5488 131.342Z" fill="white"/>
<path d="M91.3127 142.307C91.2798 142.341 90.6827 141.823 89.7839 140.916C88.8851 140.01 87.6937 138.707 86.4764 137.186C85.2598 135.663 84.2497 134.214 83.5644 133.138C82.8784 132.062 82.5046 131.365 82.5438 131.341C82.5893 131.312 83.0394 131.959 83.7772 132.994C84.5143 134.029 85.551 135.444 86.7606 136.958C87.9709 138.47 89.1238 139.793 89.9715 140.74C90.8185 141.688 91.3505 142.269 91.3127 142.307Z" fill="#E0E0E0"/>
<path d="M23.6973 142.007C26.6184 138.404 29.5388 134.8 32.4599 131.197L23.6973 142.007Z" fill="white"/>
<path d="M32.4544 131.199C32.5321 131.262 30.6337 133.734 28.2145 136.719C25.7946 139.705 23.7695 142.073 23.6918 142.01C23.6141 141.947 25.5118 139.476 27.9317 136.49C30.3509 133.505 32.376 131.136 32.4544 131.199Z" fill="#E0E0E0"/>
<path d="M23.7018 45.1203C23.7809 45.058 25.6849 47.3344 27.955 50.2044C30.2258 53.0751 32.0017 55.4523 31.9226 55.5146C31.8435 55.5769 29.9395 53.3012 27.6694 50.4298C25.3993 47.5605 23.6227 45.1826 23.7018 45.1203Z" fill="#E0E0E0"/>
<path d="M66.6305 71.0485H49.7969V118.844H66.6305V71.0485Z" fill="#E0E0E0"/>
<path d="M177.806 28.9014H125.227V83.7114H177.806V28.9014Z" fill="#E0E0E0"/>
<path d="M174.244 28.9015H121.664V83.7115H174.244V28.9015Z" fill="#FAFAFA"/>
<path d="M174.267 83.7241H121.654V28.8812H174.267V83.7241ZM121.687 83.6912H174.234V28.9134H121.687V83.6912Z" fill="#E0E0E0"/>
<path d="M167.18 36.2689H128.736V76.3425H167.18V36.2689Z" fill="white"/>
<path d="M128.737 76.6181C128.768 76.6538 128.403 77.0731 127.789 77.7213C127.175 78.3688 126.313 79.2459 125.345 80.1986C124.378 81.1513 123.489 82.0004 122.834 82.6024C122.178 83.2044 121.756 83.5614 121.723 83.5278C121.69 83.4942 122.052 83.077 122.666 82.4295C123.28 81.782 124.145 80.9028 125.116 79.9473C126.086 78.9918 126.976 78.1413 127.631 77.5393C128.287 76.9366 128.707 76.5824 128.737 76.6181Z" fill="#E0E0E0"/>
<path d="M167.18 76.51C167.216 76.4799 167.635 76.8446 168.283 77.4585C168.931 78.0724 169.808 78.9355 170.761 79.9022C171.713 80.8696 172.562 81.7586 173.164 82.4138C173.767 83.0697 174.124 83.4918 174.09 83.5247C174.056 83.5576 173.639 83.195 172.992 82.5811C172.344 81.9672 171.465 81.102 170.509 80.1318C169.555 79.1623 168.703 78.2712 168.101 77.616C167.499 76.9601 167.144 76.5401 167.18 76.51Z" fill="#E0E0E0"/>
<path d="M167.078 36.3767C167.048 36.341 167.412 35.9217 168.026 35.2735C168.64 34.6253 169.503 33.7489 170.47 32.7962C171.437 31.8428 172.326 30.9944 172.982 30.3917C173.638 29.789 174.06 29.4327 174.093 29.4663C174.125 29.4999 173.763 29.9164 173.149 30.5646C172.535 31.2121 171.67 32.0913 170.7 33.0468C169.73 34.0023 168.839 34.8528 168.183 35.4548C167.529 36.0582 167.108 36.4124 167.078 36.3767Z" fill="#E0E0E0"/>
<path d="M128.633 36.4845C128.597 36.5146 128.178 36.1499 127.529 35.536C126.881 34.9221 126.005 34.059 125.052 33.0923C124.099 32.1249 123.25 31.2359 122.648 30.5807C122.046 29.9248 121.689 29.5027 121.723 29.4698C121.756 29.4362 122.173 29.7995 122.821 30.4134C123.469 31.0273 124.348 31.8925 125.303 32.8627C126.259 33.8329 127.109 34.7233 127.711 35.3792C128.314 36.0344 128.668 36.4544 128.633 36.4845Z" fill="#E0E0E0"/>
<path d="M167.073 76.3524C167.07 76.3496 167.067 76.2838 167.064 76.1578C167.062 76.0213 167.06 75.8372 167.056 75.5985C167.052 75.0959 167.046 74.3735 167.039 73.4355C167.029 71.5371 167.016 68.7749 167 65.2679C166.982 58.249 166.956 48.2502 166.924 36.2788L167.073 36.4272C155.881 36.4335 142.739 36.4412 128.739 36.4489H128.735L128.905 36.2788C128.896 50.9872 128.889 64.7478 128.882 76.3524L128.735 76.2068C140.224 76.2376 149.788 76.2635 156.494 76.281C159.845 76.2971 162.481 76.3104 164.292 76.3188C165.186 76.3265 165.875 76.3321 166.355 76.3356C166.581 76.3391 166.757 76.3419 166.887 76.344C167.008 76.3475 167.07 76.3496 167.073 76.3524C167.076 76.3552 167.018 76.358 166.903 76.3608C166.777 76.3629 166.606 76.3657 166.386 76.3692C165.913 76.3734 165.234 76.379 164.351 76.386C162.548 76.3951 159.924 76.4077 156.587 76.4245C149.858 76.4427 140.261 76.4686 128.735 76.4994L128.589 76.5001V76.3531C128.582 64.7485 128.574 50.9879 128.564 36.2795V36.1094H128.735H128.738C142.738 36.1171 155.881 36.1248 167.072 36.1311H167.221V36.2795C167.189 48.2908 167.163 58.3225 167.145 65.3638C167.128 68.8568 167.115 71.6071 167.106 73.4978C167.098 74.4239 167.092 75.1365 167.088 75.6328C167.085 75.8645 167.082 76.043 167.08 76.176C167.078 76.2957 167.076 76.3559 167.073 76.3524Z" fill="#E0E0E0"/>
<path d="M154.371 49.8882H141.543V62.7164H154.371V49.8882Z" fill="#EBEBEB"/>
<path d="M97.7544 250.53L99.0683 274.701C99.1152 275.562 99.8236 276.238 100.686 276.244L144.181 276.563C145.082 276.57 145.818 275.844 145.824 274.943L145.962 256.128C145.968 255.223 145.237 254.485 144.332 254.484L117.581 254.46C117.149 254.459 116.735 254.288 116.429 253.983L111.813 249.369C111.51 249.066 111.1 248.894 110.672 248.892L99.3945 248.809C98.4551 248.802 97.7033 249.59 97.7544 250.53Z" fill="#EBEBEB"/>
<path d="M146.007 251.645L98.4824 251.298L98.2751 279.696L145.8 280.043L146.007 251.645Z" fill="#F5F5F5"/>
<path d="M94.675 253.816L98.0868 283.456C98.1477 283.983 98.5915 284.381 99.1214 284.385L145.436 284.725C145.983 284.729 146.441 284.311 146.489 283.765L149.038 254.168C149.09 253.559 148.612 253.034 148 253.029L95.725 252.646C95.095 252.642 94.6029 253.19 94.675 253.816Z" fill="#EBEBEB"/>
<path d="M173.317 264.143L174.634 288.367C174.681 289.23 175.39 289.907 176.255 289.914L219.845 290.233C220.748 290.239 221.485 289.513 221.492 288.61L221.63 269.754C221.637 268.847 220.903 268.107 219.996 268.106L193.187 268.082C192.754 268.082 192.339 267.909 192.032 267.603L187.407 262.98C187.103 262.676 186.692 262.505 186.262 262.501L174.961 262.419C174.019 262.412 173.265 263.201 173.317 264.143Z" fill="#EBEBEB"/>
<path d="M221.679 265.262L174.051 264.915L173.843 293.375L221.471 293.723L221.679 265.262Z" fill="#F5F5F5"/>
<path d="M170.234 267.437L173.652 297.142C173.713 297.67 174.158 298.07 174.69 298.074L221.105 298.414C221.654 298.418 222.113 298 222.161 297.452L224.715 267.791C224.768 267.18 224.288 266.654 223.675 266.65L171.286 266.266C170.654 266.26 170.161 266.809 170.234 267.437Z" fill="#EBEBEB"/>
<path d="M65.9895 223.197C58.8131 212.22 59.8596 196.539 68.4304 186.613C71.0904 183.532 74.8088 180.854 78.8639 181.201C83.0163 181.557 86.3623 185.118 87.6258 189.09C88.8893 193.062 88.4511 197.365 87.7091 201.466C86.6696 207.208 84.9294 213.084 80.9464 217.348C76.9634 221.613 71.1107 225.995 65.9895 223.197Z" fill="#FF8A49"/>
<path d="M68.1522 276.03C65.4495 269.724 67.4095 261.739 72.7253 257.402C74.3752 256.056 76.5333 255.013 78.5913 255.56C80.6983 256.119 82.0997 258.258 82.3909 260.418C82.6821 262.579 82.0661 264.756 81.3122 266.802C80.2566 269.666 78.8272 272.535 76.3884 274.372C73.9496 276.208 70.5371 277.935 68.1522 276.03Z" fill="#FF8A49"/>
<path d="M52.6483 272.261C54.6216 262.53 49.4927 251.793 40.6839 247.211C37.9497 245.789 34.5841 244.947 31.8289 246.327C29.0072 247.74 27.652 251.183 27.8753 254.33C28.0993 257.477 29.6127 260.382 31.2836 263.058C33.623 266.807 36.493 270.452 40.4893 272.336C44.4856 274.221 49.8294 275.664 52.6483 272.261Z" fill="#FF8A49"/>
<path d="M53.8913 245.948C57.3269 234.861 51.5015 221.417 41.7918 215.056C38.7783 213.081 34.9626 211.707 31.5956 212.989C28.1481 214.303 26.1678 218.148 26.0586 221.835C25.9501 225.523 27.3697 229.078 29 232.388C31.282 237.022 34.1926 241.598 38.6201 244.258C43.0483 246.918 50.2142 249.576 53.8913 245.948Z" fill="#FF8A49"/>
<path d="M58.9947 300.142C58.9786 300.144 58.9401 299.959 58.8827 299.605C58.8225 299.202 58.7462 298.689 58.6524 298.059C58.6048 297.718 58.553 297.344 58.497 296.941C58.4179 296.532 58.3332 296.092 58.2429 295.622C58.0623 294.676 57.8761 293.596 57.566 292.423C57.4232 291.833 57.2741 291.217 57.1187 290.575C56.9325 289.939 56.7386 289.279 56.5384 288.597C56.1688 287.22 55.6221 285.797 55.1104 284.28C53.9743 281.286 52.5624 278.056 50.8306 274.79C49.0659 271.54 47.1535 268.577 45.2859 265.975C44.3045 264.71 43.4204 263.467 42.4782 262.398C42.0197 261.854 41.5766 261.328 41.1503 260.821C40.7016 260.338 40.2704 259.872 39.8574 259.427C39.0517 258.52 38.2544 257.768 37.5656 257.094C37.2247 256.759 36.9048 256.446 36.6073 256.154C36.3021 255.884 36.02 255.635 35.7617 255.406C35.2885 254.979 34.9035 254.633 34.6004 254.36C34.3379 254.116 34.2049 253.982 34.2154 253.97C34.2252 253.957 34.3785 254.066 34.6606 254.287C34.9791 254.543 35.3837 254.868 35.8814 255.269C36.1488 255.489 36.4407 255.728 36.7571 255.988C37.0637 256.272 37.3934 256.577 37.7455 256.903C38.4546 257.561 39.2722 258.301 40.0975 259.198C40.5196 259.639 40.9613 260.1 41.4198 260.579C41.8559 261.083 42.3081 261.606 42.7757 262.147C43.7368 263.212 44.6377 264.451 45.6345 265.718C47.5329 268.322 49.4684 271.297 51.2443 274.567C52.9873 277.854 54.3964 281.111 55.5171 284.131C56.0211 285.661 56.5566 287.097 56.9129 288.487C57.1054 289.175 57.2909 289.841 57.4701 290.483C57.6157 291.131 57.7557 291.753 57.8901 292.349C58.1806 293.532 58.3458 294.622 58.5019 295.577C58.5789 296.051 58.6517 296.495 58.7189 296.907C58.7602 297.314 58.7987 297.69 58.8344 298.035C58.8925 298.671 58.9401 299.188 58.9779 299.595C59.0045 299.953 59.0108 300.141 58.9947 300.142Z" fill="#263238"/>
<path d="M58.7458 302.136C58.7381 302.135 58.7381 302.06 58.7458 301.915C58.7584 301.742 58.7738 301.532 58.7934 301.273C58.8487 300.671 58.925 299.849 59.0209 298.809C59.0741 298.271 59.1322 297.678 59.1966 297.031C59.2456 296.38 59.2631 295.67 59.303 294.909C59.3597 293.385 59.5053 291.653 59.4521 289.734C59.4472 288.773 59.4423 287.769 59.4374 286.723C59.4269 285.677 59.3282 284.59 59.275 283.464C59.1994 281.208 58.8928 278.817 58.6212 276.296C57.9324 271.273 56.8572 265.793 55.2199 260.173C53.528 254.567 51.442 249.384 49.2811 244.798C48.1345 242.537 47.088 240.364 45.9211 238.432C45.352 237.459 44.8424 236.494 44.2803 235.611C43.714 234.731 43.1708 233.886 42.6514 233.079C41.6497 231.44 40.5836 230.068 39.7058 228.821C39.2578 228.205 38.856 227.619 38.4591 227.1C38.0531 226.593 37.6807 226.128 37.3433 225.706C36.6965 224.887 36.1848 224.238 35.8103 223.764C35.6528 223.558 35.5254 223.389 35.4204 223.251C35.3343 223.134 35.2937 223.071 35.2993 223.066C35.3049 223.06 35.3588 223.113 35.4568 223.22C35.5709 223.349 35.7109 223.508 35.8824 223.703C36.2744 224.164 36.8092 224.794 37.4861 225.591C37.8347 226.006 38.2183 226.464 38.6369 226.963C39.0443 227.474 39.458 228.054 39.9172 228.664C40.8174 229.899 41.9059 231.262 42.9293 232.895C43.4585 233.7 44.0129 234.542 44.5897 235.419C45.1616 236.301 45.681 237.265 46.2599 238.238C47.4457 240.169 48.5097 242.344 49.6717 244.61C51.8634 249.205 53.9718 254.408 55.6714 260.039C57.3164 265.685 58.3839 271.194 59.0517 276.241C59.3128 278.774 59.6061 281.177 59.6649 283.443C59.7097 284.574 59.8 285.665 59.8007 286.715C59.7951 287.765 59.7902 288.773 59.7853 289.737C59.8175 291.663 59.6481 293.4 59.5662 294.926C59.5137 295.688 59.4829 296.399 59.4206 297.051C59.3415 297.698 59.2694 298.291 59.2036 298.829C59.0706 299.866 58.9656 300.685 58.8886 301.286C58.8508 301.543 58.82 301.752 58.7948 301.923C58.7696 302.064 58.7535 302.137 58.7458 302.136Z" fill="#263238"/>
<path d="M77.4215 194.453C77.4285 194.457 77.397 194.527 77.3298 194.658C77.2472 194.813 77.1457 195.002 77.0204 195.234C76.7215 195.769 76.3113 196.499 75.794 197.424C75.5308 197.901 75.2144 198.417 74.9099 199.006C74.6138 199.602 74.2932 200.246 73.9495 200.937C73.603 201.63 73.2334 202.369 72.8428 203.153C72.469 203.946 72.1134 204.803 71.7172 205.692C71.3329 206.586 70.901 207.51 70.5041 208.496C70.1219 209.488 69.7243 210.52 69.3127 211.587C69.1076 212.121 68.8983 212.664 68.6862 213.216C68.4965 213.777 68.304 214.346 68.1087 214.923C67.7195 216.079 67.3184 217.268 66.9075 218.487C65.3864 223.406 63.9451 228.883 62.7278 234.7C61.5497 240.527 60.7223 246.132 60.1119 251.246C59.5883 256.37 59.2019 260.995 59.0962 264.89C58.9975 266.836 58.9772 268.598 58.9709 270.146C58.9457 271.693 58.9401 273.027 58.9765 274.116C58.9912 275.176 59.0031 276.014 59.0115 276.626C59.0101 276.89 59.0094 277.105 59.0087 277.28C59.0052 277.428 58.9996 277.503 58.9919 277.503C58.9835 277.503 58.9737 277.428 58.9611 277.282C58.9492 277.108 58.9352 276.894 58.917 276.63C58.8869 276.019 58.8456 275.181 58.7938 274.121C58.7294 273.031 58.7084 271.696 58.7084 270.146C58.6895 268.595 58.6867 266.83 58.7644 264.879C58.8274 260.974 59.1809 256.336 59.6821 251.199C60.2701 246.07 61.0863 240.448 62.2679 234.605C63.488 228.773 64.9468 223.282 66.4952 218.355C66.9138 217.135 67.3219 215.944 67.7188 214.786C67.9183 214.208 68.115 213.639 68.3089 213.077C68.5259 212.525 68.7394 211.982 68.9487 211.447C69.3701 210.38 69.7775 209.349 70.1688 208.357C70.5762 207.372 71.0186 206.448 71.4134 205.556C71.8201 204.668 72.1869 203.814 72.5726 203.023C72.9765 202.243 73.3573 201.507 73.715 200.817C74.0713 200.131 74.4045 199.491 74.7118 198.899C75.0289 198.315 75.3579 197.803 75.6337 197.333C76.1846 196.426 76.6207 195.708 76.9385 195.185C77.0792 194.962 77.194 194.78 77.2878 194.632C77.3697 194.51 77.4152 194.449 77.4215 194.453Z" fill="#263238"/>
<path d="M74.9837 261.81C75.0103 261.828 74.7373 262.305 74.2207 263.149C73.6957 263.988 72.9754 265.228 72.1305 266.78C71.2786 268.329 70.3518 270.22 69.4117 272.358C68.4947 274.506 67.5784 276.907 66.7741 279.479C65.9866 282.058 65.3895 284.558 64.9352 286.849C64.5054 289.145 64.2037 291.229 64.0329 292.988C63.8544 294.747 63.7508 296.176 63.7109 297.165C63.6612 298.153 63.6178 298.701 63.5856 298.701C63.5534 298.701 63.5345 298.153 63.5282 297.16C63.5121 296.167 63.5653 294.729 63.7025 292.958C63.8313 291.185 64.1001 289.083 64.5096 286.768C64.9436 284.457 65.5323 281.937 66.3254 279.34C67.1353 276.749 68.0712 274.335 69.0162 272.184C69.9836 270.041 70.9475 268.154 71.8407 266.618C72.7269 265.079 73.4934 263.861 74.0674 263.05C74.6316 262.233 74.9564 261.791 74.9837 261.81Z" fill="#263238"/>
<path d="M44.9043 295.2H76.4281L72.6138 327.396H48.8306L44.9043 295.2Z" fill="#455A64"/>
<path d="M46.0527 323.921L48.7302 327.397H72.6114L75.3652 324.032L46.0527 323.921Z" fill="#263238"/>
<path d="M75.1974 304.671C75.1974 304.801 68.6559 304.906 60.5877 304.906C52.5174 304.906 45.9766 304.801 45.9766 304.671C45.9766 304.542 52.5167 304.436 60.5877 304.436C68.6559 304.436 75.1974 304.541 75.1974 304.671Z" fill="white"/>
<path d="M75.1974 306.814C75.1974 306.944 68.6559 307.05 60.5877 307.05C52.5174 307.05 45.9766 306.945 45.9766 306.814C45.9766 306.684 52.5167 306.579 60.5877 306.579C68.6559 306.579 75.1974 306.685 75.1974 306.814Z" fill="white"/>
<path d="M74.8048 308.888C74.8048 309.017 68.4922 309.123 60.7068 309.123C52.9186 309.123 46.6074 309.018 46.6074 308.888C46.6074 308.758 52.9186 308.653 60.7068 308.653C68.4922 308.653 74.8048 308.758 74.8048 308.888Z" fill="white"/>
<path d="M323.775 327.435C323.775 327.535 255.503 327.617 171.305 327.617C87.0773 327.617 18.8203 327.535 18.8203 327.435C18.8203 327.334 87.0773 327.253 171.305 327.253C255.503 327.253 323.775 327.334 323.775 327.435Z" fill="#263238"/>
<path d="M123.845 192.721C119.89 192.721 116.684 189.514 116.684 185.559V123.304C116.684 120.137 119.425 117.568 122.808 117.568H128.662C131.051 117.568 133.222 116.268 134.223 114.236L135.481 111.684C136.482 109.653 138.652 108.352 141.041 108.352H168.829C170.995 108.352 173 109.424 174.102 111.17L175.467 113.333C176.569 115.08 178.574 116.151 180.741 116.151H216.164C219.547 116.151 222.288 118.72 222.288 121.887V185.561C222.288 189.516 219.082 192.722 215.127 192.722H123.845V192.721Z" fill="#FF8A49"/>
<g opacity="0.3">
<path d="M123.845 192.721C119.89 192.721 116.684 189.514 116.684 185.559V123.304C116.684 120.137 119.425 117.568 122.808 117.568H128.662C131.051 117.568 133.222 116.268 134.223 114.236L135.481 111.684C136.482 109.653 138.652 108.352 141.041 108.352H168.829C170.995 108.352 173 109.424 174.102 111.17L175.467 113.333C176.569 115.08 178.574 116.151 180.741 116.151H216.164C219.547 116.151 222.288 118.72 222.288 121.887V185.561C222.288 189.516 219.082 192.722 215.127 192.722H123.845V192.721Z" fill="black"/>
</g>
<path d="M177.24 116.147L154.705 116.097L152.692 112.333C151.386 109.89 148.72 108.348 145.803 108.348H123.776C119.856 108.348 116.678 111.325 116.678 114.997V117.565V185.164C116.678 189.336 120.289 192.718 124.743 192.718H214.217C218.671 192.718 222.283 189.336 222.283 185.164V121.305C222.283 118.456 219.973 116.147 217.124 116.147H177.24Z" fill="#FF8A49"/>
<path d="M188.605 169.32H178.631C178.241 169.32 177.926 169.004 177.926 168.614C177.926 168.224 178.241 167.909 178.631 167.909H188.605C194.077 167.909 198.529 163.457 198.529 157.985C198.529 152.721 194.408 148.374 189.149 148.088C188.841 148.071 188.58 147.858 188.503 147.56C186.695 140.552 180.383 135.658 173.153 135.658C168.319 135.658 163.804 137.83 160.769 141.617C160.617 141.806 160.377 141.906 160.138 141.876C159.583 141.812 159.089 141.781 158.624 141.781C151.42 141.781 145.56 147.641 145.56 154.845C145.56 162.048 151.42 167.909 158.624 167.909H166.708C167.098 167.909 167.414 168.224 167.414 168.614C167.414 169.004 167.098 169.32 166.708 169.32H158.624C150.642 169.32 144.148 162.827 144.148 154.845C144.148 146.864 150.642 140.37 158.624 140.37C159.031 140.37 159.456 140.391 159.914 140.434C163.214 136.497 168.017 134.247 173.153 134.247C180.858 134.247 187.605 139.349 189.736 146.718C195.498 147.289 199.941 152.142 199.941 157.984C199.941 164.235 194.856 169.32 188.605 169.32Z" fill="white"/>
<path d="M172.477 175.686C172.087 175.686 171.771 175.371 171.771 174.981V156.781C171.771 156.392 172.087 156.076 172.477 156.076C172.867 156.076 173.183 156.392 173.183 156.781V174.981C173.183 175.371 172.867 175.686 172.477 175.686Z" fill="white"/>
<path d="M177.791 164.048C177.576 164.048 177.364 163.95 177.225 163.765L172.587 157.55C172.548 157.499 172.511 157.497 172.452 157.487C172.412 157.487 172.359 157.499 172.315 157.552L167.393 163.595C167.148 163.898 166.703 163.943 166.401 163.697C166.098 163.451 166.053 163.007 166.299 162.704L171.22 156.662C171.528 156.282 171.986 156.079 172.475 156.076C172.965 156.083 173.416 156.31 173.713 156.699L178.355 162.92C178.589 163.232 178.524 163.674 178.212 163.907C178.086 164.003 177.938 164.048 177.791 164.048Z" fill="white"/>
<path d="M148.723 207.423V202.952H149.547V207.389C149.547 209.24 150.417 210.088 151.933 210.088C153.461 210.088 154.33 209.241 154.33 207.389V202.952H155.133V207.423C155.133 209.664 153.929 210.823 151.933 210.823C149.937 210.823 148.723 209.665 148.723 207.423Z" fill="#263238"/>
<path d="M163.389 207.823C163.389 209.607 162.141 210.812 160.468 210.812C159.532 210.812 158.73 210.41 158.239 209.651V212.918H157.447V204.891H158.205V206.05C158.685 205.27 159.498 204.847 160.468 204.847C162.141 204.848 163.389 206.05 163.389 207.823ZM162.597 207.823C162.597 206.464 161.65 205.538 160.412 205.538C159.163 205.538 158.227 206.463 158.227 207.823C158.227 209.195 159.163 210.109 160.412 210.109C161.649 210.109 162.597 209.195 162.597 207.823Z" fill="#263238"/>
<path d="M165 202.483H165.792V210.756H165V202.483Z" fill="#263238"/>
<path d="M167.408 207.822C167.408 206.083 168.68 204.847 170.397 204.847C172.114 204.847 173.373 206.083 173.373 207.822C173.373 209.562 172.113 210.811 170.397 210.811C168.68 210.811 167.408 209.562 167.408 207.822ZM172.57 207.822C172.57 206.451 171.645 205.537 170.397 205.537C169.147 205.537 168.211 206.45 168.211 207.822C168.211 209.194 169.147 210.108 170.397 210.108C171.645 210.108 172.57 209.194 172.57 207.822Z" fill="#263238"/>
<path d="M179.382 207.12V210.755H178.624V209.841C178.267 210.443 177.576 210.812 176.606 210.812C175.278 210.812 174.465 210.121 174.465 209.106C174.465 208.202 175.044 207.443 176.727 207.443H178.589V207.087C178.589 206.083 178.021 205.538 176.928 205.538C176.17 205.538 175.456 205.805 174.977 206.229L174.62 205.638C175.211 205.136 176.081 204.847 177.005 204.847C178.523 204.847 179.382 205.604 179.382 207.12ZM178.59 208.993V208.034H176.75C175.614 208.034 175.246 208.48 175.246 209.082C175.246 209.762 175.792 210.185 176.728 210.185C177.62 210.186 178.278 209.763 178.59 208.993Z" fill="#263238"/>
<path d="M186.9 202.483V210.756H186.141V209.597C185.662 210.387 184.849 210.812 183.878 210.812C182.206 210.812 180.957 209.597 180.957 207.824C180.957 206.051 182.206 204.849 183.878 204.849C184.815 204.849 185.617 205.249 186.107 206.007V202.483H186.9ZM186.12 207.824C186.12 206.453 185.183 205.539 183.946 205.539C182.697 205.539 181.761 206.452 181.761 207.824C181.761 209.196 182.697 210.109 183.946 210.109C185.183 210.109 186.12 209.196 186.12 207.824Z" fill="#263238"/>
<path d="M188.594 210.199C188.594 209.854 188.861 209.598 189.185 209.598C189.509 209.598 189.786 209.854 189.786 210.199C189.786 210.544 189.508 210.812 189.185 210.812C188.861 210.812 188.594 210.544 188.594 210.199Z" fill="#263238"/>
<path d="M190.957 210.199C190.957 209.854 191.225 209.598 191.548 209.598C191.872 209.598 192.151 209.854 192.151 210.199C192.151 210.544 191.871 210.812 191.548 210.812C191.225 210.812 190.957 210.544 190.957 210.199Z" fill="#263238"/>
<path d="M193.318 210.199C193.318 209.854 193.587 209.598 193.909 209.598C194.233 209.598 194.51 209.854 194.51 210.199C194.51 210.544 194.232 210.812 193.909 210.812C193.586 210.812 193.318 210.544 193.318 210.199Z" fill="#263238"/>
<path d="M244.096 239.243H88.5824C84.933 239.243 81.9746 236.285 81.9746 232.637V230.707C81.9746 227.058 84.933 224.099 88.5824 224.099H244.095C247.744 224.099 250.701 227.058 250.701 230.707V232.637C250.702 236.285 247.744 239.243 244.096 239.243Z" fill="#E0E0E0"/>
<path d="M159.732 239.243H88.5824C84.933 239.243 81.9746 236.285 81.9746 232.637V230.707C81.9746 227.058 84.933 224.099 88.5824 224.099H159.732C163.381 224.099 166.338 227.058 166.338 230.707V232.637C166.338 236.285 163.381 239.243 159.732 239.243Z" fill="#FF8A49"/>
<g opacity="0.3">
<path d="M94.7241 224.099L85.7441 238.344L87.154 238.974C87.5529 239.153 87.9826 239.244 88.4154 239.244H91.2711L101.022 224.1H94.7241V224.099Z" fill="white"/>
</g>
<g opacity="0.3">
<path d="M110.768 224.099L101.221 239.244H107.314L117.065 224.099H110.768Z" fill="white"/>
</g>
<g opacity="0.3">
<path d="M126.817 224.1L117.27 239.245H123.364L133.113 224.1H126.817Z" fill="white"/>
</g>
<g opacity="0.3">
<path d="M142.868 224.1L133.32 239.245H139.415L149.165 224.1H142.868Z" fill="white"/>
</g>
<g opacity="0.3">
<path d="M158.914 224.1L149.367 239.244H155.461L163.143 227.312L164.053 226.017C162.881 224.714 161.073 224.191 158.914 224.1Z" fill="white"/>
</g>
<path d="M244.242 239.252C244.241 239.233 244.555 239.242 245.155 239.156C245.749 239.072 246.65 238.863 247.656 238.241C248.659 237.644 249.757 236.563 250.38 234.957C250.693 234.155 250.832 233.235 250.812 232.24C250.792 231.241 250.883 230.168 250.577 229.096C250.049 226.96 248.144 224.828 245.451 224.349C244.79 224.213 244.099 224.242 243.38 224.238C242.665 224.24 241.935 224.242 241.191 224.243C239.704 224.246 238.158 224.25 236.558 224.254C230.152 224.266 222.862 224.279 214.804 224.293C182.555 224.313 138.025 224.34 88.8429 224.37C87.3632 224.377 85.9015 224.896 84.7648 225.83C83.6331 226.771 82.8454 228.097 82.5592 229.528C82.4086 230.241 82.4436 230.977 82.4366 231.743C82.4336 232.511 82.4286 233.234 82.5821 233.944C82.8853 235.364 83.6959 236.652 84.8087 237.563C85.9274 238.474 87.3513 238.972 88.7801 238.989C90.2658 238.99 91.7455 238.992 93.2192 238.993C96.1687 238.994 99.0932 238.994 101.994 238.995C113.592 239 124.78 239.005 135.438 239.01C156.751 239.031 175.943 239.05 192.066 239.066C208.177 239.101 221.216 239.13 230.243 239.149C234.741 239.17 238.236 239.187 240.623 239.198C241.8 239.209 242.701 239.218 243.322 239.224C243.93 239.235 244.242 239.252 244.242 239.252C244.242 239.252 243.93 239.27 243.323 239.279C242.702 239.285 241.801 239.294 240.624 239.305C238.238 239.316 234.742 239.333 230.244 239.354C221.217 239.374 208.178 239.402 192.067 239.437C175.944 239.453 156.751 239.472 135.439 239.493C124.781 239.498 113.593 239.503 101.995 239.508C99.0952 239.509 96.1697 239.509 93.2202 239.51C91.7445 239.509 90.2638 239.509 88.7771 239.508C87.2336 239.491 85.6911 238.95 84.4816 237.967C83.2781 236.983 82.4007 235.59 82.0726 234.054C81.9051 233.285 81.9121 232.486 81.9151 231.743C81.9221 230.999 81.8832 230.208 82.0467 229.427C82.3558 227.877 83.2083 226.442 84.4328 225.427C85.6612 224.416 87.2456 223.851 88.8439 223.845C138.026 223.875 182.556 223.902 214.805 223.922C222.863 223.936 230.153 223.949 236.559 223.961C238.159 223.965 239.705 223.968 241.192 223.972C241.936 223.974 242.666 223.976 243.381 223.977C244.089 223.984 244.81 223.958 245.498 224.102C248.292 224.617 250.246 226.837 250.775 229.043C251.083 230.159 250.981 231.25 250.994 232.239C251.007 233.242 250.854 234.198 250.526 235.012C249.873 236.65 248.739 237.738 247.712 238.33C246.681 238.945 245.765 239.14 245.164 239.208C244.555 239.278 244.242 239.252 244.242 239.252Z" fill="#263238"/>
</svg>
