<svg width="1241" height="290" viewBox="0 0 1241 290" fill="none" xmlns="http://www.w3.org/2000/svg">
<g clip-path="url(#clip0_83_151)">
<line x1="27.5688" y1="389.662" x2="27.5688" y2="-130" stroke="#DCDCDC"/>
<line x1="89.9829" y1="389.662" x2="89.9829" y2="-130" stroke="#DCDCDC"/>
<line x1="152.396" y1="389.662" x2="152.396" y2="-130" stroke="#DCDCDC"/>
<line x1="214.811" y1="389.662" x2="214.811" y2="-130" stroke="#DCDCDC"/>
<line x1="277.224" y1="389.662" x2="277.224" y2="-130" stroke="#DCDCDC"/>
<line x1="339.638" y1="389.662" x2="339.638" y2="-130" stroke="#DCDCDC"/>
<line x1="402.052" y1="389.662" x2="402.052" y2="-130" stroke="#DCDCDC"/>
<line x1="464.466" y1="389.662" x2="464.466" y2="-130" stroke="#DCDCDC"/>
<line x1="526.879" y1="389.662" x2="526.879" y2="-130" stroke="#DCDCDC"/>
<line x1="589.293" y1="389.662" x2="589.293" y2="-130" stroke="#DCDCDC"/>
<line x1="651.707" y1="389.662" x2="651.707" y2="-130" stroke="#DCDCDC"/>
<line x1="714.121" y1="389.662" x2="714.121" y2="-130" stroke="#DCDCDC"/>
<line x1="776.535" y1="389.662" x2="776.535" y2="-130" stroke="#DCDCDC"/>
<line x1="838.948" y1="389.662" x2="838.948" y2="-130" stroke="#DCDCDC"/>
<line x1="901.362" y1="389.662" x2="901.362" y2="-130" stroke="#DCDCDC"/>
<line x1="963.776" y1="389.662" x2="963.776" y2="-130" stroke="#DCDCDC"/>
<line x1="1026.19" y1="389.662" x2="1026.19" y2="-130" stroke="#DCDCDC"/>
<line x1="1088.6" y1="389.662" x2="1088.6" y2="-130" stroke="#DCDCDC"/>
<line x1="1151.02" y1="389.662" x2="1151.02" y2="-130" stroke="#DCDCDC"/>
<line x1="1213.43" y1="389.662" x2="1213.43" y2="-130" stroke="#DCDCDC"/>
<line x1="1310.5" y1="271.949" x2="-67.5" y2="271.949" stroke="#DCDCDC"/>
<line x1="1310.5" y1="215.302" x2="-67.5" y2="215.302" stroke="#DCDCDC"/>
<line x1="1310.5" y1="158.655" x2="-67.5" y2="158.655" stroke="#DCDCDC"/>
<line x1="1310.5" y1="102.008" x2="-67.5" y2="102.008" stroke="#DCDCDC"/>
<line x1="1310.5" y1="45.3606" x2="-67.5" y2="45.3606" stroke="#DCDCDC"/>
</g>
<defs>
<clipPath id="clip0_83_151">
<rect width="1241" height="290" rx="20" fill="white"/>
</clipPath>
</defs>
</svg>
